<svg id="royaleapi-logo" xmlns="http://www.w3.org/2000/svg" viewBox="0 0 2000 2350"><defs><style>.cls-1{fill:#f20042;}.cls-2{fill:#2b73ff;}.cls-3{fill:#ffbf00;}.cls-4{fill:#fff;}</style></defs><g id="royaleapi-logo-2" data-name="royaleapi-logo"><g id="Background"><polygon id="BG.Red" class="cls-1" points="1600.37 499.33 1305.85 499.33 1001.21 300.5 1000.21 301.16 1000.21 1700 1599.21 1398.5 1600.37 499.33"/><polygon id="BG.Blue" class="cls-2" points="700.13 499.33 400.06 499.33 399.21 1400.5 999.21 1700.5 1000.21 1700 1000.21 301.16 700.13 499.33"/></g><g id="Emblem"><path id="Emblem.Black" d="M999.21,1734.5a34,34,0,0,1-15.2-3.59l-600-300a34,34,0,0,1-18.8-30.44l.85-901.17a34,34,0,0,1,34-34H689.92l292.56-193.2a34,34,0,0,1,37.31-.1L1316,465.33h284.41a34,34,0,0,1,34,34l-1.16,899.17a34,34,0,0,1-18.71,30.33l-600,302A34,34,0,0,1,999.21,1734.5Zm-566-355,565.93,283,566.08-284.92,1.08-844.21H1305.84a34,34,0,0,1-18.58-5.53L1001.32,341.17,718.87,527.7a34,34,0,0,1-18.74,5.63H434Z"/><path id="Emblem.Yellow" class="cls-3" d="M1001.43,381.85l267.25,174.42a68,68,0,0,0,37.17,11.06h226.43l-1,789.24L999.11,1624.42,467.25,1358.49,468,567.33H700.14a68,68,0,0,0,37.47-11.26l263.82-174.22m-.22-81.35L700.14,499.33H400.06l-.85,901.17,600,300,600-302,1.15-899.17H1305.85L1001.21,300.5Z"/></g><g id="API.White"><path id="A" class="cls-4" d="M1000.33,1339.1v51.6L708.8,1229.45V1220l291.53-68.37v51.6l-43,9.89v102.34Zm-172.85-95,82.12,45.15v-64.5Z"/><path id="P" class="cls-4" d="M809.42,883.73c52.46,8.17,95.46,57.62,95.46,110.51v57.19l47.72,7.74h47.73v55.47L761.26,1076.8H713.53V964.14C713.53,911.25,756.53,875.13,809.42,883.73Zm0,47.73c-26.66-4.3-48.16,13.76-48.16,40v57.62l95.89,14.62V986.5C857.15,960.27,835.65,935.33,809.42,931.46Z"/><path id="I" class="cls-4" d="M761.26,753v47.73H713.53V657.12h47.73v48.16l191.34,30.1V687.22h47.73V830.84H952.6V783.11Z"/></g><g id="API.Black"><path id="A-2" data-name="A" d="M1043.33,1314.23V1211.89l-43-9.89v-51.6l291.54,68.37v9.46l-291.54,161.25v-51.6Zm47.73-90.73V1288l82.13-45.15Z"/><path id="P-2" data-name="P" d="M1287.14,962.92v112.66h-47.73l-239.08,37.84V1058h47.73l47.73-7.74V993c0-52.89,43-102.34,95.46-110.51C1244.14,873.91,1287.14,910,1287.14,962.92Zm-143.62,22.36v57.19l95.89-14.62V970.23c0-26.23-21.5-44.29-48.16-40C1165,934.11,1143.52,959.05,1143.52,985.28Z"/><path id="I-2" data-name="I" d="M1048.06,781.89v47.73h-47.73V686h47.73v48.16l191.35-30.1V655.9h47.73V799.52h-47.73V751.79Z"/></g></g><path class="cls-4" d="M351.61,2091.2l-70,11.6-60.4-97.6h-18.8V2100h-68V1824h96.4c66.8,0,106,30.4,106,87.2,0,38-18.4,64-51.2,78.4ZM224,1875.6H202V1956h21.2c29.2,0,46.4-14.4,46.4-40.8C269.61,1889.6,253.61,1875.6,224,1875.6Z"/><path class="cls-4" d="M452.81,2104c-54,0-93.6-38.8-93.6-101.6s40-102.4,94-102.4c54.4,0,94.4,39.2,94.4,102S507.21,2104,452.81,2104Zm.4-154.4c-23.2,0-35.6,20.4-35.6,52.4,0,31.6,12.8,53.2,35.6,53.2,23.2,0,36-21.2,36-52.8S476.41,1949.6,453.21,1949.6Z"/><path class="cls-4" d="M683.61,2104c-17.6,51.2-41.6,68.8-84.4,68.8a90.48,90.48,0,0,1-22.8-2.4l-7.6-48.4c6.4,2,12.4,3.2,24,3.2,13.6,0,25.6-5.2,32-18.8l2.4-6L556,1908.8l64.8-7.6,38,123.6,36-120.8h58.4Z"/><path class="cls-4" d="M880.41,2100l-4-24.4c-16,16.8-34.8,28.4-61.6,28.4-31.2,0-53.2-18.8-53.2-54.4,0-46,35.2-67.6,112-74.4v-3.6c0-17.2-9.6-24.8-29.6-24.8-22,0-42.4,5.6-63.2,14.8l-7.2-45.6c22.4-9.2,47.6-15.2,79.6-15.2,54,0,80.8,18,80.8,68V2100Zm-6.8-95.6c-41.2,6.4-52.4,20-52.4,37.2,0,12.4,7.6,19.2,18.8,19.2,11.6,0,22.8-5.2,33.6-14.8Z"/><path class="cls-4" d="M975.2,2100V1820.8l60.8-9.6V2100Z"/><path class="cls-4" d="M1247.2,2017.2H1129.6c3.2,30.8,21.6,42.8,48,42.8,21.6,0,42.8-8,64.4-20.4l6,42.4c-21.2,13.6-47.2,22-78,22-58.8,0-100.8-31.2-100.8-101.2,0-64,39.2-102.8,92.4-102.8,60,0,86.8,44.8,86.8,101.6C1248.4,2007.6,1248,2014,1247.2,2017.2Zm-87.2-78c-16.8,0-28.8,14.8-30.8,44.8h61.6C1188.8,1954.4,1178.4,1939.2,1160,1939.2Z"/><path class="cls-4" d="M1466.79,2102.8l-20.8-60H1351.2L1332,2100h-66.8l99.2-277.2h75.2l96,268.8Zm-68.39-209.6-31.2,96h62.4Z"/><path class="cls-4" d="M1652,2008.4H1634.4V2100H1566V1824h88.79c67.2,0,108.4,30,108.4,90C1763.19,1976.4,1718.79,2008.4,1652,2008.4Zm-1.2-132.8H1633.6v81.2h16c30.39,0,47.19-13.2,47.19-41.6C1696.79,1888.8,1681.19,1875.6,1650.79,1875.6Z"/><path class="cls-4" d="M1797.19,2100V1824h68.4v276Z"/><path d="M281.6,2142.8a30,30,0,0,1-25.5-14.21l-23.69-38.28V2110a30,30,0,0,1-30,30h-68a30,30,0,0,1-30-30V1834a30,30,0,0,1,30-30h96.4c40.57,0,73.18,9.76,96.93,29,25.56,20.7,39.07,51.2,39.07,88.21,0,36.44-13.75,66.66-39.34,87.77l49.29,75.89a30,30,0,0,1-20.25,45.94l-70,11.6A30.2,30.2,0,0,1,281.6,2142.8ZM232,1935.18a13.45,13.45,0,0,0,5.68-2.33c1.73-1.5,1.92-5.85,1.92-7.65,0-3.83-.7-6.16-1.4-6.76s-2.72-1.6-6.2-2.21Z"/><path d="M452.81,2144c-34.88,0-66.42-13-88.81-36.6-22.76-24-34.79-56.84-34.79-95s12.08-71.12,34.93-95.34c22.55-23.9,54.18-37.06,89.07-37.06,35,0,66.76,13.06,89.33,36.77,22.94,24.1,35.07,57,35.07,95.23s-12.22,71.16-35.33,95.3C519.61,2131,487.84,2144,452.81,2144Zm0-108.81h.38a5.43,5.43,0,0,0,.86-.06c1.17-1,5.14-7.56,5.14-22.74s-4-21.69-5.14-22.73a4.12,4.12,0,0,0-.86-.07,6,6,0,0,0-1,.07c-1.18,1.27-4.62,7.67-4.62,22.33C447.61,2027.25,451.48,2033.86,452.83,2035.19Z"/><path d="M599.21,2212.8c-14.81,0-22.44-1.64-28.57-3l-.52-.11a30,30,0,0,1-23.34-24.68l-7.61-48.39a30,30,0,0,1,38.59-33.29c3,.94,5.87,1.83,15,1.83h.46l-65.38-175.94A30,30,0,0,1,552.52,1889l64.8-7.6a29.94,29.94,0,0,1,32.17,21l8.87,28.87,7.7-25.82A30,30,0,0,1,694.81,1884h58.4a30,30,0,0,1,28.33,39.86l-69.58,200c-10.82,31.44-24.29,52.8-42.4,67.24C651.21,2205.69,628.19,2212.8,599.21,2212.8Z"/><path d="M814.81,2144c-49.77,0-83.2-33.92-83.2-84.4,0-27.14,9.56-50,27.83-66.94a29.92,29.92,0,0,1-8.26-16.38l-7.2-45.6a30,30,0,0,1,18.23-32.43c29-11.9,57.9-17.45,91-17.45,35.53,0,60.76,6.93,79.38,21.82,20.85,16.66,31.42,42.29,31.42,76.18V2110a30,30,0,0,1-30,30h-53.6a30,30,0,0,1-18.62-6.47A106.29,106.29,0,0,1,814.81,2144Z"/><path d="M975.21,2140a30,30,0,0,1-30-30V1830.8a30,30,0,0,1,25.32-29.63l60.79-9.6a30.85,30.85,0,0,1,4.68-.37,30,30,0,0,1,30,30V2110a30,30,0,0,1-30,30Z"/><path d="M1170,2144c-37.91,0-70-11.19-92.85-32.35-17.31-16.05-38-46.23-38-98.85,0-78.19,50.33-132.8,122.4-132.8,37.75,0,68.73,14.22,89.6,41.11,17.79,22.93,27.2,54.22,27.2,90.49,0,6.61-.36,15.94-2.09,22.87a29.87,29.87,0,0,1-4.72,10.2c0,.24.08.48.11.73l6,42.4a30,30,0,0,1-13.5,29.45C1236.53,2135,1204.84,2144,1170,2144Z"/><path d="M1466.78,2142.8a30,30,0,0,1-28.33-20.17l-13.81-39.83h-51.87l-12.33,36.75A30,30,0,0,1,1332,2140h-66.8a30,30,0,0,1-28.25-40.11l99.2-277.19a30,30,0,0,1,28.25-19.9h75.2a30,30,0,0,1,28.25,19.91l96,268.8a30,30,0,0,1-23.44,39.7l-68.79,11.2A30.66,30.66,0,0,1,1466.78,2142.8Z"/><path d="M1566,2140a30,30,0,0,1-30-30V1834a30,30,0,0,1,30-30h88.79c41.08,0,74.1,9.79,98.17,29.1,26.32,21.11,40.23,52.55,40.23,90.9,0,39.3-14.39,71.76-41.63,93.89-22,17.89-52,28.22-87.17,30.17V2110a30,30,0,0,1-30,30Zm97.6-205.27a6.23,6.23,0,0,0,1.48-.87c.59-.5,1.71-3,1.71-8.66,0-4.56-.86-6.6-1.09-6.89a6.08,6.08,0,0,0-2.1-1.06Z"/><rect x="1767.19" y="1804" width="128.4" height="336" rx="30"/><path class="cls-4" d="M351.61,2091.2l-70,11.6-60.4-97.6h-18.8V2100h-68V1824h96.4c66.8,0,106,30.4,106,87.2,0,38-18.4,64-51.2,78.4ZM224,1875.6H202V1956h21.2c29.2,0,46.4-14.4,46.4-40.8C269.61,1889.6,253.61,1875.6,224,1875.6Z"/><path class="cls-4" d="M452.81,2104c-54,0-93.6-38.8-93.6-101.6s40-102.4,94-102.4c54.4,0,94.4,39.2,94.4,102S507.21,2104,452.81,2104Zm.4-154.4c-23.2,0-35.6,20.4-35.6,52.4,0,31.6,12.8,53.2,35.6,53.2,23.2,0,36-21.2,36-52.8S476.41,1949.6,453.21,1949.6Z"/><path class="cls-4" d="M683.61,2104c-17.6,51.2-41.6,68.8-84.4,68.8a90.48,90.48,0,0,1-22.8-2.4l-7.6-48.4c6.4,2,12.4,3.2,24,3.2,13.6,0,25.6-5.2,32-18.8l2.4-6L556,1908.8l64.8-7.6,38,123.6,36-120.8h58.4Z"/><path class="cls-4" d="M880.41,2100l-4-24.4c-16,16.8-34.8,28.4-61.6,28.4-31.2,0-53.2-18.8-53.2-54.4,0-46,35.2-67.6,112-74.4v-3.6c0-17.2-9.6-24.8-29.6-24.8-22,0-42.4,5.6-63.2,14.8l-7.2-45.6c22.4-9.2,47.6-15.2,79.6-15.2,54,0,80.8,18,80.8,68V2100Zm-6.8-95.6c-41.2,6.4-52.4,20-52.4,37.2,0,12.4,7.6,19.2,18.8,19.2,11.6,0,22.8-5.2,33.6-14.8Z"/><path class="cls-4" d="M975.2,2100V1820.8l60.8-9.6V2100Z"/><path class="cls-4" d="M1247.2,2017.2H1129.6c3.2,30.8,21.6,42.8,48,42.8,21.6,0,42.8-8,64.4-20.4l6,42.4c-21.2,13.6-47.2,22-78,22-58.8,0-100.8-31.2-100.8-101.2,0-64,39.2-102.8,92.4-102.8,60,0,86.8,44.8,86.8,101.6C1248.4,2007.6,1248,2014,1247.2,2017.2Zm-87.2-78c-16.8,0-28.8,14.8-30.8,44.8h61.6C1188.8,1954.4,1178.4,1939.2,1160,1939.2Z"/><path class="cls-4" d="M1466.79,2102.8l-20.8-60H1351.2L1332,2100h-66.8l99.2-277.2h75.2l96,268.8Zm-68.39-209.6-31.2,96h62.4Z"/><path class="cls-4" d="M1652,2008.4H1634.4V2100H1566V1824h88.79c67.2,0,108.4,30,108.4,90C1763.19,1976.4,1718.79,2008.4,1652,2008.4Zm-1.2-132.8H1633.6v81.2h16c30.39,0,47.19-13.2,47.19-41.6C1696.79,1888.8,1681.19,1875.6,1650.79,1875.6Z"/><path class="cls-4" d="M1797.19,2100V1824h68.4v276Z"/></svg>