<?xml version="1.0" encoding="UTF-8"?><svg id="a" xmlns="http://www.w3.org/2000/svg" viewBox="0 0 980.82 327"><defs><style>.b,.c{fill:#fff;}.d{fill:#f20042;}.e{fill:#ffbf00;}.f{fill:#2b73ff;}.g{stroke-width:6px;}.g,.c,.h{stroke:#000;}.g,.h{fill:none;stroke-linejoin:round;}.c{stroke-miterlimit:10;}.h{stroke-width:18px;}</style></defs><g><polygon class="d" points="234.91 84.51 188.56 84.51 140.63 53.22 140.47 53.32 140.47 273.44 234.72 226 234.91 84.51"/><polygon class="f" points="93.26 84.51 46.05 84.51 45.92 226.31 140.31 273.52 140.47 273.44 140.47 53.32 93.26 84.51"/><path d="M140.32,279.52c-.92,0-1.84-.21-2.68-.63l-94.4-47.21c-2.03-1.02-3.32-3.1-3.32-5.37l.13-141.8c0-3.31,2.69-5.99,6-5.99h45.41l45.87-30.29c2-1.32,4.58-1.32,6.59-.02l46.44,30.31h44.55c1.59,0,3.12,.63,4.25,1.76,1.13,1.13,1.76,2.65,1.75,4.25l-.18,141.49c0,2.26-1.28,4.33-3.3,5.35l-94.4,47.52c-.85,.43-1.77,.64-2.7,.64Zm-88.4-56.91l88.39,44.2,88.42-44.51,.17-131.79h-40.33c-1.16,0-2.3-.34-3.28-.98l-44.63-29.13-44.08,29.12c-.98,.65-2.13,.99-3.31,.99H52.05l-.12,132.1Z"/><g><path class="e" d="M140.65,66.02l42.05,27.45c1.74,1.14,3.77,1.74,5.85,1.74h35.63l-.16,124.19-83.74,42.15-83.69-41.85,.11-124.49h36.53c2.1,0,4.15-.62,5.9-1.77l41.51-27.42m-.01-12.8l-47.37,31.29H46.05l-.13,141.8,94.4,47.21,94.4-47.52,.18-141.49h-46.34l-47.93-31.29Z"/><path class="b" d="M140.63,216.72v8.15l-45.95-25.41v-1.49l45.95-10.77v8.15l-6.92,1.56v16.11l6.92,3.72Zm-27.24-14.95l12.92,7.1v-10.14l-12.92,3.04Z"/><path class="b" d="M110.5,145.06c8.26,1.29,15.02,9.07,15.02,17.39v8.96l7.51,1.22h7.6v8.91l-37.65-6.08h-7.52v-17.74c0-8.32,6.77-14.01,15.09-12.65m-.11,7.5c-3.39-.73-6.72,1.43-7.45,4.82-.1,.49-.15,.98-.14,1.48v9.08l15.11,2.3v-9.01c-.14-4.31-3.28-7.92-7.52-8.67"/><polygon class="b" points="103.02 124.5 103.02 132.03 95.46 132.03 95.46 109.37 103.02 109.37 103.02 116.95 133.07 121.68 133.07 114.09 140.63 114.09 140.63 136.75 133.07 136.75 133.07 129.24 103.02 124.5"/><path d="M147.23,212.8v-16.1l-6.77-1.56v-8.15l45.94,10.78v1.49l-45.95,25.41v-8.15l6.77-3.73Zm7.55-14.28v10.15l12.92-7.1-12.92-3.05Z"/><path d="M185.63,157.52v17.78h-7.57l-37.44,6.08v-8.91h7.47l7.48-1.24v-8.97c0-8.32,6.77-16.1,15.02-17.39,8.32-1.35,15.09,4.33,15.09,12.65m-22.56,3.46v9.07l15.11-2.3v-9.08c.09-3.46-2.64-6.35-6.11-6.44-.5-.01-.99,.03-1.48,.14-4.24,.75-7.38,4.36-7.52,8.67"/><polygon points="148.02 129.1 148.02 136.59 140.47 136.59 140.47 113.93 148.02 113.93 148.02 121.51 178.08 116.77 178.08 109.21 185.63 109.21 185.63 131.87 178.08 131.87 178.08 124.36 148.02 129.1"/></g></g><g><g><path class="c" d="M364.5,213.91l-26.25,4.35-22.65-36.6h-7.05v35.55h-25.5V113.71h36.15c25.05,0,39.75,11.4,39.75,32.7,0,14.25-6.9,24-19.2,29.4l24.75,38.1Zm-47.85-80.85h-8.25v30.15h7.95c10.95,0,17.4-5.4,17.4-15.3s-6-14.85-17.1-14.85Z"/><path class="c" d="M402.44,218.71c-20.25,0-35.1-14.55-35.1-38.1s15-38.4,35.25-38.4,35.4,14.7,35.4,38.25-15.15,38.25-35.55,38.25Zm.15-57.9c-8.7,0-13.35,7.65-13.35,19.65s4.8,19.95,13.35,19.95,13.5-7.95,13.5-19.8-4.8-19.8-13.5-19.8h0Z"/><path class="c" d="M488.97,218.71c-6.6,19.2-15.6,25.8-31.65,25.8-2.88,.06-5.75-.24-8.55-.9l-2.85-18.15c2.91,.9,5.95,1.31,9,1.2,5.1,0,9.6-1.95,12-7.05l.9-2.25-26.7-71.85,24.3-2.85,14.25,46.35,13.5-45.3h21.9l-26.1,74.99Z"/><path class="c" d="M562.75,217.21l-1.5-9.15c-6,6.3-13.05,10.65-23.1,10.65-11.7,0-19.95-7.05-19.95-20.4,0-17.25,13.2-25.35,42-27.9v-1.35c0-6.45-3.6-9.3-11.1-9.3-8.25,0-15.9,2.1-23.7,5.55l-2.7-17.1c9.47-3.89,19.62-5.83,29.85-5.7,20.25,0,30.3,6.75,30.3,25.5v49.2h-20.1Zm-2.55-35.85c-15.45,2.4-19.65,7.5-19.65,13.95,0,4.65,2.85,7.2,7.05,7.2s8.55-1.95,12.6-5.55v-15.6Z"/><path class="c" d="M598.3,217.21V112.52l22.8-3.6v108.3h-22.8Z"/><path class="c" d="M700.29,186.16h-44.1c1.2,11.55,8.1,16.05,18,16.05,8.1,0,16.05-3,24.15-7.65l2.25,15.9c-8.74,5.53-18.9,8.4-29.25,8.25-22.05,0-37.8-11.7-37.8-37.95,0-24,14.7-38.55,34.65-38.55,22.5,0,32.55,16.8,32.55,38.1,.04,1.96-.11,3.92-.45,5.85Zm-32.7-29.25c-6.3,0-10.8,5.55-11.55,16.8h23.1c-.75-11.1-4.65-16.8-11.55-16.8h0Z"/><path class="c" d="M782.64,218.26l-7.8-22.5h-35.55l-7.2,21.45h-25.05l37.2-103.94h28.2l36,100.8-25.8,4.2Zm-25.65-78.6l-11.7,36h23.4l-11.7-36Z"/><path class="c" d="M852.09,182.86h-6.6v34.35h-25.65V113.71h33.3c25.2,0,40.65,11.25,40.65,33.75s-16.65,35.4-41.7,35.4Zm-.45-49.8h-6.45v30.45h6c11.4,0,17.7-4.95,17.7-15.6,0-9.9-5.85-14.85-17.25-14.85h0Z"/><path class="c" d="M906.54,217.21V113.71h25.65v103.5h-25.65Z"/></g><g><path class="h" d="M364.5,216.91l-26.25,4.35-22.65-36.6h-7.05v35.55h-25.5V116.71h36.15c25.05,0,39.75,11.4,39.75,32.7,0,14.25-6.9,24-19.2,29.4l24.75,38.1Zm-47.85-80.85h-8.25v30.15h7.95c10.95,0,17.4-5.4,17.4-15.3s-6-14.85-17.1-14.85Z"/><path class="h" d="M402.44,221.71c-20.25,0-35.1-14.55-35.1-38.1s15-38.4,35.25-38.4,35.4,14.7,35.4,38.25-15.15,38.25-35.55,38.25Zm.15-57.9c-8.7,0-13.35,7.65-13.35,19.65s4.8,19.95,13.35,19.95,13.5-7.95,13.5-19.8-4.8-19.8-13.5-19.8h0Z"/><path class="h" d="M488.97,221.71c-6.6,19.2-15.6,25.8-31.65,25.8-2.88,.06-5.75-.24-8.55-.9l-2.85-18.15c2.91,.9,5.95,1.31,9,1.2,5.1,0,9.6-1.95,12-7.05l.9-2.25-26.7-71.85,24.3-2.85,14.25,46.35,13.5-45.3h21.9l-26.1,74.99Z"/><path class="h" d="M562.75,220.21l-1.5-9.15c-6,6.3-13.05,10.65-23.1,10.65-11.7,0-19.95-7.05-19.95-20.4,0-17.25,13.2-25.35,42-27.9v-1.35c0-6.45-3.6-9.3-11.1-9.3-8.25,0-15.9,2.1-23.7,5.55l-2.7-17.1c9.47-3.89,19.62-5.83,29.85-5.7,20.25,0,30.3,6.75,30.3,25.5v49.2h-20.1Zm-2.55-35.85c-15.45,2.4-19.65,7.5-19.65,13.95,0,4.65,2.85,7.2,7.05,7.2s8.55-1.95,12.6-5.55v-15.6Z"/><path class="h" d="M598.3,220.21V115.52l22.8-3.6v108.3h-22.8Z"/><path class="h" d="M700.29,189.16h-44.1c1.2,11.55,8.1,16.05,18,16.05,8.1,0,16.05-3,24.15-7.65l2.25,15.9c-8.74,5.53-18.9,8.4-29.25,8.25-22.05,0-37.8-11.7-37.8-37.95,0-24,14.7-38.55,34.65-38.55,22.5,0,32.55,16.8,32.55,38.1,.04,1.96-.11,3.92-.45,5.85Zm-32.7-29.25c-6.3,0-10.8,5.55-11.55,16.8h23.1c-.75-11.1-4.65-16.8-11.55-16.8h0Z"/><path class="h" d="M782.64,221.26l-7.8-22.5h-35.55l-7.2,21.45h-25.05l37.2-103.94h28.2l36,100.8-25.8,4.2Zm-25.65-78.6l-11.7,36h23.4l-11.7-36Z"/><path class="h" d="M852.09,185.86h-6.6v34.35h-25.65V116.71h33.3c25.2,0,40.65,11.25,40.65,33.75s-16.65,35.4-41.7,35.4Zm-.45-49.8h-6.45v30.45h6c11.4,0,17.7-4.95,17.7-15.6,0-9.9-5.85-14.85-17.25-14.85h0Z"/><path class="h" d="M906.54,220.21V116.71h25.65v103.5h-25.65Z"/></g><g><path class="g" d="M364.5,213.91l-26.25,4.35-22.65-36.6h-7.05v35.55h-25.5V113.71h36.15c25.05,0,39.75,11.4,39.75,32.7,0,14.25-6.9,24-19.2,29.4l24.75,38.1Zm-47.85-80.85h-8.25v30.15h7.95c10.95,0,17.4-5.4,17.4-15.3s-6-14.85-17.1-14.85Z"/><path class="g" d="M402.44,218.71c-20.25,0-35.1-14.55-35.1-38.1s15-38.4,35.25-38.4,35.4,14.7,35.4,38.25-15.15,38.25-35.55,38.25Zm.15-57.9c-8.7,0-13.35,7.65-13.35,19.65s4.8,19.95,13.35,19.95,13.5-7.95,13.5-19.8-4.8-19.8-13.5-19.8h0Z"/><path class="g" d="M488.97,218.71c-6.6,19.2-15.6,25.8-31.65,25.8-2.88,.06-5.75-.24-8.55-.9l-2.85-18.15c2.91,.9,5.95,1.31,9,1.2,5.1,0,9.6-1.95,12-7.05l.9-2.25-26.7-71.85,24.3-2.85,14.25,46.35,13.5-45.3h21.9l-26.1,74.99Z"/><path class="g" d="M562.75,217.21l-1.5-9.15c-6,6.3-13.05,10.65-23.1,10.65-11.7,0-19.95-7.05-19.95-20.4,0-17.25,13.2-25.35,42-27.9v-1.35c0-6.45-3.6-9.3-11.1-9.3-8.25,0-15.9,2.1-23.7,5.55l-2.7-17.1c9.47-3.89,19.62-5.83,29.85-5.7,20.25,0,30.3,6.75,30.3,25.5v49.2h-20.1Zm-2.55-35.85c-15.45,2.4-19.65,7.5-19.65,13.95,0,4.65,2.85,7.2,7.05,7.2s8.55-1.95,12.6-5.55v-15.6Z"/><path class="g" d="M598.3,217.21V112.52l22.8-3.6v108.3h-22.8Z"/><path class="g" d="M700.29,186.16h-44.1c1.2,11.55,8.1,16.05,18,16.05,8.1,0,16.05-3,24.15-7.65l2.25,15.9c-8.74,5.53-18.9,8.4-29.25,8.25-22.05,0-37.8-11.7-37.8-37.95,0-24,14.7-38.55,34.65-38.55,22.5,0,32.55,16.8,32.55,38.1,.04,1.96-.11,3.92-.45,5.85Zm-32.7-29.25c-6.3,0-10.8,5.55-11.55,16.8h23.1c-.75-11.1-4.65-16.8-11.55-16.8h0Z"/><path class="g" d="M782.64,218.26l-7.8-22.5h-35.55l-7.2,21.45h-25.05l37.2-103.94h28.2l36,100.8-25.8,4.2Zm-25.65-78.6l-11.7,36h23.4l-11.7-36Z"/><path class="g" d="M852.09,182.86h-6.6v34.35h-25.65V113.71h33.3c25.2,0,40.65,11.25,40.65,33.75s-16.65,35.4-41.7,35.4Zm-.45-49.8h-6.45v30.45h6c11.4,0,17.7-4.95,17.7-15.6,0-9.9-5.85-14.85-17.25-14.85h0Z"/><path class="g" d="M906.54,217.21V113.71h25.65v103.5h-25.65Z"/></g><g><path class="b" d="M364.5,213.91l-26.25,4.35-22.65-36.6h-7.05v35.55h-25.5V113.71h36.15c25.05,0,39.75,11.4,39.75,32.7,0,14.25-6.9,24-19.2,29.4l24.75,38.1Zm-47.85-80.85h-8.25v30.15h7.95c10.95,0,17.4-5.4,17.4-15.3s-6-14.85-17.1-14.85Z"/><path class="b" d="M402.44,218.71c-20.25,0-35.1-14.55-35.1-38.1s15-38.4,35.25-38.4,35.4,14.7,35.4,38.25-15.15,38.25-35.55,38.25Zm.15-57.9c-8.7,0-13.35,7.65-13.35,19.65s4.8,19.95,13.35,19.95,13.5-7.95,13.5-19.8-4.8-19.8-13.5-19.8h0Z"/><path class="b" d="M488.97,218.71c-6.6,19.2-15.6,25.8-31.65,25.8-2.88,.06-5.75-.24-8.55-.9l-2.85-18.15c2.91,.9,5.95,1.31,9,1.2,5.1,0,9.6-1.95,12-7.05l.9-2.25-26.7-71.85,24.3-2.85,14.25,46.35,13.5-45.3h21.9l-26.1,74.99Z"/><path class="b" d="M562.75,217.21l-1.5-9.15c-6,6.3-13.05,10.65-23.1,10.65-11.7,0-19.95-7.05-19.95-20.4,0-17.25,13.2-25.35,42-27.9v-1.35c0-6.45-3.6-9.3-11.1-9.3-8.25,0-15.9,2.1-23.7,5.55l-2.7-17.1c9.47-3.89,19.62-5.83,29.85-5.7,20.25,0,30.3,6.75,30.3,25.5v49.2h-20.1Zm-2.55-35.85c-15.45,2.4-19.65,7.5-19.65,13.95,0,4.65,2.85,7.2,7.05,7.2s8.55-1.95,12.6-5.55v-15.6Z"/><path class="b" d="M598.3,217.21V112.52l22.8-3.6v108.3h-22.8Z"/><path class="b" d="M700.29,186.16h-44.1c1.2,11.55,8.1,16.05,18,16.05,8.1,0,16.05-3,24.15-7.65l2.25,15.9c-8.74,5.53-18.9,8.4-29.25,8.25-22.05,0-37.8-11.7-37.8-37.95,0-24,14.7-38.55,34.65-38.55,22.5,0,32.55,16.8,32.55,38.1,.04,1.96-.11,3.92-.45,5.85Zm-32.7-29.25c-6.3,0-10.8,5.55-11.55,16.8h23.1c-.75-11.1-4.65-16.8-11.55-16.8h0Z"/><path class="b" d="M782.64,218.26l-7.8-22.5h-35.55l-7.2,21.45h-25.05l37.2-103.94h28.2l36,100.8-25.8,4.2Zm-25.65-78.6l-11.7,36h23.4l-11.7-36Z"/><path class="b" d="M852.09,182.86h-6.6v34.35h-25.65V113.71h33.3c25.2,0,40.65,11.25,40.65,33.75s-16.65,35.4-41.7,35.4Zm-.45-49.8h-6.45v30.45h6c11.4,0,17.7-4.95,17.7-15.6,0-9.9-5.85-14.85-17.25-14.85h0Z"/><path class="b" d="M906.54,217.21V113.71h25.65v103.5h-25.65Z"/></g></g></svg>