<svg id="Layer_1" data-name="Layer 1" xmlns="http://www.w3.org/2000/svg" viewBox="0 0 980.82 327"><defs><style>.cls-1{fill:#f20042;}.cls-2{fill:#2b73ff;}.cls-3{fill:none;stroke:#000;stroke-linejoin:round;stroke-width:10.7px;}.cls-4{fill:#ffbf00;}.cls-5{fill:#fff;}</style></defs><polygon class="cls-1" points="234.91 84.51 188.56 84.51 140.63 53.22 140.47 53.32 140.47 273.44 234.72 226 234.91 84.51"/><polygon class="cls-2" points="93.26 84.51 46.05 84.51 45.92 226.31 140.31 273.52 140.47 273.44 140.47 53.32 93.26 84.51"/><polygon class="cls-3" points="140.64 53.22 93.27 84.51 46.05 84.51 45.92 226.31 140.32 273.52 234.72 226 234.91 84.51 188.57 84.51 140.64 53.22"/><path class="cls-4" d="M140.65,66l42,27.45a10.77,10.77,0,0,0,5.85,1.74h35.63L224,219.4l-83.73,42.15L56.6,219.7l.11-124.49H93.24a10.75,10.75,0,0,0,5.9-1.77L140.65,66m0-12.8L93.27,84.51H46.05l-.13,141.8,94.4,47.21L234.72,226l.19-141.49H188.57Z"/><path class="cls-5" d="M140.63,216.72v8.15L94.68,199.45V198l45.95-10.77v8.15l-6.93,1.55V213Zm-27.25-15,12.93,7.1V198.72Z"/><path class="cls-5" d="M110.5,145.06c8.25,1.29,15,9.07,15,17.39v9l7.51,1.22h7.6v8.91L103,175.46H95.47V157.72c0-8.33,6.76-14,15.09-12.66m-.11,7.5a6.28,6.28,0,0,0-7.45,4.82,6.69,6.69,0,0,0-.14,1.48v9.08l15.11,2.3v-9a9.1,9.1,0,0,0-7.52-8.67"/><polygon class="cls-5" points="103.02 124.5 103.02 132.03 95.47 132.03 95.47 109.37 103.02 109.37 103.02 116.95 133.07 121.68 133.07 114.09 140.63 114.09 140.63 136.75 133.07 136.75 133.07 129.24 103.02 124.5"/><path d="M147.23,212.8V196.7l-6.76-1.56V187l45.94,10.78v1.49l-45.95,25.41v-8.14Zm7.56-14.28v10.15l12.92-7.1Z"/><path d="M185.63,157.52V175.3h-7.57l-37.43,6.08v-8.91h7.47l7.47-1.25v-9c0-8.32,6.77-16.1,15-17.39s15.08,4.33,15.08,12.65M163.13,161v9.07l15.1-2.3v-9.08a6.28,6.28,0,0,0-6.1-6.44,6.63,6.63,0,0,0-1.48.14,9.09,9.09,0,0,0-7.52,8.67"/><polygon points="148.02 129.1 148.02 136.59 140.47 136.59 140.47 113.93 148.02 113.93 148.02 121.51 178.08 116.77 178.08 109.21 185.63 109.21 185.63 131.87 178.08 131.87 178.08 124.36 148.02 129.1"/><path d="M364.5,213.91l-26.25,4.35-22.65-36.6h-7.05v35.55h-25.5V113.71H319.2c25.05,0,39.75,11.4,39.75,32.7,0,14.25-6.9,24-19.2,29.4Zm-47.85-80.85H308.4v30.15h8c10.95,0,17.4-5.4,17.4-15.3C333.75,138.31,327.75,133.06,316.65,133.06Z"/><path d="M402.44,218.71c-20.25,0-35.1-14.55-35.1-38.1s15-38.4,35.25-38.4c20.4,0,35.4,14.7,35.4,38.25S422.84,218.71,402.44,218.71Zm.15-57.9c-8.7,0-13.35,7.65-13.35,19.65,0,11.85,4.8,19.95,13.35,19.95,8.7,0,13.5-7.95,13.5-19.8s-4.8-19.8-13.5-19.8Z"/><path d="M489,218.71c-6.6,19.2-15.6,25.8-31.65,25.8a33.69,33.69,0,0,1-8.55-.9l-2.85-18.15a26.88,26.88,0,0,0,9,1.2c5.1,0,9.6-1.95,12-7l.9-2.25-26.7-71.84,24.3-2.85L479.67,189l13.5-45.3h21.9Z"/><path d="M562.75,217.21l-1.5-9.15c-6,6.3-13,10.65-23.1,10.65-11.7,0-19.95-7.05-19.95-20.4,0-17.25,13.2-25.35,42-27.9v-1.35c0-6.45-3.6-9.3-11.1-9.3-8.25,0-15.9,2.1-23.7,5.55l-2.7-17.1a76,76,0,0,1,29.85-5.7c20.25,0,30.3,6.75,30.3,25.5v49.2Zm-2.55-35.85c-15.45,2.4-19.65,7.5-19.65,13.95,0,4.65,2.85,7.2,7.05,7.2s8.55-1.95,12.6-5.55Z"/><path d="M598.3,217.21V112.52l22.8-3.6v108.3Z"/><path d="M700.29,186.16h-44.1c1.2,11.55,8.1,16.05,18,16.05,8.1,0,16-3,24.15-7.65l2.25,15.9a53.26,53.26,0,0,1-29.25,8.25c-22.05,0-37.8-11.7-37.8-38,0-24,14.7-38.54,34.65-38.54,22.5,0,32.55,16.8,32.55,38.1A30.13,30.13,0,0,1,700.29,186.16Zm-32.7-29.25c-6.3,0-10.8,5.55-11.55,16.8h23.1c-.74-11.1-4.64-16.8-11.54-16.8Z"/><path d="M782.64,218.26l-7.8-22.5H739.29l-7.2,21.45H707l37.2-103.94h28.2l36,100.8ZM757,139.66l-11.7,36h23.4Z"/><path d="M852.09,182.86h-6.6v34.35H819.84V113.71h33.3c25.2,0,40.65,11.25,40.65,33.75C893.79,170.86,877.14,182.86,852.09,182.86Zm-.45-49.8h-6.45v30.45h6c11.4,0,17.7-4.95,17.7-15.6,0-9.89-5.85-14.85-17.25-14.85Z"/><path d="M906.54,217.21V113.71h25.65v103.5Z"/></svg>