<svg id="cr-api-logo-pad" xmlns="http://www.w3.org/2000/svg" viewBox="0 0 2000 2000"><defs><style>.cls-1{fill:#f20042;}.cls-2{fill:#2b73ff;}.cls-3,.cls-6{fill:none;}.cls-3{stroke:#000;stroke-linejoin:round;stroke-width:68px;}.cls-4{fill:#ffbf00;}.cls-5{fill:#fff;}</style></defs><g id="cr-api-logo-pad-2" data-name="cr-api-logo-pad"><g id="cr-api-logo"><polygon class="cls-1" points="1600.37 499.33 1305.85 499.33 1001.21 300.5 1000.21 301.16 1000.21 1700 1599.21 1398.5 1600.37 499.33"/><polygon class="cls-2" points="700.13 499.33 400.06 499.33 399.21 1400.5 999.21 1700.5 1000.21 1700 1000.21 301.16 700.13 499.33"/><polygon class="cls-3" points="1001.21 300.5 700.13 499.33 400.06 499.33 399.21 1400.5 999.21 1700.5 1599.21 1398.5 1600.37 499.33 1305.85 499.33 1001.21 300.5"/><path class="cls-4" d="M1001.43,381.85l267.25,174.42a68,68,0,0,0,37.17,11.06h226.43l-1,789.24L999.11,1624.42,467.25,1358.49,468,567.33H700.14a68,68,0,0,0,37.47-11.26l263.82-174.22m-.22-81.35L700.14,499.33H400.06l-.85,901.17,600,300,600-302,1.15-899.17H1305.85L1001.21,300.5Z"/><path class="cls-5" d="M1000.33,1339.1v51.6L708.8,1229.45V1220l291.53-68.37v51.6l-43,9.89v102.34Zm-172.85-95,82.12,45.15v-64.5Z"/><path class="cls-5" d="M809.42,883.73c52.46,8.17,95.46,57.62,95.46,110.51v57.19l47.72,7.74h47.73v55.47L761.26,1076.8H713.53V964.14C713.53,911.25,756.53,875.13,809.42,883.73Zm0,47.73c-26.66-4.3-48.16,13.76-48.16,40v57.62l95.89,14.62V986.5C857.15,960.27,835.65,935.33,809.42,931.46Z"/><path class="cls-5" d="M761.26,753v47.73H713.53V657.12h47.73v48.16l191.34,30.1V687.22h47.73V830.84H952.6V783.11Z"/><path d="M1043.33,1314.23V1211.89l-43-9.89v-51.6l291.54,68.37v9.46l-291.54,161.25v-51.6Zm47.73-90.73V1288l82.13-45.15Z"/><path d="M1287.14,962.92v112.66h-47.73l-239.08,37.84V1058h47.73l47.73-7.74V993c0-52.89,43-102.34,95.46-110.51C1244.14,873.91,1287.14,910,1287.14,962.92Zm-143.62,22.36v57.19l95.89-14.62V970.23c0-26.23-21.5-44.29-48.16-40C1165,934.11,1143.52,959.05,1143.52,985.28Z"/><path d="M1048.06,781.89v47.73h-47.73V686h47.73v48.16l191.35-30.1V655.9h47.73V799.52h-47.73V751.79Z"/></g><rect id="safe_area" class="cls-6" width="2000" height="2000"/></g></svg>