<svg id="cr-api-logo-pad" xmlns="http://www.w3.org/2000/svg" viewBox="0 0 2000 2000"><path d="M1000.33,1201.5l43,9.89v102.34l-43,23.65V1389l291.54-161.25v-9.46l-291.54-68.37Zm90.73,21.5,82.13,19.35-82.13,45.15Z"/><path d="M1287.14,1075.08V962.42c0-52.89-43-89-95.89-80.41-52.46,8.17-95.46,57.62-95.46,110.51v57.19l-47.73,7.74h-47.73v55.47l239.08-37.84Zm-143.62-90.3c0-26.23,21.5-51.17,47.73-55,26.66-4.3,48.16,13.76,48.16,40v57.62L1143.52,1042Z"/><polygon points="1048.06 781.39 1239.41 751.29 1239.41 799.02 1287.14 799.02 1287.14 655.4 1239.41 655.4 1239.41 703.56 1048.06 733.66 1048.06 685.5 1000.33 685.5 1000.33 829.12 1048.06 829.12 1048.06 781.39"/><path d="M809.42,931c-26.66-4.3-48.16,13.76-48.16,40v57.62l95.89,14.62V986C857.15,959.77,835.65,934.83,809.42,931Z"/><path d="M1624.42,474.8a34,34,0,0,0-24.05-10H1316l-296.17-193.3a34,34,0,0,0-37.31.1L689.92,464.83H400.06a34,34,0,0,0-34,34L365.21,1400a34,34,0,0,0,18.8,30.44l600,300a34,34,0,0,0,30.49,0l600-302a34,34,0,0,0,18.71-30.33l1.16-899.17A34,34,0,0,0,1624.42,474.8ZM1599.21,1398l-600,302-600-300,.85-901.17H700.14L1001.21,300l304.64,198.83h294.51Z"/><polygon points="909.6 1288.72 909.6 1224.22 827.48 1243.57 909.6 1288.72"/><polygon points="957.33 1314.95 1000.21 1338.53 1000.21 1202.75 957.33 1212.61 957.33 1314.95"/><path d="M1281.25,536.51,1001.36,353.83,724.93,536.38a45,45,0,0,1-24.79,7.45H445l-.78,828.37,554.9,277.45,555.11-279.4,1.06-826.42H1305.85A45,45,0,0,1,1281.25,536.51Zm250,819.56-531.06,267.3V1390.13L708.8,1229v-9.46l291.41-68.34v-37l-239-37.82H713.53V963.64c0-52.89,43-89,95.89-80.41,52.46,8.17,95.46,57.62,95.46,110.51v57.19l47.72,7.74h47.61V830.34H952.6V782.61l-191.34-30.1v47.73H713.53V656.62h47.73v48.16l191.34,30.1V686.72h47.61V382.15l1.22-.8,267.25,174.42a68,68,0,0,0,37.16,11.06h226.44Z"/></svg>