<svg id="Layer_1" data-name="Layer 1" xmlns="http://www.w3.org/2000/svg" viewBox="0 0 533.21 488.17"><path d="M8.77,26.06a13.59,13.59,0,0,1-6.34-1.48l.25-1.76a12.25,12.25,0,0,0,6.2,1.69c3.16,0,5.68-1.94,5.68-5,0-2.59-1.44-4.06-5.22-5.68C4.52,11.73,2.83,10.08,2.83,6.7c0-3.53,3-6,6.76-6A10.76,10.76,0,0,1,15,1.87L14.71,3.6A10,10,0,0,0,9.52,2.2c-3,0-4.93,2-4.93,4.42S6,10.37,9.88,12c4.43,1.87,6.48,3.78,6.48,7.35C16.36,23.58,12.87,26.06,8.77,26.06Z"/><path d="M22.52,4.28A1.54,1.54,0,0,1,21,2.81a1.48,1.48,0,0,1,1.48-1.44A1.45,1.45,0,0,1,24,2.81,1.5,1.5,0,0,1,22.52,4.28Zm-.83,21.49V8.85h1.66V25.77Z"/><path d="M40.81,25.77V14c0-2.55-1.23-4-3.64-4-1.87,0-3.82,1.08-5.94,3.06V25.77H29.54V8.85h1.22l.44,2.56c2.05-1.8,3.92-2.91,6.15-2.91,3.49,0,5.15,2,5.15,5.36V25.77Z"/><path d="M53.84,32.18c-4.32,0-7.56-1.55-7.56-4.39,0-1.69,1.4-3.35,4.1-4.61-1-.5-1.44-1.11-1.44-1.8,0-.9.58-1.51,1.66-2.19a5.41,5.41,0,0,1-3.1-5c0-3.53,2.92-5.68,6.09-5.68A6.52,6.52,0,0,1,57.8,9.93L62,8.57l.33,1.87-3.64.39a5.33,5.33,0,0,1,1.15,3.35c0,3.53-2.88,5.69-6.15,5.69A6,6,0,0,1,52,19.69c-1,.54-1.37.93-1.37,1.37,0,.75.76,1.08,4,1.69l1.3.25c3.88.76,5.79,1.84,5.79,4.21C61.72,30.27,58.19,32.18,53.84,32.18Zm-1.91-8.39C49.27,24.91,48,26.21,48,27.72c0,2.05,2.66,3.09,6,3.09,3.57,0,6.05-1.47,6.05-3.38,0-1.55-1.3-2.27-4.79-2.95L54,24.22C53.12,24.08,52.51,23.94,51.93,23.79Zm1.66-14a4.13,4.13,0,0,0-4.36,4.35,4.45,4.45,0,0,0,8.89,0A4.32,4.32,0,0,0,53.59,9.83Z"/><path d="M66.55,25.77V.4L68.2,0V25.77Z"/><path d="M80.77,26.13c-4.47,0-7.46-3.31-7.46-8.82s3.1-8.81,7.2-8.81C84.83,8.5,87,12.27,87,17v.36H75c0,4.32,2,7.35,5.8,7.35a9.2,9.2,0,0,0,5.87-2.59L87,23.65A9.45,9.45,0,0,1,80.77,26.13ZM75.11,15.91H85.23c-.11-3.31-1.76-6-4.72-6C77.31,9.9,75.47,12.38,75.11,15.91Z"/><path d="M91.24,16.52v-1.8h8.64v1.8Z"/><path d="M105.86,25.77V.94h12.56V2.48H107.59V12h8.71l.21,1.54h-8.92V24.22h11.19v1.55Z"/><path d="M123.68,25.77V.4L125.33,0V25.77Z"/><path d="M137.9,26.13c-4.47,0-7.45-3.31-7.45-8.82s3.09-8.81,7.19-8.81c4.32,0,6.48,3.77,6.48,8.45v.36h-12c0,4.32,2,7.35,5.8,7.35a9.2,9.2,0,0,0,5.87-2.59l.25,1.58A9.45,9.45,0,0,1,137.9,26.13Zm-5.65-10.22h10.11c-.11-3.31-1.76-6-4.72-6C134.44,9.9,132.61,12.38,132.25,15.91Z"/><path d="M155.32,26.13c-4.14,0-7.45-3.24-7.45-8.82s3.35-8.81,7.56-8.81a9,9,0,0,1,5.47,1.87l-.32,1.72A7.68,7.68,0,0,0,155.36,10c-3.6,0-5.73,3-5.73,7.34s2.06,7.35,5.87,7.35a7.86,7.86,0,0,0,5.29-2.16l.22,1.58A8.58,8.58,0,0,1,155.32,26.13Z"/><path d="M170.48,26.06c-2.42,0-4-1-4-3.85V10.29h-2.63V8.85h2.63v-6l1.69-.36V8.85h4.14l.22,1.44h-4.36V21.92c0,2,.79,2.66,2.67,2.66a7.53,7.53,0,0,0,1.69-.25l.25,1.37A7,7,0,0,1,170.48,26.06Z"/><path d="M179,14.65V25.77h-1.69V8.85h1.12l.54,3.53c1.29-1.91,3.27-3.85,6.08-3.88l.29,1.58A8.22,8.22,0,0,0,179,14.65Z"/><path d="M195,26.13c-4.21,0-7.45-3.24-7.45-8.82S190.89,8.5,195,8.5s7.49,3.2,7.49,8.81S199.13,26.13,195,26.13ZM195,10c-3.67,0-5.69,3-5.69,7.34s2.06,7.35,5.69,7.35,5.72-2.95,5.72-7.35C200.71,13.07,198.66,10,195,10Z"/><path d="M218.61,25.77V14c0-2.55-1.23-4-3.64-4-1.87,0-3.81,1.08-5.94,3.06V25.77h-1.69V8.85h1.22l.44,2.56c2.05-1.8,3.92-2.91,6.15-2.91,3.49,0,5.15,2,5.15,5.36V25.77Z"/><path d="M242.47,2.48V25.77h-1.72V2.48h-8.07V.94h17.75l.22,1.54Z"/><path d="M252.16,14.65V25.77h-1.69V8.85h1.11l.54,3.53c1.3-1.91,3.28-3.85,6.09-3.88l.29,1.58A8.18,8.18,0,0,0,252.16,14.65Z"/><path d="M272.14,25.77l-.4-2.27a9.36,9.36,0,0,1-6,2.63c-2.85,0-5.11-1.44-5.11-4.5,0-3.78,2.88-5.79,11-6.55V13.61c0-2.38-1.4-3.53-3.74-3.53a12.66,12.66,0,0,0-5.8,1.51L261.92,10A14.31,14.31,0,0,1,268,8.53c3.45,0,5.33,1.76,5.33,5V25.77Zm-.47-9.28c-7,.75-9.29,2.23-9.29,5,0,2.16,1.55,3.17,3.46,3.17a9.68,9.68,0,0,0,5.83-2.7Z"/><path d="M290.35,25.77V14c0-2.55-1.22-4-3.63-4-1.87,0-3.82,1.08-5.94,3.06V25.77h-1.69V8.85h1.22l.43,2.56c2.05-1.8,3.93-2.91,6.16-2.91,3.49,0,5.14,2,5.14,5.36V25.77Z"/><path d="M302.56,26.06a13.06,13.06,0,0,1-6-1.51l.32-1.66a12.1,12.1,0,0,0,5.87,1.66c2.52,0,4.17-1.12,4.17-3.1,0-1.76-1-2.66-4.68-3.67s-5.18-2.19-5.18-4.79,2.23-4.46,5.58-4.46a11.18,11.18,0,0,1,5,1.15l-.29,1.62a10.39,10.39,0,0,0-4.75-1.22c-2.67,0-3.85,1.26-3.85,2.81s1,2.37,4,3.2c3.85,1,5.83,2.38,5.83,5.22C308.57,24.37,306.09,26.06,302.56,26.06Z"/><path d="M318.83,1.55c-1.73,0-2.77.86-2.77,3V8.85h3.56l.25,1.44h-3.81V25.77H314.4V10.29h-2.63V8.85h2.63V4.43C314.4,1.51,316,0,318.76,0a8.41,8.41,0,0,1,1.11,0l.25,1.62A4.88,4.88,0,0,0,318.83,1.55Z"/><path d="M329.81,26.13c-4.46,0-7.45-3.31-7.45-8.82s3.09-8.81,7.2-8.81c4.32,0,6.48,3.77,6.48,8.45v.36h-12c0,4.32,2,7.35,5.79,7.35a9.2,9.2,0,0,0,5.87-2.59l.25,1.58A9.45,9.45,0,0,1,329.81,26.13Zm-5.65-10.22h10.11c-.1-3.31-1.76-6-4.71-6C326.35,9.9,324.52,12.38,324.16,15.91Z"/><path d="M342.59,14.65V25.77H340.9V8.85H342l.54,3.53c1.3-1.91,3.28-3.85,6.09-3.88l.29,1.58A8.18,8.18,0,0,0,342.59,14.65Z"/><path d="M386.22,25.77,384.53,3.42l-9.25,22.5h-1.44l-9.25-22.5-1.7,22.35h-1.65l2-24.83h2.13l9.21,22.71L383.84.94h2.09l2,24.83Z"/><path d="M400.33,26.13c-4.46,0-7.45-3.31-7.45-8.82s3.1-8.81,7.2-8.81c4.32,0,6.48,3.77,6.48,8.45v.36H394.61c0,4.32,2,7.35,5.8,7.35a9.15,9.15,0,0,0,5.86-2.59l.25,1.58A9.43,9.43,0,0,1,400.33,26.13Zm-5.65-10.22H404.8c-.11-3.31-1.77-6-4.72-6C396.88,9.9,395,12.38,394.68,15.91Z"/><path d="M417.76,26.13c-4.14,0-7.45-3.24-7.45-8.82s3.34-8.81,7.55-8.81a9,9,0,0,1,5.48,1.87L423,12.09A7.65,7.65,0,0,0,417.79,10c-3.6,0-5.72,3-5.72,7.34s2.05,7.35,5.87,7.35a7.89,7.89,0,0,0,5.29-2.16l.21,1.58A8.55,8.55,0,0,1,417.76,26.13Z"/><path d="M439.39,25.77V14c0-2.55-1.22-4-3.63-4-1.88,0-3.82,1.08-5.94,3.06V25.77h-1.7V.4l1.7-.36V11.38c2.05-1.77,3.88-2.88,6.12-2.88,3.49,0,5.14,1.94,5.14,5.29v12Z"/><path d="M457.21,25.77l-.39-2.27a9.4,9.4,0,0,1-6,2.63c-2.84,0-5.11-1.44-5.11-4.5,0-3.78,2.88-5.79,11-6.55V13.61c0-2.38-1.4-3.53-3.74-3.53a12.65,12.65,0,0,0-5.79,1.51L447,10a14.34,14.34,0,0,1,6.08-1.48c3.46,0,5.33,1.76,5.33,5V25.77Zm-.47-9.28c-7,.75-9.28,2.23-9.28,5,0,2.16,1.54,3.17,3.45,3.17a9.65,9.65,0,0,0,5.83-2.7Z"/><path d="M475.43,25.77V14c0-2.55-1.23-4-3.64-4-1.87,0-3.81,1.08-5.94,3.06V25.77h-1.69V8.85h1.22l.44,2.56c2.05-1.8,3.92-2.91,6.15-2.91,3.49,0,5.15,2,5.15,5.36V25.77Z"/><path d="M484,4.28a1.54,1.54,0,0,1-1.48-1.47A1.48,1.48,0,0,1,484,1.37a1.45,1.45,0,0,1,1.44,1.44A1.5,1.5,0,0,1,484,4.28Zm-.83,21.49V8.85h1.66V25.77Z"/><path d="M495.73,26.06a13.06,13.06,0,0,1-6-1.51l.32-1.66a12.1,12.1,0,0,0,5.87,1.66c2.52,0,4.18-1.12,4.18-3.1,0-1.76-1-2.66-4.68-3.67s-5.19-2.19-5.19-4.79,2.24-4.46,5.58-4.46a11.18,11.18,0,0,1,5,1.15l-.29,1.62a10.39,10.39,0,0,0-4.75-1.22c-2.66,0-3.85,1.26-3.85,2.81s1,2.37,4,3.2c3.85,1,5.83,2.38,5.83,5.22C501.74,24.37,499.26,26.06,495.73,26.06Z"/><path d="M528.74,25.77V14c0-2.55-1.12-4-3.56-4-1.8,0-3.71,1.05-5.83,3V25.77h-1.66V14c0-2.55-1.12-4-3.56-4-1.8,0-3.75,1.05-5.84,3V25.77H506.6V8.85h1.23l.43,2.45c2-1.72,3.85-2.8,6-2.8,2.66,0,4.17,1.08,4.75,3.05,2.12-1.87,4-3.05,6.33-3.05,3.49,0,5,1.94,5,5.29v12Z"/><path d="M9.61,67.77H4.07V42.94H9.61c4.83,0,7.38,2.37,7.38,6a6,6,0,0,1-4,5.65c3.1.83,5.08,2.73,5.08,6.12C18.11,65.25,14.58,67.77,9.61,67.77ZM9.54,44.48H5.8V54H9.58c3.74,0,5.65-2.3,5.65-5S13.25,44.48,9.54,44.48Zm.07,11H5.8V66.22h4c4,0,6.58-2,6.58-5.32C16.34,57.12,13.61,55.5,9.61,55.5Z"/><path d="M22.11,67.77l7.3-18.39h1.77l7.3,18.21L36.79,68,34.42,61.8H26.17l-2.34,6Zm4.64-7.45h7.09l-3.53-9.11Z"/><path d="M43.53,67.77V49.59h1.69V66.26h7.05l.22,1.51Z"/><path d="M55.55,67.77l7.31-18.39h1.76l7.31,18.21L70.24,68,67.86,61.8H59.62l-2.34,6Zm4.64-7.45h7.09l-3.52-9.11Z"/><path d="M89.1,67.77,78.55,52.11V67.77H77V49.59h1.8L89,64.75V49.59h1.59V67.77Z"/><path d="M104.72,68.1c-4.82,0-8.13-3.85-8.13-9.4s3.38-9.43,8.24-9.43A8.41,8.41,0,0,1,110,50.82l-.25,1.73a7.73,7.73,0,0,0-5-1.77c-3.88,0-6.51,3.31-6.51,7.89s2.63,7.91,6.51,7.91a8.65,8.65,0,0,0,5.3-1.9l.21,1.62A9.49,9.49,0,0,1,104.72,68.1Z"/><path d="M115.67,67.77V49.59h10.51v1.52h-8.82v6.4h7.2l.32,1.52h-7.52v7.23h9.11v1.51Z"/><path d="M137.12,67.77h-4.78V49.59h4.82c6.05,0,9.47,3.64,9.47,9.08S142.92,67.77,137.12,67.77Zm.11-16.66H134V66.26h3.2c4.68,0,7.7-2.55,7.7-7.59S141.8,51.11,137.23,51.11Z"/><path d="M172.37,68.24C165.49,68.24,161,63,161,55.39s4.64-12.92,11.16-12.92a12.05,12.05,0,0,1,7.19,2.16l-.32,1.87A10.64,10.64,0,0,0,172.15,44c-5.62,0-9.32,4.57-9.32,11.33s3.67,11.34,9.61,11.34a10.72,10.72,0,0,0,6.19-1.83V56.72h-6.19l-.25-1.55h8.17V65.65A13.67,13.67,0,0,1,172.37,68.24Z"/><path d="M198.25,68l-5.76-7.88h-3.2v7.7h-1.7V49.59h4.79c4.29,0,6.59,2.06,6.59,5.12,0,2.7-1.76,4.57-4.57,5.18l5.68,7.7Zm-6-16.84h-3v7.48h3c3.46,0,4.93-1.69,4.93-3.81C197.24,52.47,195.69,51.11,192.24,51.11Z"/><path d="M212.43,68.1c-4.82,0-8.13-3.85-8.13-9.4s3.38-9.43,8.17-9.43,8.21,3.82,8.21,9.4S217.26,68.1,212.43,68.1Zm0-17.32c-3.92,0-6.48,3.21-6.48,7.89s2.59,7.91,6.48,7.91S219,63.45,219,58.67,216.43,50.78,212.47,50.78Z"/><path d="M233.13,68.06c-4.24,0-6.69-2.88-6.69-7.05V49.59h1.62V60.75c0,3.42,1.73,5.8,5.07,5.8s5.15-2.2,5.15-5.65V49.59H240V60.86C240,65.25,237.38,68.06,233.13,68.06Z"/><path d="M259,67.77,248.47,52.11V67.77h-1.58V49.59h1.8l10.22,15.16V49.59h1.58V67.77Z"/><path d="M272.44,67.77h-4.78V49.59h4.82c6,0,9.47,3.64,9.47,9.08S278.24,67.77,272.44,67.77Zm.11-16.66h-3.2V66.26h3.2c4.68,0,7.71-2.55,7.71-7.59S277.12,51.11,272.55,51.11Z"/><path d="M305.17,67.88h-1.59l-5.25-15.59-5.26,15.59h-1.58l-5.4-18.14,1.66-.36,4.64,16.05,5.25-15.91h1.44l5.22,15.91,4.61-15.84h1.69Z"/><path d="M313.56,67.77l7.3-18.39h1.77l7.3,18.21-1.69.36-2.37-6.15h-8.25l-2.33,6Zm4.64-7.45h7.09l-3.53-9.11Z"/><path d="M339.8,51.11V67.77h-1.69V51.11h-6.19V49.59h14l.22,1.52Z"/><path d="M350.82,67.77V49.59h10.51v1.52h-8.82v6.4h7.2L360,59h-7.52v7.23h9.11v1.51Z"/><path d="M378.14,68l-5.76-7.88h-3.2v7.7h-1.7V49.59h4.79c4.29,0,6.59,2.06,6.59,5.12,0,2.7-1.77,4.57-4.57,5.18l5.68,7.7Zm-6-16.84h-2.95v7.48h3c3.46,0,4.93-1.69,4.93-3.81C377.13,52.47,375.58,51.11,372.13,51.11Z"/><path d="M400.17,68.06a13.58,13.58,0,0,1-6.33-1.48l.25-1.76a12.18,12.18,0,0,0,6.19,1.69c3.17,0,5.69-1.94,5.69-5,0-2.59-1.44-4.06-5.22-5.68-4.83-2.06-6.52-3.71-6.52-7.09,0-3.53,3-6.05,6.77-6.05a10.72,10.72,0,0,1,5.36,1.22l-.25,1.73a10,10,0,0,0-5.18-1.4c-3,0-4.93,2-4.93,4.42s1.4,3.75,5.29,5.4c4.42,1.87,6.48,3.78,6.48,7.35C407.77,65.58,404.27,68.06,400.17,68.06Z"/><path d="M420.87,68.1c-4.82,0-8.13-3.85-8.13-9.4s3.38-9.43,8.24-9.43a8.41,8.41,0,0,1,5.18,1.55l-.25,1.73a7.73,7.73,0,0,0-5-1.77c-3.88,0-6.51,3.31-6.51,7.89s2.63,7.91,6.51,7.91a8.65,8.65,0,0,0,5.29-1.9l.22,1.62A9.52,9.52,0,0,1,420.87,68.1Z"/><path d="M431.82,67.77V49.59h10.51v1.52h-8.82v6.4h7.2L441,59h-7.52v7.23h9.1v1.51Z"/><path d="M460.61,67.77,450.07,52.11V67.77h-1.59V49.59h1.8l10.23,15.16V49.59h1.58V67.77Z"/><path d="M467.09,67.77l7.31-18.39h1.77l7.3,18.21-1.69.36-2.37-6.15h-8.25l-2.34,6Zm4.65-7.45h7.09l-3.53-9.11Z"/><path d="M499.17,68l-5.76-7.88h-3.2v7.7h-1.7V49.59h4.79c4.28,0,6.59,2.06,6.59,5.12,0,2.7-1.77,4.57-4.57,5.18l5.68,7.7Zm-6-16.84h-3v7.48h3c3.46,0,4.93-1.69,4.93-3.81C498.16,52.47,496.61,51.11,493.16,51.11Z"/><path d="M506.55,67.77V49.59h1.69V67.77Z"/><path d="M522.53,68.1c-4.82,0-8.13-3.85-8.13-9.4s3.38-9.43,8.17-9.43,8.21,3.82,8.21,9.4S527.36,68.1,522.53,68.1Zm0-17.32c-3.93,0-6.48,3.21-6.48,7.89s2.59,7.91,6.48,7.91,6.51-3.13,6.51-7.91S526.53,50.78,522.57,50.78Z"/><path d="M3.31,109.77V84.94H5.8v24.83Z"/><path d="M23.22,109.77V98c0-2.2-1-3.53-3.17-3.53-1.8,0-3.63,1.12-5.51,2.95v12.31H12.17v-17H14l.4,2.52c1.87-1.66,3.82-2.88,6.12-2.88,3.38,0,5.07,1.94,5.07,5.22v12.16Z"/><path d="M36.25,110.06c-2.66,0-4.43-1-4.43-4.18V94.76H29.2v-2h2.62V86.84l2.34-.39v6.3h3.93l.32,2H34.16v10.73c0,1.73.69,2.48,2.52,2.48a9,9,0,0,0,1.59-.18l.36,2A9,9,0,0,1,36.25,110.06Z"/><path d="M49.36,110.13c-4.47,0-7.67-3-7.67-8.89,0-5.47,3.17-8.85,7.34-8.85,4.64,0,6.88,3.81,6.88,8.53v.5H44.06c.08,4.21,2,6.66,5.44,6.66a9.2,9.2,0,0,0,6-2.52l.36,2.16A9.9,9.9,0,0,1,49.36,110.13ZM44.17,99.55h9.29c-.22-3.06-1.69-5.26-4.43-5.26S44.6,96.27,44.17,99.55Z"/><path d="M66.24,116.25c-4.39,0-7.78-1.47-7.78-4.43,0-1.72,1.34-3.2,3.89-4.49a2.22,2.22,0,0,1-1.26-1.8c0-.87.58-1.59,1.69-2.27a5.53,5.53,0,0,1-3.13-5.08c0-3.6,3-5.79,6.3-5.79a6.7,6.7,0,0,1,4.32,1.44l4.25-1.37.39,2.34-3.41.36a5.37,5.37,0,0,1,.89,3c0,3.6-3,5.8-6.37,5.8a7.1,7.1,0,0,1-1.51-.15c-.72.4-1.08.83-1.08,1.23,0,.68.69.93,3.82,1.51l1.26.25c3.78.68,5.83,1.8,5.83,4.32C74.34,114.42,70.63,116.25,66.24,116.25Zm-2-8.17c-2.34,1.08-3.42,2.23-3.42,3.6,0,1.76,2.24,2.77,5.58,2.77s5.69-1.33,5.69-3c0-1.33-1.08-2.05-4.1-2.63l-1.66-.29C65.45,108.33,64.87,108.26,64.22,108.08ZM66,94.15a4,4,0,1,0,4.1,4A3.93,3.93,0,0,0,66,94.15Z"/><path d="M80.86,99.08v10.69H78.48v-17h1.76l.54,3.49a7.63,7.63,0,0,1,6-3.85l.4,2.23A8.06,8.06,0,0,0,80.86,99.08Z"/><path d="M100.62,109.77l-.4-2.27a8.73,8.73,0,0,1-6,2.63c-2.95,0-5.07-1.62-5.07-4.64,0-4,3.24-5.87,10.94-6.62V97.75c0-2.3-1.37-3.28-3.53-3.28A13.73,13.73,0,0,0,90.68,96l-.32-2.13a15.23,15.23,0,0,1,6.34-1.47c3.77,0,5.72,1.76,5.72,5.25v12.13Zm-.54-9c-6.7.68-8.57,2.3-8.57,4.61,0,1.83,1.26,2.77,3.06,2.77a8.55,8.55,0,0,0,5.51-2.56Z"/><path d="M113.08,110.06c-2.67,0-4.43-1-4.43-4.18V94.76H106v-2h2.63V86.84l2.34-.39v6.3h3.92l.32,2H111v10.73c0,1.73.68,2.48,2.52,2.48a8.72,8.72,0,0,0,1.58-.18l.36,2A8.9,8.9,0,0,1,113.08,110.06Z"/><path d="M121.14,88.68a1.73,1.73,0,0,1,0-3.46,1.73,1.73,0,0,1,0,3.46ZM120,109.77v-17h2.34v17Z"/><path d="M134.67,110.13c-4.35,0-7.63-3.24-7.63-8.85s3.35-8.89,7.63-8.89c4.43,0,7.74,3.24,7.74,8.89S139,110.13,134.67,110.13Zm0-15.73c-3.38,0-5.21,2.85-5.21,6.88s1.87,6.84,5.21,6.84,5.3-2.81,5.3-6.84S138.09,94.4,134.67,94.4Z"/><path d="M158,109.77V98c0-2.2-1-3.53-3.17-3.53-1.8,0-3.64,1.12-5.51,2.95v12.31h-2.37v-17h1.83l.4,2.52c1.87-1.66,3.81-2.88,6.12-2.88,3.38,0,5.07,1.94,5.07,5.22v12.16Z"/><path d="M175.32,88.68a1.73,1.73,0,1,1,0-3.46,1.73,1.73,0,0,1,0,3.46Zm-1.19,21.09v-17h2.34v17Z"/><path d="M193.32,109.77V98c0-2.2-1-3.53-3.17-3.53-1.8,0-3.64,1.12-5.51,2.95v12.31h-2.37v-17h1.83l.4,2.52c1.87-1.66,3.81-2.88,6.12-2.88,3.38,0,5.07,1.94,5.07,5.22v12.16Z"/><path d="M215.24,110.06a14.3,14.3,0,0,1-6.59-1.55L209,106a12.16,12.16,0,0,0,6.34,1.88c2.91,0,5.11-1.66,5.11-4.47,0-2.45-1.22-3.67-5-5.33C210.71,96,209,94.4,209,90.91c0-3.74,3-6.26,7.13-6.26a11,11,0,0,1,5.47,1.29l-.36,2.49A9.25,9.25,0,0,0,216,86.84c-2.92,0-4.54,1.77-4.54,3.93s1.19,3.31,5,5c4.61,2,6.48,3.82,6.48,7.45C222.94,107.47,219.6,110.06,215.24,110.06Z"/><path d="M234.46,110a11.53,11.53,0,0,1-4.42-.83V116l-2.38.4V92.75h1.84l.39,2.44a7.18,7.18,0,0,1,5.51-2.8c3.71,0,6.84,2.7,6.84,8.38C242.24,107,238.6,110,234.46,110Zm.69-15.48c-2,0-3.57,1.19-5.11,3.06V107a9.22,9.22,0,0,0,4.35,1c3.06,0,5.44-2.34,5.44-7.09C239.83,96.74,237.85,94.51,235.15,94.51Z"/><path d="M257.83,109.77V98c0-2.2-1-3.53-3.17-3.53-1.8,0-3.64,1.12-5.51,2.95v12.31h-2.37V84.36l2.37-.43V95.16c1.77-1.55,3.67-2.77,6-2.77,3.38,0,5.07,1.94,5.07,5.18v12.2Z"/><path d="M272.23,110.13c-4.47,0-7.67-3-7.67-8.89,0-5.47,3.17-8.85,7.34-8.85,4.65,0,6.88,3.81,6.88,8.53v.5H266.94c.07,4.21,2,6.66,5.43,6.66a9.2,9.2,0,0,0,6-2.52l.36,2.16A9.88,9.88,0,0,1,272.23,110.13ZM267,99.55h9.29c-.21-3.06-1.69-5.26-4.43-5.26S267.48,96.27,267,99.55Z"/><path d="M285.66,99.08v10.69h-2.38v-17H285l.54,3.49a7.63,7.63,0,0,1,6.05-3.85l.4,2.23A8.06,8.06,0,0,0,285.66,99.08Z"/><path d="M297.1,88.68A1.73,1.73,0,1,1,298.8,87,1.72,1.72,0,0,1,297.1,88.68Zm-1.18,21.09v-17h2.34v17Z"/><path d="M310.75,110.13c-4.32,0-7.67-3.24-7.67-8.85s3.46-8.89,7.78-8.89a9.36,9.36,0,0,1,5.54,1.72l-.4,2.38a7.77,7.77,0,0,0-5.22-2c-3.24,0-5.29,2.63-5.29,6.8s2.09,6.8,5.55,6.8a7.49,7.49,0,0,0,5.18-2l.32,2.16A9,9,0,0,1,310.75,110.13Z"/><path d="M331.3,109.77l-.39-2.27a8.77,8.77,0,0,1-6,2.63c-3,0-5.08-1.62-5.08-4.64,0-4,3.24-5.87,10.94-6.62V97.75c0-2.3-1.37-3.28-3.52-3.28A13.65,13.65,0,0,0,321.37,96L321,93.86a15.27,15.27,0,0,1,6.34-1.47c3.78,0,5.72,1.76,5.72,5.25v12.13Zm-.54-9c-6.69.68-8.56,2.3-8.56,4.61,0,1.83,1.26,2.77,3.05,2.77a8.53,8.53,0,0,0,5.51-2.56Z"/><path d="M338.76,109.77V84.36l2.34-.43v25.84Z"/><path d="M365.75,110.24c-6.73,0-11.26-5.18-11.26-12.85s4.6-12.92,11.44-12.92a12.07,12.07,0,0,1,7,2.12l-.4,2.52a11.21,11.21,0,0,0-6.62-2.41C360.43,86.7,357,91,357,97.32S360.46,108,365.86,108a11.6,11.6,0,0,0,7.09-2.59l.36,2.38A12.91,12.91,0,0,1,365.75,110.24Z"/><path d="M384.33,110.13c-4.35,0-7.63-3.24-7.63-8.85s3.35-8.89,7.63-8.89c4.43,0,7.74,3.24,7.74,8.89S388.69,110.13,384.33,110.13Zm0-15.73c-3.38,0-5.22,2.85-5.22,6.88s1.87,6.84,5.22,6.84,5.29-2.81,5.29-6.84S387.75,94.4,384.33,94.4Z"/><path d="M403.16,110.13c-4.36,0-7.63-3.24-7.63-8.85s3.35-8.89,7.63-8.89,7.74,3.24,7.74,8.89S407.51,110.13,403.16,110.13Zm0-15.73c-3.39,0-5.22,2.85-5.22,6.88s1.87,6.84,5.22,6.84,5.29-2.81,5.29-6.84S406.58,94.4,403.16,94.4Z"/><path d="M417.78,99.08v10.69H415.4v-17h1.76l.54,3.49a7.63,7.63,0,0,1,6.05-3.85l.4,2.23A8.06,8.06,0,0,0,417.78,99.08Z"/><path d="M438.91,109.77l-.44-2.48a6.92,6.92,0,0,1-5.47,2.84c-3.74,0-6.87-2.66-6.87-8.38,0-6.23,3.63-9.25,7.77-9.25a10.79,10.79,0,0,1,4.43.86v-9l2.38-.43v25.84Zm-.58-14.22a8.89,8.89,0,0,0-4.36-1c-3.05,0-5.43,2.3-5.43,7.09,0,4.14,2,6.37,4.68,6.37,2,0,3.6-1.22,5.11-3.06Z"/><path d="M447.69,88.68a1.73,1.73,0,0,1,0-3.46,1.73,1.73,0,0,1,0,3.46Zm-1.19,21.09v-17h2.34v17Z"/><path d="M465.69,109.77V98c0-2.2-1-3.53-3.17-3.53-1.8,0-3.63,1.12-5.51,2.95v12.31h-2.37v-17h1.83l.4,2.52c1.87-1.66,3.82-2.88,6.12-2.88,3.38,0,5.07,1.94,5.07,5.22v12.16Z"/><path d="M483.87,109.77l-.4-2.27a8.73,8.73,0,0,1-6,2.63c-2.95,0-5.07-1.62-5.07-4.64,0-4,3.24-5.87,10.94-6.62V97.75c0-2.3-1.37-3.28-3.53-3.28A13.73,13.73,0,0,0,473.93,96l-.32-2.13A15.23,15.23,0,0,1,480,92.39c3.77,0,5.72,1.76,5.72,5.25v12.13Zm-.54-9c-6.7.68-8.57,2.3-8.57,4.61,0,1.83,1.26,2.77,3.06,2.77a8.55,8.55,0,0,0,5.51-2.56Z"/><path d="M496.33,110.06c-2.67,0-4.43-1-4.43-4.18V94.76h-2.63v-2h2.63V86.84l2.34-.39v6.3h3.92l.33,2h-4.25v10.73c0,1.73.68,2.48,2.52,2.48a8.72,8.72,0,0,0,1.58-.18l.36,2A8.9,8.9,0,0,1,496.33,110.06Z"/><path d="M509.43,110.13c-4.46,0-7.67-3-7.67-8.89,0-5.47,3.17-8.85,7.35-8.85,4.64,0,6.87,3.81,6.87,8.53v.5H504.14c.07,4.21,2,6.66,5.43,6.66a9.2,9.2,0,0,0,6-2.52l.36,2.16A9.88,9.88,0,0,1,509.43,110.13Zm-5.18-10.58h9.28c-.21-3.06-1.69-5.26-4.42-5.26S504.68,96.27,504.25,99.55Z"/><path d="M525.45,110.1a13.43,13.43,0,0,1-6.12-1.55l.4-2.3a11.31,11.31,0,0,0,5.94,1.83c2.37,0,3.85-1,3.85-2.73s-1-2.45-4.4-3.35c-3.77-1-5.39-2.2-5.39-5,0-2.66,2.26-4.6,5.79-4.6a12.6,12.6,0,0,1,5.29,1.15l-.39,2.27a10.7,10.7,0,0,0-5-1.34c-2.34,0-3.46,1-3.46,2.42s.94,2.12,3.82,2.88c4,1.08,6,2.37,6,5.4S529.37,110.1,525.45,110.1Z"/><path d="M2.16,151.77V126.94h13v2.23H4.65v8.49h8.27l.36,2.23H4.65v9.65H15.48v2.23Z"/><path d="M20.77,151.77V133.56h2.42v16.09h7l.32,2.12Z"/><path d="M35.5,151.77V133.56H46.4v2.12H37.91v5.55h6.87l.36,2.12H37.91v6.3h8.75v2.12Z"/><path d="M59.29,152.1c-5.07,0-8.42-3.82-8.42-9.4s3.45-9.46,8.49-9.46a8.72,8.72,0,0,1,5.22,1.47l-.36,2.3a7.65,7.65,0,0,0-4.82-1.72c-3.74,0-6.08,3-6.08,7.38s2.37,7.41,6.08,7.41a8.62,8.62,0,0,0,5.15-1.83l.32,2.16A10,10,0,0,1,59.29,152.1Z"/><path d="M76.14,135.68v16.09H73.76V135.68h-6v-2.12H82.08l.32,2.12Z"/><path d="M97.31,152l-5.48-7.59H89.21v7.41H86.8V133.56H92c4.25,0,6.73,2.05,6.73,5.33a5.15,5.15,0,0,1-4.25,5.18l5.44,7.38Zm-5.44-16.3H89.21v6.76h2.7c3,0,4.39-1.4,4.39-3.45S94.86,135.65,91.87,135.65Z"/><path d="M112,152.1c-4.79,0-8.42-3.71-8.42-9.4s3.71-9.46,8.46-9.46,8.42,3.67,8.42,9.43S116.78,152.1,112,152.1Zm0-16.81c-3.71,0-6,3.06-6,7.38s2.38,7.37,6,7.37,6-3,6-7.37S115.74,135.29,112.07,135.29Z"/><path d="M144.29,151.77l-1.16-15.3-5.94,15.41h-2.26L129,136.47l-1.15,15.3H125.6L127,133.56h3.28l5.87,15.37,5.86-15.37h3.21l1.44,18.21Z"/><path d="M150.88,151.77l7.27-18.43h2.59L168,151.48l-2.37.54-2.16-5.57h-8.1l-2,5.32Zm5.29-7.45h6.48l-3.24-8.57Z"/><path d="M180.07,152.1c-5.51,0-8.75-3.82-8.75-9.4s3.46-9.46,8.71-9.46a9.82,9.82,0,0,1,5.44,1.47l-.36,2.3a8.38,8.38,0,0,0-5.15-1.76c-3.78,0-6.19,3-6.19,7.42s2.27,7.41,6.41,7.41a7,7,0,0,0,3.81-1v-5h-4.17l-.4-2.09h6.88v8.2A11.35,11.35,0,0,1,180.07,152.1Z"/><path d="M204.33,151.77l-9.93-14.68v14.68h-2.2V133.56h2.45l9.58,14.15V133.56h2.19v18.21Z"/><path d="M213.08,151.77V133.56H224v2.12h-8.5v5.55h6.88l.36,2.12h-7.24v6.3h8.75v2.12Z"/><path d="M236.08,135.68v16.09h-2.37V135.68h-6.05v-2.12H242l.33,2.12Z"/><path d="M246.89,151.77V133.56h2.41v18.21Z"/><path d="M263.44,152.1c-5.07,0-8.42-3.82-8.42-9.4s3.46-9.46,8.5-9.46a8.72,8.72,0,0,1,5.22,1.47l-.36,2.3a7.68,7.68,0,0,0-4.83-1.72c-3.74,0-6.08,3-6.08,7.38s2.37,7.41,6.08,7.41a8.6,8.6,0,0,0,5.15-1.83l.32,2.16A10,10,0,0,1,263.44,152.1Z"/><path d="M293.79,152.24c-6.73,0-11.26-5.18-11.26-12.85s4.6-12.92,11.44-12.92a12.07,12.07,0,0,1,7,2.12l-.4,2.52a11.21,11.21,0,0,0-6.62-2.41c-5.48,0-8.86,4.32-8.86,10.62S288.5,150,293.9,150a11.65,11.65,0,0,0,7.09-2.59l.36,2.38A12.93,12.93,0,0,1,293.79,152.24Z"/><path d="M314.28,152.1c-4.79,0-8.43-3.71-8.43-9.4s3.71-9.46,8.46-9.46,8.43,3.67,8.43,9.43S319,152.1,314.28,152.1Zm0-16.81c-3.71,0-6.05,3.06-6.05,7.38s2.38,7.37,6.05,7.37,6-3,6-7.37S318,135.29,314.31,135.29Z"/><path d="M346.53,151.77l-1.15-15.3-5.94,15.41h-2.27l-5.94-15.41-1.15,15.3h-2.23l1.44-18.21h3.27l5.87,15.37,5.87-15.37h3.2l1.44,18.21Z"/><path d="M373.35,151.77l-1.15-15.3-5.94,15.41H364l-5.94-15.41-1.15,15.3h-2.23l1.44-18.21h3.27l5.87,15.37,5.87-15.37h3.2l1.44,18.21Z"/><path d="M388.79,152.1c-4.39,0-7-2.81-7-7.24v-11.3h2.34v11.09c0,3.2,1.58,5.36,4.67,5.36s4.76-2,4.76-5.26V133.56H396v11.16C396,149.36,393.22,152.1,388.79,152.1Z"/><path d="M414.57,151.77l-9.94-14.68v14.68h-2.19V133.56h2.45l9.57,14.15V133.56h2.2v18.21Z"/><path d="M423.46,151.77V133.56h2.42v18.21Z"/><path d="M440,152.1c-5.07,0-8.42-3.82-8.42-9.4s3.45-9.46,8.49-9.46a8.72,8.72,0,0,1,5.22,1.47L445,137a7.67,7.67,0,0,0-4.82-1.72c-3.74,0-6.08,3-6.08,7.38s2.37,7.41,6.08,7.41a8.62,8.62,0,0,0,5.15-1.83l.32,2.16A10,10,0,0,1,440,152.1Z"/><path d="M448.73,151.77,456,133.34h2.6l7.23,18.14-2.37.54-2.16-5.57h-8.1l-2,5.32Zm5.3-7.45h6.47l-3.23-8.57Z"/><path d="M475.88,135.68v16.09H473.5V135.68h-6.05v-2.12h14.37l.32,2.12Z"/><path d="M486.68,151.77V133.56h2.41v18.21Z"/><path d="M503.24,152.1c-4.79,0-8.43-3.71-8.43-9.4s3.71-9.46,8.46-9.46,8.43,3.67,8.43,9.43S508,152.1,503.24,152.1Zm0-16.81c-3.71,0-6,3.06-6,7.38s2.38,7.37,6,7.37,6-3,6-7.37S506.94,135.29,503.27,135.29Z"/><path d="M529.41,151.77l-9.94-14.68v14.68h-2.19V133.56h2.44l9.58,14.15V133.56h2.2v18.21Z"/><path d="M2,193.77V168.94H5.4v24.83Z"/><path d="M21.92,193.77v-11.7c0-1.76-.75-2.95-2.62-2.95-1.69,0-3.42,1.12-5,2.77v11.88h-3.2V176.6h2.55l.4,2.49a9.2,9.2,0,0,1,6.08-2.85c3.24,0,5,1.95,5,5v12.49Z"/><path d="M35.93,194.06c-3,0-5-1.08-5-4.53V179.3h-2.6v-2.7h2.6v-5.72l3.13-.47v6.19h3.7l.44,2.7H34.06V189c0,1.4.57,2.27,2.37,2.27a8.78,8.78,0,0,0,1.48-.11l.43,2.73A11.77,11.77,0,0,1,35.93,194.06Z"/><path d="M49.07,194.13c-4.46,0-8-2.7-8-9,0-5.5,3.24-8.89,7.56-8.89,5,0,7.31,3.85,7.31,8.61v.68H44.32c.1,4,2,5.87,5,5.87A9.52,9.52,0,0,0,55.48,189l.46,2.88A10.67,10.67,0,0,1,49.07,194.13Zm-4.61-11h8.28c-.4-2.77-1.62-4.36-4.1-4.36C46.66,178.76,45,180.2,44.46,183.12Z"/><path d="M63.25,183.62v10.15h-3.2V176.6H62.6l.54,3.49a7.65,7.65,0,0,1,6-3.85l.5,3.06A7.87,7.87,0,0,0,63.25,183.62Z"/><path d="M83.74,193.77v-11.7c0-1.76-.76-2.95-2.63-2.95-1.69,0-3.42,1.12-5,2.77v11.88h-3.2V176.6h2.55l.4,2.49A9.2,9.2,0,0,1,82,176.24c3.24,0,5,1.95,5,5v12.49Z"/><path d="M102.31,193.77l-.36-2.3a8.12,8.12,0,0,1-6,2.66c-3.09,0-5-1.87-5-4.78,0-4.29,3.68-6,10.84-6.74v-.72c0-2.16-1.3-2.91-3.28-2.91a15,15,0,0,0-5.94,1.47l-.43-2.77a16.6,16.6,0,0,1,6.66-1.44c4.18,0,6.19,1.69,6.19,5.51v12Zm-.61-8.71c-6.34.61-7.67,2.34-7.67,4.11a2.25,2.25,0,0,0,2.56,2.3,7.31,7.31,0,0,0,5.11-2.41Z"/><path d="M115.7,194.06c-3,0-5-1.08-5-4.53V179.3h-2.59v-2.7h2.59v-5.72l3.13-.47v6.19h3.71l.43,2.7h-4.14V189c0,1.4.58,2.27,2.38,2.27a8.65,8.65,0,0,0,1.47-.11l.44,2.73A11.8,11.8,0,0,1,115.7,194.06Z"/><path d="M123.88,173.15a2,2,0,0,1-2.06-2,2.08,2.08,0,0,1,2.06-2,2,2,0,0,1,2,2A2,2,0,0,1,123.88,173.15Zm-1.62,20.62V176.6h3.2v17.17Z"/><path d="M137.66,194.13c-4.57,0-7.88-3.27-7.88-8.92s3.31-9,7.88-9,8,3.31,8,9S142.27,194.13,137.66,194.13Zm0-15.19c-3.09,0-4.64,2.67-4.64,6.27s1.62,6.26,4.64,6.26c3.17,0,4.75-2.66,4.75-6.26S140.76,178.94,137.66,178.94Z"/><path d="M160.52,193.77v-11.7c0-1.76-.75-2.95-2.63-2.95-1.69,0-3.42,1.12-5,2.77v11.88h-3.21V176.6h2.56l.39,2.49a9.22,9.22,0,0,1,6.09-2.85c3.24,0,5,1.95,5,5v12.49Z"/><path d="M179.1,193.77l-.36-2.3a8.12,8.12,0,0,1-6.05,2.66c-3.1,0-5-1.87-5-4.78,0-4.29,3.67-6,10.84-6.74v-.72c0-2.16-1.3-2.91-3.28-2.91a14.86,14.86,0,0,0-5.94,1.47l-.43-2.77a16.56,16.56,0,0,1,6.66-1.44c4.17,0,6.19,1.69,6.19,5.51v12Zm-.61-8.71c-6.34.61-7.67,2.34-7.67,4.11a2.25,2.25,0,0,0,2.56,2.3,7.31,7.31,0,0,0,5.11-2.41Z"/><path d="M186.91,193.77V168.29l3.2-.51v26Z"/><path d="M203.79,193.77V168.94h13.39V172h-10v7.2H215l.51,3.1h-8.28v8.35h10.36v3.09Z"/><path d="M231.8,193.77l-.36-2.3a8.12,8.12,0,0,1-6.05,2.66c-3.09,0-5-1.87-5-4.78,0-4.29,3.68-6,10.84-6.74v-.72c0-2.16-1.3-2.91-3.28-2.91a15,15,0,0,0-5.94,1.47l-.43-2.77a16.6,16.6,0,0,1,6.66-1.44c4.18,0,6.19,1.69,6.19,5.51v12Zm-.61-8.71c-6.34.61-7.67,2.34-7.67,4.11a2.25,2.25,0,0,0,2.56,2.3,7.31,7.31,0,0,0,5.11-2.41Z"/><path d="M242.57,183.62v10.15h-3.21V176.6h2.56l.54,3.49a7.61,7.61,0,0,1,6-3.85l.5,3.06A7.86,7.86,0,0,0,242.57,183.62Z"/><path d="M258.4,194.06c-3,0-5-1.08-5-4.53V179.3h-2.59v-2.7h2.59v-5.72l3.13-.47v6.19h3.71l.43,2.7h-4.14V189c0,1.4.58,2.27,2.38,2.27a8.65,8.65,0,0,0,1.47-.11l.44,2.73A11.8,11.8,0,0,1,258.4,194.06Z"/><path d="M275.5,193.77v-11.7c0-1.76-.75-2.95-2.62-2.95-1.7,0-3.42,1.12-5,2.77v11.88H264.7V168.29l3.21-.51v11.09a8.9,8.9,0,0,1,5.83-2.63c3.24,0,5,1.95,5,5v12.49Z"/><path d="M305.6,194,298,183.3h-2.55v10.47h-3.39V168.94h6.77c5.08,0,8.24,2.52,8.24,7.05,0,3.78-2.19,6-5.43,6.88l7.38,10.4Zm-6.91-22.1h-3.24v8.53h2.88c3.27,0,5.36-1.47,5.36-4.28S302,171.92,298.69,171.92Z"/><path d="M318.38,194.13c-4.57,0-7.88-3.27-7.88-8.92s3.31-9,7.88-9,8,3.31,8,9S323,194.13,318.38,194.13Zm0-15.19c-3.1,0-4.64,2.67-4.64,6.27s1.62,6.26,4.64,6.26c3.17,0,4.75-2.66,4.75-6.26S321.47,178.94,318.38,178.94Z"/><path d="M336.27,194.06c-3,0-5-1.08-5-4.53V179.3h-2.59v-2.7h2.59v-5.72l3.13-.47v6.19h3.71l.43,2.7H334.4V189c0,1.4.58,2.27,2.38,2.27a8.74,8.74,0,0,0,1.47-.11l.43,2.73A11.69,11.69,0,0,1,336.27,194.06Z"/><path d="M353,193.77l-.36-2.3a8.1,8.1,0,0,1-6,2.66c-3.1,0-5-1.87-5-4.78,0-4.29,3.67-6,10.83-6.74v-.72c0-2.16-1.29-2.91-3.27-2.91a14.86,14.86,0,0,0-5.94,1.47l-.44-2.77a16.64,16.64,0,0,1,6.66-1.44c4.18,0,6.2,1.69,6.2,5.51v12Zm-.61-8.71c-6.33.61-7.66,2.34-7.66,4.11a2.24,2.24,0,0,0,2.55,2.3,7.31,7.31,0,0,0,5.11-2.41Z"/><path d="M366.37,194.06c-3,0-5-1.08-5-4.53V179.3h-2.59v-2.7h2.59v-5.72l3.13-.47v6.19h3.71l.43,2.7h-4.14V189c0,1.4.58,2.27,2.38,2.27a8.78,8.78,0,0,0,1.48-.11l.43,2.73A11.77,11.77,0,0,1,366.37,194.06Z"/><path d="M374.54,173.15a2,2,0,0,1-2.05-2,2.07,2.07,0,0,1,2.05-2,2,2,0,0,1,2,2A2,2,0,0,1,374.54,173.15Zm-1.62,20.62V176.6h3.2v17.17Z"/><path d="M388.33,194.13c-4.58,0-7.89-3.27-7.89-8.92s3.31-9,7.89-9,8,3.31,8,9S392.93,194.13,388.33,194.13Zm0-15.19c-3.1,0-4.65,2.67-4.65,6.27s1.62,6.26,4.65,6.26,4.75-2.66,4.75-6.26S391.42,178.94,388.33,178.94Z"/><path d="M411.19,193.77v-11.7c0-1.76-.76-2.95-2.63-2.95-1.69,0-3.42,1.12-5,2.77v11.88h-3.2V176.6h2.55l.4,2.49a9.2,9.2,0,0,1,6.08-2.85c3.24,0,5,1.95,5,5v12.49Z"/><path d="M433.61,194.06a15,15,0,0,1-6.94-1.62l.5-3.45a12.24,12.24,0,0,0,6.51,2.12c2.6,0,4.43-1.37,4.43-3.78s-1-3.2-4.75-4.9c-4.68-2.12-6.44-3.67-6.44-7.23,0-4,3.06-6.55,7.56-6.55a11,11,0,0,1,5.65,1.4l-.54,3.39a8.77,8.77,0,0,0-5.22-1.84c-2.84,0-4.1,1.51-4.1,3.35s.93,2.8,4.71,4.53c4.82,2.2,6.48,3.85,6.48,7.6C441.46,191.36,438.26,194.06,433.61,194.06Z"/><path d="M452.69,194.13c-4.46,0-7.95-2.7-7.95-9,0-5.5,3.24-8.89,7.56-8.89,5,0,7.3,3.85,7.3,8.61v.68H447.94c.11,4,2,5.87,5,5.87A9.48,9.48,0,0,0,459.1,189l.47,2.88A10.69,10.69,0,0,1,452.69,194.13Zm-4.61-11h8.28c-.39-2.77-1.62-4.36-4.1-4.36C450.28,178.76,448.59,180.2,448.08,183.12Z"/><path d="M466.88,183.62v10.15h-3.21V176.6h2.56l.54,3.49a7.61,7.61,0,0,1,6-3.85l.5,3.06A7.86,7.86,0,0,0,466.88,183.62Z"/><path d="M484.08,193.84H481l-6.08-17,3.2-.5,4.47,13.57,4.32-13.32h3.27Z"/><path d="M495.39,173.15a2,2,0,0,1-2.05-2,2.07,2.07,0,0,1,2.05-2,2,2,0,0,1,2,2A2,2,0,0,1,495.39,173.15Zm-1.62,20.62V176.6H497v17.17Z"/><path d="M509.43,194.13c-4.61,0-8-3.2-8-8.92,0-5.87,3.6-9,8.06-9a9.25,9.25,0,0,1,5.61,1.59l-.46,3.13a7.78,7.78,0,0,0-5.19-1.91c-2.8,0-4.78,2.12-4.78,6.12,0,4.18,2.12,6.16,5.14,6.16a7.08,7.08,0,0,0,5-1.91l.46,2.88A9,9,0,0,1,509.43,194.13Z"/><path d="M526,194.13c-4.46,0-8-2.7-8-9,0-5.5,3.24-8.89,7.56-8.89,5,0,7.3,3.85,7.3,8.61v.68H521.2c.11,4,2,5.87,5,5.87a9.48,9.48,0,0,0,6.16-2.45l.47,2.88A10.69,10.69,0,0,1,526,194.13Zm-4.61-11h8.28c-.39-2.77-1.62-4.36-4.1-4.36C523.54,178.76,521.85,180.2,521.34,183.12Z"/><path d="M9.68,235.77H3.75V210.94h6c5.47,0,8,2.62,8,6.44a5.29,5.29,0,0,1-3.56,5.15c2.77.82,4.64,2.7,4.64,6C18.86,233.47,15.41,235.77,9.68,235.77Zm0-22H7.06v7.56H9.43c3.28,0,5-1.45,5-3.89C14.47,215.22,13.07,213.82,9.68,213.82Zm.15,10.33H7.06v8.74H9.94c3.56,0,5.61-1.44,5.61-4.32S13.54,224.15,9.83,224.15Z"/><path d="M34.2,236l-5.15-7.23H27.11v7.05H23.87V217.52h5.65c4.18,0,6.88,2,6.88,5.62a5.15,5.15,0,0,1-3.82,5.18l5.15,6.91Zm-4.72-15.62H27.11v5.87h2.37c2.34,0,3.68-1.08,3.68-3S31.86,220.33,29.48,220.33Z"/><path d="M40.1,235.77l7.2-18.46h3.6L58,235.38l-3.2.72L53,231.2H45.07l-1.69,4.57Zm6-7.41H52l-2.92-8Z"/><path d="M74.37,235.77l-9.14-13.46v13.46h-3V217.52h3.24l8.75,12.93V217.52h3v18.25Z"/><path d="M88.81,235.77H83.3V217.52h5.51c6.55,0,10,3.86,10,9.11S95.29,235.77,88.81,235.77ZM89,220.4H86.54v12.49H89c4.1,0,6.58-2.27,6.58-6.22S93,220.4,89,220.4Z"/><path d="M103.93,235.77V217.52h11.34v2.88h-8.1v4.47h6.48l.47,2.84h-7v5.18h8.35v2.88Z"/><path d="M132.73,235.77l-9.14-13.46v13.46h-3V217.52h3.24l8.74,12.93V217.52h2.95v18.25Z"/><path d="M147.6,235.77h-5.94V217.52h5.9c4.11,0,6.09,1.91,6.09,4.65a4,4,0,0,1-2.63,4c2,.61,3.45,1.9,3.45,4.28C154.47,234.08,151.74,235.77,147.6,235.77Zm-.18-15.55h-2.67v4.72h2.56c2.2,0,3.31-.87,3.31-2.49C150.62,221,149.65,220.22,147.42,220.22Zm.25,7.31h-2.92v5.58h2.88c2.34,0,3.78-.76,3.78-2.7S150.15,227.53,147.67,227.53Z"/><path d="M166.93,236.13c-4.57,0-7.42-2.7-7.42-7.45V217.52h3.24v11c0,3,1.37,4.82,4.22,4.82s4.24-1.69,4.24-4.75V217.52h3.28v11C174.49,233.47,171.57,236.13,166.93,236.13Z"/><path d="M190.8,236l-5.15-7.23h-1.94v7.05h-3.24V217.52h5.65c4.17,0,6.87,2,6.87,5.62a5.14,5.14,0,0,1-3.81,5.18l5.14,6.91Zm-4.72-15.62h-2.37v5.87h2.37c2.34,0,3.67-1.08,3.67-3S188.46,220.33,186.08,220.33Z"/><path d="M206.49,236.13c-5.86,0-9.1-3.81-9.1-9.43s3.42-9.54,9-9.54a10.2,10.2,0,0,1,5.69,1.51l-.47,3a8.44,8.44,0,0,0-5.18-1.8c-3.78,0-5.73,2.74-5.73,6.81s2,6.8,5.91,6.8a6.57,6.57,0,0,0,3.34-.79v-4.21H206l-.47-2.81H213v8.64A12.4,12.4,0,0,1,206.49,236.13Z"/><path d="M218.3,235.77V217.52h11.34v2.88h-8.1v4.47H228l.47,2.84h-7v5.18h8.35v2.88Z"/><path d="M245.34,236l-5.15-7.23h-1.94v7.05H235V217.52h5.65c4.17,0,6.87,2,6.87,5.62a5.14,5.14,0,0,1-3.81,5.18l5.14,6.91Zm-4.72-15.62h-2.37v5.87h2.37c2.34,0,3.67-1.08,3.67-3S243,220.33,240.62,220.33Z"/><path d="M268.23,235.77h-5.94V210.94h6c5.48,0,8,2.62,8,6.44a5.29,5.29,0,0,1-3.56,5.15c2.77.82,4.64,2.7,4.64,6C277.41,233.47,274,235.77,268.23,235.77Zm0-22H265.6v7.56H268c3.28,0,5-1.45,5-3.89C273,215.22,271.62,213.82,268.23,213.82Zm.15,10.33H265.6v8.74h2.88c3.57,0,5.62-1.44,5.62-4.32S272.08,224.15,268.38,224.15Z"/><path d="M282.56,235.77V217.52h3.24v18.25Z"/><path d="M299.8,236.13c-4.71,0-8.78-3.56-8.78-9.46s4.1-9.51,8.78-9.51,8.75,3.53,8.75,9.47S304.48,236.13,299.8,236.13Zm0-16.2c-3.45,0-5.47,2.88-5.47,6.7s2.13,6.77,5.47,6.77,5.44-3,5.44-6.73S303.12,219.93,299.8,219.93Z"/><path d="M318.6,236a16.61,16.61,0,0,1-6.27-1.36l.47-2.92a14.13,14.13,0,0,0,5.94,1.62c2.09,0,3.56-.94,3.56-2.48s-1-2.09-3.6-3c-3.81-1.33-5.76-2.52-5.76-5.36,0-3.14,2.6-5.26,6.12-5.26a13.21,13.21,0,0,1,5.3,1.08l-.47,3A10.59,10.59,0,0,0,319,220c-1.8,0-3,1-3,2.16,0,1.4,1,1.91,3.85,2.88,3.82,1.33,5.51,2.63,5.51,5.47C325.29,233.87,322.59,236,318.6,236Z"/><path d="M335.77,228.79h-2.31v7h-3.24V217.52h5.94c4,0,6.52,2.06,6.52,5.58C342.68,226.88,339.94,228.79,335.77,228.79Zm.07-8.53h-2.38v5.83h2.31c2.34,0,3.74-.86,3.74-2.92C339.51,221.27,338.18,220.26,335.84,220.26Z"/><path d="M358.73,235.77v-8h-8.42v8h-3.24V217.52h3.24v7.27h8.42v-7.27H362v18.25Z"/><path d="M368.06,235.77V217.52H379.4v2.88h-8.1v4.47h6.48l.47,2.84H371.3v5.18h8.35v2.88Z"/><path d="M395.09,236,390,228.72H388v7.05h-3.24V217.52h5.66c4.17,0,6.87,2,6.87,5.62a5.14,5.14,0,0,1-3.82,5.18l5.15,6.91Zm-4.71-15.62H388v5.87h2.38c2.34,0,3.67-1.08,3.67-3S392.75,220.33,390.38,220.33Z"/><path d="M402.83,235.77V217.52h11.34v2.88h-8.1v4.47h6.48l.47,2.84h-6.95v5.18h8.36v2.88Z"/><path d="M452.58,235.77,451,216l-7.85,19.87h-2.56L432.79,216l-1.52,19.76h-3.16l2-24.83h4.17L442,231.31l7.74-20.37h4.14l1.94,24.83Z"/><path d="M469.43,236.13c-4.71,0-8.78-3.56-8.78-9.46s4.1-9.51,8.78-9.51,8.75,3.53,8.75,9.47S474.11,236.13,469.43,236.13Zm0-16.2c-3.45,0-5.47,2.88-5.47,6.7s2.13,6.77,5.47,6.77,5.44-3,5.44-6.73S472.75,219.93,469.43,219.93Z"/><path d="M488.77,235.77h-5.51V217.52h5.51c6.55,0,10,3.86,10,9.11S495.24,235.77,488.77,235.77ZM489,220.4H486.5v12.49h2.41c4.1,0,6.59-2.27,6.59-6.22S492.9,220.4,489,220.4Z"/><path d="M503.89,235.77V217.52h11.33v2.88h-8.1v4.47h6.48l.47,2.84h-7v5.18h8.36v2.88Z"/><path d="M520.59,235.77V217.52h3.24v15.37h6.91l.47,2.88Z"/><path d="M18.57,276.62l6.45,2.2-.9,4.1-13.68-5C4.86,275.9,2,271.83,2,265.39c0-7.7,4.61-12.92,11.7-12.92s11.63,5,11.63,12.67C25.31,270.9,22.64,274.89,18.57,276.62Zm-4.93-20.19c-4.28,0-6.8,3.56-6.8,9s2.56,9.07,6.8,9.07,6.84-3.71,6.84-9.07S17.89,256.43,13.64,256.43Z"/><path d="M40.25,277.77l-.4-2.44c-1.62,1.54-3.49,2.8-5.79,2.8-3.28,0-5-2-5-5.25V260.39h4.32v11.37c0,1.51.65,2.52,2.19,2.52a5.94,5.94,0,0,0,4-2.16V260.39h4.32v17.38Z"/><path d="M58.43,277.77l-.36-2.27a7.69,7.69,0,0,1-5.8,2.63c-3,0-4.93-1.8-4.93-4.82,0-4.21,3.45-6.05,10.47-6.73v-.51c0-1.87-1.08-2.59-3-2.59a14.26,14.26,0,0,0-5.8,1.41l-.54-3.46A18.05,18.05,0,0,1,55.4,260c4.5,0,6.73,1.65,6.73,5.83v11.91Zm-.62-8.67c-5,.61-6.19,2.09-6.19,3.74a1.91,1.91,0,0,0,2.13,2A5.8,5.8,0,0,0,57.81,273Z"/><path d="M76.93,277.77V266.4c0-1.51-.65-2.56-2.23-2.56a5.81,5.81,0,0,0-4,2.2v11.73H66.42V260.39h3.67l.4,2.44c1.62-1.54,3.45-2.8,5.79-2.8,3.24,0,5,2,5,5.22v12.52Z"/><path d="M92.19,278.06c-3.41,0-5.72-1.26-5.72-5.22v-8.93H84v-3.52h2.45v-5.51l4.25-.65v6.16h3.56l.54,3.52h-4.1v8.21c0,1.41.65,2.16,2.3,2.16a5.25,5.25,0,0,0,1.37-.14l.54,3.63A11.8,11.8,0,0,1,92.19,278.06Z"/><path d="M100.55,257.47A2.46,2.46,0,0,1,98,255a2.57,2.57,0,0,1,5.14,0A2.45,2.45,0,0,1,100.55,257.47Zm-2.2,20.3V260.39h4.32v17.38Z"/><path d="M113.87,278.06c-3.42,0-5.73-1.26-5.73-5.22v-8.93H105.7v-3.52h2.44v-5.51l4.25-.65v6.16H116l.54,3.52h-4.1v8.21c0,1.41.65,2.16,2.3,2.16a5.2,5.2,0,0,0,1.37-.14l.54,3.63A11.7,11.7,0,0,1,113.87,278.06Z"/><path d="M130,277.77l-.36-2.27a7.69,7.69,0,0,1-5.8,2.63c-3,0-4.93-1.8-4.93-4.82,0-4.21,3.46-6.05,10.48-6.73v-.51c0-1.87-1.08-2.59-3-2.59a14.26,14.26,0,0,0-5.8,1.41l-.54-3.46a18.05,18.05,0,0,1,6.91-1.4c4.5,0,6.74,1.65,6.74,5.83v11.91Zm-.61-8.67c-5,.61-6.2,2.09-6.2,3.74a1.91,1.91,0,0,0,2.13,2,5.84,5.84,0,0,0,4.07-1.87Z"/><path d="M144.57,278.06c-3.42,0-5.72-1.26-5.72-5.22v-8.93H136.4v-3.52h2.45v-5.51l4.25-.65v6.16h3.56l.54,3.52h-4.1v8.21c0,1.41.65,2.16,2.3,2.16a5.25,5.25,0,0,0,1.37-.14l.54,3.63A11.87,11.87,0,0,1,144.57,278.06Z"/><path d="M152.93,257.47a2.47,2.47,0,0,1-2.6-2.45,2.58,2.58,0,0,1,5.15,0A2.45,2.45,0,0,1,152.93,257.47Zm-2.2,20.3V260.39h4.32v17.38Z"/><path d="M168.33,277.84h-4.21L158,260.71l4.53-.58,3.89,12.35,3.74-12.09h4.29Z"/><path d="M184.21,278.13c-4.86,0-8.5-2.77-8.5-9,0-5.65,3.39-9.07,7.92-9.07,5.22,0,7.56,3.92,7.56,8.85,0,.36,0,.79,0,1.05H180c.22,3.42,2,4.86,4.72,4.86a10.08,10.08,0,0,0,6-2.17l.51,3.39A11.94,11.94,0,0,1,184.21,278.13ZM180,267.23H187c-.29-2.7-1.37-4.22-3.45-4.22C181.8,263,180.36,264.42,180,267.23Z"/><path d="M209.7,268.63h-2.13v9.14h-4.75V252.94h7.27c5.69,0,9.11,2.62,9.11,7.63C219.2,265.93,215.38,268.63,209.7,268.63Zm.14-11.88h-2.27v8h2.09c3.06,0,4.86-1.26,4.86-4.11C214.52,258.08,212.9,256.75,209.84,256.75Z"/><path d="M226.37,267.8v10h-4.32V260.39h3.67l.54,3.49a6.76,6.76,0,0,1,5.58-3.85l.68,4.28A8,8,0,0,0,226.37,267.8Z"/><path d="M242.38,278.13c-4.85,0-8.49-2.77-8.49-9,0-5.65,3.38-9.07,7.92-9.07,5.22,0,7.56,3.92,7.56,8.85,0,.36,0,.79,0,1.05H238.14c.21,3.42,2.05,4.86,4.71,4.86a10.11,10.11,0,0,0,6-2.17l.5,3.39A11.92,11.92,0,0,1,242.38,278.13Zm-4.17-10.9h6.95c-.29-2.7-1.37-4.22-3.46-4.22C240,263,238.53,264.42,238.21,267.23Z"/><path d="M260.31,278.1c-4.86,0-8.28-3.24-8.28-8.93,0-6.05,3.78-9.14,8.43-9.14a10,10,0,0,1,5.43,1.47l-.61,3.89a7.2,7.2,0,0,0-4.61-1.62c-2.48,0-4.28,1.84-4.28,5.29,0,3.6,1.94,5.33,4.57,5.33a7,7,0,0,0,4.54-1.66l.54,3.68A9.45,9.45,0,0,1,260.31,278.1Z"/><path d="M271.91,257.47a2.47,2.47,0,0,1-2.6-2.45,2.58,2.58,0,0,1,5.15,0A2.45,2.45,0,0,1,271.91,257.47Zm-2.2,20.3V260.39H274v17.38Z"/><path d="M287,278a11.21,11.21,0,0,1-4-.68v6.55l-4.32.65V260.39h3.67l.4,2.37A7,7,0,0,1,288,260c3.63,0,6.55,2.73,6.55,8.56C294.55,275.07,291,278,287,278Zm-.11-14.11c-1.54,0-2.77,1-3.92,2.45v7.45a6.69,6.69,0,0,0,3.35.76c2.23,0,3.92-1.84,3.92-5.65C290.19,265.5,288.79,263.84,286.84,263.84Z"/><path d="M300.45,257.47a2.46,2.46,0,0,1-2.59-2.45,2.58,2.58,0,0,1,5.15,0A2.45,2.45,0,0,1,300.45,257.47Zm-2.19,20.3V260.39h4.32v17.38Z"/><path d="M313.77,278.06c-3.42,0-5.72-1.26-5.72-5.22v-8.93H305.6v-3.52h2.45v-5.51l4.25-.65v6.16h3.56l.54,3.52h-4.1v8.21c0,1.41.64,2.16,2.3,2.16a5.3,5.3,0,0,0,1.37-.14l.54,3.63A11.87,11.87,0,0,1,313.77,278.06Z"/><path d="M329.86,277.77l-.36-2.27a7.65,7.65,0,0,1-5.79,2.63c-2.95,0-4.93-1.8-4.93-4.82,0-4.21,3.45-6.05,10.47-6.73v-.51c0-1.87-1.08-2.59-3-2.59a14.26,14.26,0,0,0-5.79,1.41l-.54-3.46a18,18,0,0,1,6.91-1.4c4.5,0,6.73,1.65,6.73,5.83v11.91Zm-.61-8.67c-5,.61-6.19,2.09-6.19,3.74a1.9,1.9,0,0,0,2.12,2,5.82,5.82,0,0,0,4.07-1.87Z"/><path d="M344.48,278.06c-3.42,0-5.72-1.26-5.72-5.22v-8.93h-2.45v-3.52h2.45v-5.51l4.24-.65v6.16h3.57l.54,3.52H343v8.21c0,1.41.65,2.16,2.31,2.16a5.3,5.3,0,0,0,1.37-.14l.54,3.63A11.87,11.87,0,0,1,344.48,278.06Z"/><path d="M352.83,257.47a2.46,2.46,0,0,1-2.59-2.45,2.58,2.58,0,0,1,5.15,0A2.45,2.45,0,0,1,352.83,257.47Zm-2.19,20.3V260.39H355v17.38Z"/><path d="M366.76,278.13c-4.71,0-8.13-3.38-8.13-9s3.45-9.07,8.17-9.07,8.21,3.42,8.21,9.07S371.51,278.13,366.76,278.13Zm0-14.54c-2.55,0-3.92,2.27-3.92,5.51s1.4,5.51,3.92,5.51c2.67,0,4-2.27,4-5.51S369.35,263.59,366.76,263.59Z"/><path d="M389,277.77V266.4c0-1.51-.65-2.56-2.23-2.56a5.81,5.81,0,0,0-4,2.2v11.73H378.5V260.39h3.67l.4,2.44c1.62-1.54,3.45-2.8,5.79-2.8,3.24,0,5,2,5,5.22v12.52Z"/><path d="M410.54,257.08v6.33h7l.69,4.1h-7.67v10.26h-4.75V252.94h13.89v4.14Z"/><path d="M428.93,278.13c-4.71,0-8.13-3.38-8.13-9S424.26,260,429,260s8.21,3.42,8.21,9.07S433.69,278.13,428.93,278.13Zm0-14.54c-2.55,0-3.92,2.27-3.92,5.51s1.41,5.51,3.92,5.51c2.67,0,4-2.27,4-5.51S431.53,263.59,428.93,263.59Z"/><path d="M445,267.8v10h-4.32V260.39h3.67l.54,3.49c1.16-2,2.88-3.71,5.58-3.85l.69,4.28A8,8,0,0,0,445,267.8Z"/><path d="M461,278.13c-4.86,0-8.49-2.77-8.49-9,0-5.65,3.38-9.07,7.91-9.07,5.22,0,7.56,3.92,7.56,8.85,0,.36,0,.79,0,1.05h-11.2c.22,3.42,2.06,4.86,4.72,4.86a10.06,10.06,0,0,0,6-2.17L468,276A11.92,11.92,0,0,1,461,278.13Zm-4.18-10.9h6.95c-.29-2.7-1.36-4.22-3.45-4.22C458.6,263,457.16,264.42,456.83,267.23Z"/><path d="M478.94,278.1c-4.86,0-8.28-3.24-8.28-8.93,0-6.05,3.78-9.14,8.42-9.14a10,10,0,0,1,5.44,1.47l-.61,3.89a7.2,7.2,0,0,0-4.61-1.62c-2.49,0-4.29,1.84-4.29,5.29,0,3.6,1.95,5.33,4.58,5.33a7,7,0,0,0,4.53-1.66l.54,3.68A9.42,9.42,0,0,1,478.94,278.1Z"/><path d="M498.27,277.77l-.36-2.27a7.65,7.65,0,0,1-5.79,2.63c-3,0-4.94-1.8-4.94-4.82,0-4.21,3.46-6.05,10.48-6.73v-.51c0-1.87-1.08-2.59-3-2.59a14.26,14.26,0,0,0-5.79,1.41l-.55-3.46a18.07,18.07,0,0,1,6.92-1.4c4.5,0,6.73,1.65,6.73,5.83v11.91Zm-.61-8.67c-5,.61-6.19,2.09-6.19,3.74a1.9,1.9,0,0,0,2.12,2,5.82,5.82,0,0,0,4.07-1.87Z"/><path d="M512.13,278.1a15.28,15.28,0,0,1-6.77-1.69l.58-3.6a12,12,0,0,0,6.33,2.05c1.88,0,2.88-.69,2.88-1.8s-.75-1.73-3.52-2.41c-4.21-1.08-6-2.31-6-5.48,0-3,2.38-5.11,6.41-5.11a14.69,14.69,0,0,1,6.08,1.23l-.57,3.6a11.81,11.81,0,0,0-5.51-1.59c-1.62,0-2.41.61-2.41,1.59s.64,1.44,3.24,2.12c4.5,1.15,6.26,2.38,6.26,5.65S516.7,278.1,512.13,278.1Z"/><path d="M529.12,278.06c-3.42,0-5.72-1.26-5.72-5.22v-8.93H521v-3.52h2.45v-5.51l4.25-.65v6.16h3.56l.54,3.52h-4.1v8.21c0,1.41.64,2.16,2.3,2.16a5.3,5.3,0,0,0,1.37-.14l.54,3.63A11.87,11.87,0,0,1,529.12,278.06Z"/><path d="M9.2,320.06a17.85,17.85,0,0,1-7.81-1.73L2.11,314a14.83,14.83,0,0,0,7.16,2.19c2.2,0,3.71-1,3.71-3s-.87-2.59-4.47-4.14c-4.82-2-6.76-3.56-6.76-7.42,0-4.39,3.38-6.94,8-6.94a13.34,13.34,0,0,1,6.56,1.51l-.72,4.32a11.06,11.06,0,0,0-5.87-1.94c-2.38,0-3.42,1.15-3.42,2.66s.79,2.34,4.25,3.78c5.11,2.09,7,3.85,7,7.7C17.55,317.54,14,320.06,9.2,320.06Z"/><path d="M30.51,305v14.79H26.15V305H20.68v-3.67H35.76L36.3,305Z"/><path d="M37.1,319.77l6.8-18.64h5.15l6.62,18.1-4.17.83L50,315.63H42.68l-1.41,4.14Zm6.66-7.52h5.11l-2.56-7.6Z"/><path d="M71.3,319.77l-8.07-12.16v12.16H59.38V301.31h4.11l7.63,11.52V301.31H75v18.46Z"/><path d="M86.56,319.77H80.41V301.31h6.11c6.56,0,10,3.78,10,9.21S92.9,319.77,86.56,319.77Zm0-14.94H84.65v11.42h1.91c3.46,0,5.54-2,5.54-5.69S90,304.83,86.56,304.83Z"/><path d="M98.59,319.77l6.8-18.64h5.15l6.62,18.1-4.18.83-1.51-4.43h-7.3l-1.41,4.14Zm6.66-7.52h5.11l-2.56-7.6Z"/><path d="M131.24,320l-4.43-6.65h-1.73v6.4h-4.21V301.31h6.44c4.65,0,7.27,2.19,7.27,5.9a5.39,5.39,0,0,1-3.56,5.22l4.72,6.77Zm-4.18-15.37h-2v5.51h2c2.2,0,3.39-1,3.39-2.84S129.18,304.65,127.06,304.65Z"/><path d="M145.6,319.77h-6.15V301.31h6.11c6.56,0,10,3.78,10,9.21S151.94,319.77,145.6,319.77Zm0-14.94h-1.91v11.42h1.91c3.46,0,5.54-2,5.54-5.69S149,304.83,145.6,304.83Z"/><path d="M169,319.77V294.94h14.43v4h-9.71v5.9h7.48l.65,4h-8.13v6.87h10.07v4Z"/><path d="M200.1,319.77,192,307.61v12.16h-3.85V301.31h4.1l7.63,11.52V301.31h3.85v18.46Z"/><path d="M217.56,305v14.79h-4.35V305h-5.47v-3.67h15.08l.54,3.67Z"/><path d="M237.4,320,233,313.37h-1.73v6.4H227V301.31h6.44c4.65,0,7.28,2.19,7.28,5.9a5.38,5.38,0,0,1-3.57,5.22l4.72,6.77Zm-4.18-15.37h-2v5.51h2c2.19,0,3.38-1,3.38-2.84S235.35,304.65,233.22,304.65Z"/><path d="M253.38,320.13c-4.89,0-8.85-3.71-8.85-9.57s4-9.61,8.85-9.61,8.86,3.67,8.86,9.57S258.28,320.13,253.38,320.13Zm0-15.69c-2.91,0-4.57,2.63-4.57,6.08s1.73,6.16,4.57,6.16S258,314,258,310.56,256.23,304.44,253.38,304.44Z"/><path d="M272.75,313.47H271v6.3h-4.25V301.31h6.33c4.4,0,7.17,2.12,7.17,6C280.24,311.28,277.39,313.47,272.75,313.47Zm0-8.89H271v5.62h1.84c2.23,0,3.42-.94,3.42-2.81S275,304.58,272.79,304.58Z"/><path d="M293,312.79v7h-4.36v-6.84l-6.48-11.19,4.43-.72,4.35,8,4.14-7.7h4.61Z"/><path d="M319.62,320.13c-4.89,0-8.85-3.71-8.85-9.57s4-9.61,8.85-9.61,8.86,3.67,8.86,9.57S324.52,320.13,319.62,320.13Zm0-15.69c-2.91,0-4.57,2.63-4.57,6.08s1.73,6.16,4.57,6.16,4.57-2.67,4.57-6.12S322.46,304.44,319.62,304.44Z"/><path d="M337.19,304.76v4.18H343l.54,3.45h-6.34v7.38H333V301.31h11.73v3.45Z"/><path d="M365.41,294.83h5.08l9.1,24.33-4.75.86-2.37-6.55H363l-2.23,6.3h-4.72Zm-1.08,14.76h6.81L367.75,300Z"/><path d="M391.15,320.13c-5.5,0-9.07-3.71-9.07-9.54s3.75-9.64,9-9.64a9.68,9.68,0,0,1,5.22,1.29l-.57,3.78a7.06,7.06,0,0,0-4.25-1.47c-3,0-5,2.16-5,6s2.06,6,5,6a8.37,8.37,0,0,0,4.5-1.44l.54,3.53A10.48,10.48,0,0,1,391.15,320.13Z"/><path d="M409,305v14.79h-4.35V305h-5.47v-3.67h15.08l.54,3.67Z"/><path d="M418.59,319.77V301.31h4.21v18.46Z"/><path d="M437.92,320h-4.65l-6.62-18.18,4.43-.83,4.68,14.19,4.53-13.86h4.39Z"/><path d="M445.41,319.77l6.8-18.64h5.15l6.62,18.1-4.18.83-1.51-4.43H451l-1.4,4.14Zm6.65-7.52h5.12l-2.56-7.6Z"/><path d="M474.89,305v14.79h-4.36V305h-5.47v-3.67h15.08l.54,3.67Z"/><path d="M484.5,319.77V301.31h4.21v18.46Z"/><path d="M502.21,320.13c-4.89,0-8.85-3.71-8.85-9.57s4-9.61,8.85-9.61,8.86,3.67,8.86,9.57S507.11,320.13,502.21,320.13Zm0-15.69c-2.91,0-4.57,2.63-4.57,6.08s1.73,6.16,4.57,6.16,4.57-2.67,4.57-6.12S505.05,304.44,502.21,304.44Z"/><path d="M527.48,319.77l-8.06-12.16v12.16h-3.85V301.31h4.1l7.63,11.52V301.31h3.85v18.46Z"/><path d="M4.39,361.77V336.94H19.87v5H10.44v4.58h7.2l.79,4.93h-8v5.36h9.75v5Z"/><path d="M33.08,361.77l-.36-2.19a7.3,7.3,0,0,1-5.54,2.55c-2.81,0-4.79-1.69-4.79-4.89,0-4.14,3.17-6.09,10.08-6.7v-.32c0-1.55-.86-2.23-2.66-2.23a13.81,13.81,0,0,0-5.69,1.33l-.65-4.11a18.42,18.42,0,0,1,7.16-1.36c4.86,0,7.28,1.62,7.28,6.12v11.8Zm-.61-8.6c-3.71.58-4.72,1.8-4.72,3.35a1.6,1.6,0,0,0,1.73,1.73,4.55,4.55,0,0,0,3-1.34Z"/><path d="M48.06,362.06a16,16,0,0,1-7.27-1.76l.65-4.14a13.59,13.59,0,0,0,6.65,2.09c1.52,0,2.24-.51,2.24-1.34s-.51-1.29-3-1.9c-4.43-1.16-6.3-2.34-6.3-5.66s2.45-5.5,6.8-5.5a15.94,15.94,0,0,1,6.48,1.33l-.68,4.14a12.78,12.78,0,0,0-5.8-1.66c-1.26,0-1.87.47-1.87,1.15s.5,1.12,3,1.8c4.68,1.23,6.33,2.45,6.33,5.73C55.29,360.05,52.74,362.06,48.06,362.06Z"/><path d="M65.41,362c-3.78,0-6.41-1.37-6.41-5.87v-7.6H56.66v-4.42H59v-5.26l5.4-.86v6.12h3.35l.68,4.42h-4v6.73c0,1.41.72,2.09,2.16,2.09a5,5,0,0,0,1.33-.18l.65,4.47A10.4,10.4,0,0,1,65.41,362Z"/><path d="M90.18,362.21c-7.53,0-12.06-5-12.06-12.82S82.94,336.5,90,336.5a13.92,13.92,0,0,1,6.87,1.62L96,343.67a9.16,9.16,0,0,0-5.54-2c-3.75,0-6.2,2.85-6.2,7.7s2.78,7.71,6.52,7.71a11.4,11.4,0,0,0,5.65-1.73l.79,5A14.2,14.2,0,0,1,90.18,362.21Z"/><path d="M107.31,362.13c-4.85,0-8.42-3.49-8.42-9.14s3.6-9.21,8.46-9.21,8.5,3.52,8.5,9.17S112.21,362.13,107.31,362.13Zm0-13.89c-2.09,0-3.2,1.83-3.2,4.71s1.15,4.79,3.2,4.79,3.24-1.91,3.24-4.75S109.44,348.24,107.35,348.24Z"/><path d="M128.55,361.77l-.36-2.19a7.3,7.3,0,0,1-5.54,2.55c-2.81,0-4.79-1.69-4.79-4.89,0-4.14,3.17-6.09,10.08-6.7v-.32c0-1.55-.86-2.23-2.66-2.23a13.81,13.81,0,0,0-5.69,1.33l-.65-4.11a18.47,18.47,0,0,1,7.17-1.36c4.86,0,7.27,1.62,7.27,6.12v11.8Zm-.61-8.6c-3.71.58-4.71,1.8-4.71,3.35a1.59,1.59,0,0,0,1.72,1.73,4.55,4.55,0,0,0,3-1.34Z"/><path d="M143.53,362.06a16,16,0,0,1-7.27-1.76l.65-4.14a13.59,13.59,0,0,0,6.66,2.09c1.51,0,2.23-.51,2.23-1.34s-.51-1.29-3-1.9c-4.43-1.16-6.3-2.34-6.3-5.66s2.45-5.5,6.8-5.5a15.94,15.94,0,0,1,6.48,1.33l-.68,4.14a12.78,12.78,0,0,0-5.8-1.66c-1.26,0-1.87.47-1.87,1.15s.51,1.12,3,1.8c4.68,1.23,6.33,2.45,6.33,5.73C150.76,360.05,148.21,362.06,143.53,362.06Z"/><path d="M160.88,362c-3.78,0-6.41-1.37-6.41-5.87v-7.6h-2.34v-4.42h2.34v-5.26l5.4-.86v6.12h3.35l.69,4.42h-4v6.73c0,1.41.72,2.09,2.16,2.09a5.17,5.17,0,0,0,1.34-.18l.64,4.47A10.4,10.4,0,0,1,160.88,362Z"/><path d="M185.4,362.24c-7.13,0-11.81-5.18-11.81-12.85s4.68-12.92,11.88-12.92,11.84,5.18,11.84,12.85S192.63,362.24,185.4,362.24Zm0-20.95c-3.56,0-5.68,3.13-5.68,8.06s2.12,8.07,5.68,8.07,5.69-3.13,5.69-8.07S189,341.29,185.43,341.29Z"/><path d="M208.26,362.1c-5,0-8.5-3.31-8.5-9,0-6.23,3.93-9.25,8.71-9.25a10.41,10.41,0,0,1,5.29,1.33l-.75,4.64a6.86,6.86,0,0,0-4-1.29c-2.19,0-3.78,1.47-3.78,4.42s1.77,4.47,4,4.47a7,7,0,0,0,4-1.33l.65,4.42A10.18,10.18,0,0,1,208.26,362.1Z"/><path d="M224.71,362.13c-5.29,0-9.07-2.84-9.07-9.1,0-5.76,3.53-9.25,8.31-9.25,5.44,0,7.81,4,7.81,9.14a12.28,12.28,0,0,1-.07,1.4H221c.29,2.81,1.94,3.85,4.35,3.85a11.49,11.49,0,0,0,5.8-1.87l.54,3.85A12.75,12.75,0,0,1,224.71,362.13ZM221,351.33h5.58c-.18-2.66-1.12-4-2.77-4S221.18,348.63,221,351.33Z"/><path d="M244.51,361.77l-.36-2.19a7.3,7.3,0,0,1-5.54,2.55c-2.81,0-4.79-1.69-4.79-4.89,0-4.14,3.17-6.09,10.08-6.7v-.32c0-1.55-.87-2.23-2.67-2.23a13.77,13.77,0,0,0-5.68,1.33l-.65-4.11a18.38,18.38,0,0,1,7.16-1.36c4.86,0,7.27,1.62,7.27,6.12v11.8Zm-.61-8.6c-3.71.58-4.72,1.8-4.72,3.35a1.6,1.6,0,0,0,1.73,1.73,4.57,4.57,0,0,0,3-1.34Z"/><path d="M263.16,361.77v-11c0-1.26-.51-2.12-1.8-2.12a4.4,4.4,0,0,0-3,1.58v11.59h-5.44V344.14h4.79l.4,2.41c1.58-1.59,3.27-2.77,5.5-2.77,3.28,0,5,2,5,5.47v12.52Z"/><path d="M286.3,342.08v5.08h6.48l.87,5.15H286.3v9.46h-6.12V336.94h14.87v5.14Z"/><path d="M304.23,362.13c-4.86,0-8.42-3.49-8.42-9.14s3.6-9.21,8.46-9.21,8.49,3.52,8.49,9.17S309.13,362.13,304.23,362.13Zm0-13.89c-2.09,0-3.21,1.83-3.21,4.71s1.16,4.79,3.21,4.79,3.24-1.91,3.24-4.75S306.36,348.24,304.27,348.24Z"/><path d="M321.08,352v9.79h-5.44V344.14h4.76l.57,3.49c1.08-2,2.56-3.67,5.15-3.85l.9,5.54A8.67,8.67,0,0,0,321.08,352Z"/><path d="M337.1,362.13c-5.29,0-9.07-2.84-9.07-9.1,0-5.76,3.53-9.25,8.31-9.25,5.44,0,7.81,4,7.81,9.14a12.28,12.28,0,0,1-.07,1.4H333.43c.29,2.81,1.94,3.85,4.35,3.85a11.49,11.49,0,0,0,5.8-1.87l.54,3.85A12.75,12.75,0,0,1,337.1,362.13Zm-3.71-10.8H339c-.18-2.66-1.11-4-2.77-4S333.57,348.63,333.39,351.33Z"/><path d="M354.78,362.1c-5,0-8.5-3.31-8.5-9,0-6.23,3.92-9.25,8.71-9.25a10.41,10.41,0,0,1,5.29,1.33l-.75,4.64a6.86,6.86,0,0,0-4-1.29c-2.2,0-3.78,1.47-3.78,4.42s1.77,4.47,4,4.47a7,7,0,0,0,4-1.33l.65,4.42A10.18,10.18,0,0,1,354.78,362.1Z"/><path d="M373.17,361.77l-.36-2.19a7.3,7.3,0,0,1-5.54,2.55c-2.81,0-4.79-1.69-4.79-4.89,0-4.14,3.17-6.09,10.08-6.7v-.32c0-1.55-.86-2.23-2.66-2.23a13.81,13.81,0,0,0-5.69,1.33l-.65-4.11a18.42,18.42,0,0,1,7.16-1.36c4.86,0,7.27,1.62,7.27,6.12v11.8Zm-.61-8.6c-3.71.58-4.72,1.8-4.72,3.35a1.6,1.6,0,0,0,1.73,1.73,4.55,4.55,0,0,0,3-1.34Z"/><path d="M388.15,362.06a16,16,0,0,1-7.27-1.76l.64-4.14a13.65,13.65,0,0,0,6.66,2.09c1.51,0,2.23-.51,2.23-1.34s-.5-1.29-3-1.9c-4.43-1.16-6.3-2.34-6.3-5.66s2.45-5.5,6.8-5.5a16,16,0,0,1,6.48,1.33l-.68,4.14a12.78,12.78,0,0,0-5.8-1.66c-1.26,0-1.87.47-1.87,1.15s.5,1.12,3,1.8c4.68,1.23,6.33,2.45,6.33,5.73C395.38,360.05,392.83,362.06,388.15,362.06Z"/><path d="M405.5,362c-3.78,0-6.41-1.37-6.41-5.87v-7.6h-2.34v-4.42h2.34v-5.26l5.4-.86v6.12h3.35l.68,4.42h-4v6.73c0,1.41.72,2.09,2.16,2.09a5,5,0,0,0,1.33-.18l.65,4.47A10.4,10.4,0,0,1,405.5,362Z"/><path d="M426.77,362.06a20.42,20.42,0,0,1-8.67-1.87l.9-5.26a17.57,17.57,0,0,0,7.88,2.31c1.77,0,3-.76,3-2.23s-.72-2.06-4.21-3.39c-5-1.91-7.13-3.53-7.13-7.63,0-4.79,3.75-7.34,8.5-7.34a15.8,15.8,0,0,1,7.48,1.65l-.93,5.19a13.54,13.54,0,0,0-6.48-2c-1.87,0-2.77.79-2.77,1.95s.68,1.87,3.78,3.06c5.43,2,7.56,3.85,7.56,7.81C435.67,359.69,431.71,362.06,426.77,362.06Z"/><path d="M448.23,362.13c-1.58,4.61-3.74,6.19-7.6,6.19a8.2,8.2,0,0,1-2.05-.21l-.68-4.36a6.51,6.51,0,0,0,2.16.29,3,3,0,0,0,2.88-1.69l.21-.54-6.4-17.24,5.87-.69L446,355l3.21-10.87h5.25Z"/><path d="M462.7,362.06a16.1,16.1,0,0,1-7.27-1.76l.65-4.14a13.62,13.62,0,0,0,6.66,2.09c1.51,0,2.23-.51,2.23-1.34s-.5-1.29-3-1.9c-4.42-1.16-6.3-2.34-6.3-5.66s2.45-5.5,6.81-5.5a16,16,0,0,1,6.48,1.33l-.69,4.14a12.74,12.74,0,0,0-5.79-1.66c-1.26,0-1.87.47-1.87,1.15s.5,1.12,3,1.8c4.68,1.23,6.34,2.45,6.34,5.73C469.94,360.05,467.38,362.06,462.7,362.06Z"/><path d="M480.05,362c-3.77,0-6.4-1.37-6.4-5.87v-7.6h-2.34v-4.42h2.34v-5.26l5.4-.86v6.12h3.34l.69,4.42h-4v6.73c0,1.41.72,2.09,2.16,2.09a5.15,5.15,0,0,0,1.33-.18l.65,4.47A10.52,10.52,0,0,1,480.05,362Z"/><path d="M493.81,362.13c-5.3,0-9.07-2.84-9.07-9.1,0-5.76,3.52-9.25,8.31-9.25,5.44,0,7.81,4,7.81,9.14a12.28,12.28,0,0,1-.07,1.4H490.13c.29,2.81,1.95,3.85,4.36,3.85a11.52,11.52,0,0,0,5.8-1.87l.54,3.85A12.75,12.75,0,0,1,493.81,362.13Zm-3.71-10.8h5.58c-.18-2.66-1.12-4-2.77-4S490.28,348.63,490.1,351.33Z"/><path d="M523.86,361.77v-11c0-1.26-.46-2.12-1.72-2.12a4.42,4.42,0,0,0-2.88,1.55v11.62h-5.44v-11c0-1.26-.47-2.12-1.73-2.12a4.38,4.38,0,0,0-2.88,1.55v11.62h-5.43V344.14h4.79l.39,2.41c1.59-1.62,3.21-2.77,5.47-2.77a4.35,4.35,0,0,1,4.4,2.77c1.58-1.59,3.31-2.77,5.5-2.77,3.28,0,5,2,5,5.47v12.52Z"/><path d="M8.93,378.83h6.76L24.33,403l-6.19,1-1.83-5.4H7.67L6,403.77H0Zm.21,15h5.62L12,385.16Z"/><path d="M27.65,403.77V385.06h5.43v14.18h6l.65,4.53Z"/><path d="M50.18,389.59v14.18H44.71V389.59h-5v-4.53H54.93l.69,4.53Z"/><path d="M58.86,403.77V385.06H71.57v4H64v3.2h5.65l.62,4H64v3.49h7.74v4Z"/><path d="M86.22,404.1,82.51,398H81v5.76H75.85V385.06h7.27c5,0,7.63,2.44,7.63,6.19a5.7,5.7,0,0,1-3.31,5.32l4.29,6.56ZM82.65,389H81v5.14h1.58c2,0,3.06-.93,3.06-2.7C85.64,389.84,84.49,389,82.65,389Z"/><path d="M106.74,403.77l-7-10.87v10.87H95V385.06H99.9l6.55,10.15V385.06h4.75v18.71Z"/><path d="M114.3,403.77,120.71,385h6.69l6.19,18.14-5.18,1-1.22-4h-6.66l-1.12,3.7Zm7.34-7.63h4.43l-2.23-7.27Z"/><path d="M145,389.59v14.18h-5.47V389.59h-5v-4.53h15.26l.69,4.53Z"/><path d="M153.72,403.77V385.06h12.7v4H158.9v3.2h5.65l.62,4H158.9v3.49h7.74v4Z"/><path d="M190.62,404.21c-7.53,0-12.06-5-12.06-12.82s4.82-12.89,11.88-12.89a14,14,0,0,1,6.87,1.62l-.86,5.55a9.16,9.16,0,0,0-5.55-2c-3.74,0-6.19,2.85-6.19,7.71s2.78,7.7,6.52,7.7a11.43,11.43,0,0,0,5.65-1.73l.79,5A14.2,14.2,0,0,1,190.62,404.21Z"/><path d="M209.59,404.13c-5.08,0-8.93-3.85-8.93-9.68s3.89-9.75,9-9.75,9,3.85,9,9.72S214.7,404.13,209.59,404.13Zm0-15.19c-2.41,0-3.67,2.34-3.67,5.48s1.3,5.5,3.67,5.5,3.64-2.37,3.64-5.47S212,388.94,209.62,388.94Z"/><path d="M234.28,403.77l-7-10.87v10.87h-4.76V385.06h4.94L234,395.21V385.06h4.75v18.71Z"/><path d="M252,404.1c-5.65,0-9.32-3.57-9.32-9.65s4-9.72,9.18-9.72a10,10,0,0,1,5.14,1.19l-.64,4.61a6.47,6.47,0,0,0-3.82-1.33c-2.55,0-4.43,1.69-4.43,5.25s2,5.26,4.5,5.26a8.12,8.12,0,0,0,4.07-1.19l.61,4.28A11.37,11.37,0,0,1,252,404.1Z"/><path d="M261.18,403.77V385.06h12.7v4h-7.52v3.2H272l.61,4h-6.26v3.49h7.74v4Z"/><path d="M289.94,403.77l-7-10.87v10.87h-4.75V385.06h4.93l6.55,10.15V385.06h4.75v18.71Z"/><path d="M308.48,389.59v14.18H303V389.59h-5v-4.53h15.26l.69,4.53Z"/><path d="M327.52,404.1l-3.7-6.09h-1.48v5.76h-5.18V385.06h7.27c5,0,7.63,2.44,7.63,6.19a5.7,5.7,0,0,1-3.31,5.32l4.28,6.56ZM324,389H322.3v5.14h1.59c2,0,3.06-.93,3.06-2.7C327,389.84,325.8,389,324,389Z"/><path d="M334.62,403.77,341,385h6.7l6.19,18.14-5.18,1-1.23-4h-6.66l-1.11,3.7Zm7.34-7.63h4.43l-2.23-7.27Z"/><path d="M365.36,389.59v14.18h-5.47V389.59h-5v-4.53h15.26l.68,4.53Z"/><path d="M374.14,403.77V385.06h5.22v18.71Z"/><path d="M392.36,404.13c-5.08,0-8.93-3.85-8.93-9.68s3.89-9.75,9-9.75,9,3.85,9,9.72S397.47,404.13,392.36,404.13Zm0-15.19c-2.41,0-3.67,2.34-3.67,5.48s1.3,5.5,3.67,5.5,3.64-2.37,3.64-5.47S394.73,388.94,392.39,388.94Z"/><path d="M417.05,403.77l-7-10.87v10.87h-4.76V385.06h4.93l6.56,10.15V385.06h4.75v18.71Z"/><path d="M435,403.77V378.94h6.15v19.51h7.64l.82,5.32Z"/><path d="M453.2,403.77V385.06h5.22v18.71Z"/><path d="M481.46,403.77l-.76-13.68-3.6,13.72h-5.22l-3.63-13.72-.72,13.68H463l1.22-18.71h7.24l3.31,12.16,3.35-12.16h7.23l1.22,18.71Z"/><path d="M491.21,403.77V385.06h5.22v18.71Z"/><path d="M510.69,389.59v14.18h-5.47V389.59h-5v-4.53h15.26l.68,4.53Z"/><path d="M525.34,404.06a21.4,21.4,0,0,1-7.2-1.37l.76-4.24a19.65,19.65,0,0,0,6.44,1.58c1.77,0,2.56-.58,2.56-1.48s-.61-1.33-2.52-1.9c-4.29-1.23-6.63-2.42-6.63-6s2.81-5.87,6.84-5.87a15.84,15.84,0,0,1,6.2,1.23l-.73,4.14a14.85,14.85,0,0,0-5.47-1.34c-1.36,0-2.08.62-2.08,1.37,0,.9.57,1.3,2.62,1.91,4.65,1.33,6.55,2.56,6.55,5.87C532.68,401.72,529.77,404.06,525.34,404.06Z"/><path d="M15.57,446l-4.57-8H9.88v7.7H2.58V420.94h9.5c6.41,0,10.08,2.84,10.08,8.17a7.51,7.51,0,0,1-4.32,7.16l5.4,8.57ZM11.29,426.3H9.81V433h1.51c2.38,0,3.67-1.22,3.67-3.42S13.66,426.3,11.29,426.3Z"/><path d="M33.17,446.13c-5.65,0-9.53-2.88-9.53-9.14,0-5.87,3.63-9.39,8.6-9.39,5.61,0,8,4.1,8,9.35a10.83,10.83,0,0,1-.11,1.73H30c.4,2.23,2,3,4.07,3a12.88,12.88,0,0,0,5.65-1.62l.58,4.25A14.29,14.29,0,0,1,33.17,446.13ZM29.9,435.41h4.35c-.07-2.59-.9-3.89-2.19-3.89S29.93,432.82,29.9,435.41Z"/><path d="M50.67,446.06c-5.25,0-8.75-3.35-8.75-9,0-6.37,4.11-9.39,9-9.39a11.24,11.24,0,0,1,5.11,1.22l-.86,5.33a6.45,6.45,0,0,0-3.5-1.08c-1.9,0-3.34,1.22-3.34,3.71s1.62,3.78,3.49,3.78a7.49,7.49,0,0,0,3.6-1.12l.72,5.11A11,11,0,0,1,50.67,446.06Z"/><path d="M69.21,445.77l-.4-2.37c-1.58,1.62-3.13,2.73-5.25,2.73-3.28,0-5-2.05-5-5.61V428H65v10.76c0,1,.43,1.8,1.48,1.8a3.14,3.14,0,0,0,2.12-1.08V428H75v17.81Z"/><path d="M84.55,436.13v9.64H78.14V428h5.72l.58,3.49c1-2.09,2.27-3.67,4.79-3.85l1,6.58A10.48,10.48,0,0,0,84.55,436.13Z"/><path d="M99,446a17.35,17.35,0,0,1-7.7-1.8l.72-4.65a15,15,0,0,0,6.91,2.13c1.26,0,1.73-.36,1.73-.94s-.33-.9-2.56-1.48c-4.57-1.18-6.55-2.37-6.55-5.79s2.52-5.8,7.09-5.8a17.1,17.1,0,0,1,6.84,1.37l-.72,4.64a14,14,0,0,0-6-1.72c-1,0-1.4.32-1.4.79s.32.83,2.7,1.47c4.89,1.34,6.44,2.52,6.44,5.8C106.43,444,103.77,446,99,446Z"/><path d="M112.19,426.12a3.34,3.34,0,1,1,3.57-3.31A3.3,3.3,0,0,1,112.19,426.12ZM109,445.77V428h6.41v17.81Z"/><path d="M129.62,445.85h-6.45l-6-17.39,7-.76,2.77,10.08,2.73-9.82h6.12Z"/><path d="M145.53,446.13c-5.65,0-9.54-2.88-9.54-9.14,0-5.87,3.63-9.39,8.6-9.39,5.62,0,8,4.1,8,9.35a10.83,10.83,0,0,1-.11,1.73H142.33c.39,2.23,2,3,4.06,3a12.88,12.88,0,0,0,5.65-1.62l.58,4.25A14.25,14.25,0,0,1,145.53,446.13Zm-3.28-10.72h4.36c-.07-2.59-.9-3.89-2.2-3.89S142.29,432.82,142.25,435.41Z"/><path d="M155.14,445.77v-25l6.41-1v26Z"/><path d="M176,445.63c-1.66,4.86-3.93,6.69-8.21,6.69a8.57,8.57,0,0,1-2.48-.25l-.79-5a7.06,7.06,0,0,0,2.34.29,3.13,3.13,0,0,0,2.95-1.55l-6.45-17.35,7-.76,2.88,10L175.8,428h6.12Z"/><path d="M191.25,445.77V420.94h16.38v5.79h-9.18v3.42h7l.89,5.73h-7.84V440H208v5.79Z"/><path d="M220.66,445.77V435c0-1-.43-1.8-1.48-1.8a3.14,3.14,0,0,0-2.12,1.08v11.48h-6.41V428h5.76l.4,2.37c1.58-1.62,3.13-2.73,5.25-2.73,3.28,0,5,2,5,5.61v12.56Z"/><path d="M240.67,445.77l-.39-2.37c-1.58,1.62-3.13,2.73-5.26,2.73-3.27,0-5-2.05-5-5.61V428h6.41v10.76c0,1,.43,1.8,1.47,1.8a3.14,3.14,0,0,0,2.13-1.08V428h6.4v17.81Z"/><path d="M269.26,445.77V435c0-1-.4-1.8-1.41-1.8a3.17,3.17,0,0,0-2,1v11.52h-6.41V435c0-1-.39-1.8-1.4-1.8a3.17,3.17,0,0,0-2,1v11.52H249.6V428h5.76l.4,2.37c1.58-1.69,3.06-2.73,5.25-2.73a4.33,4.33,0,0,1,4.32,2.73c1.59-1.65,3.17-2.73,5.29-2.73,3.28,0,5.05,2,5.05,5.61v12.56Z"/><path d="M287.47,446.13c-5.65,0-9.53-2.88-9.53-9.14,0-5.87,3.63-9.39,8.6-9.39,5.61,0,8,4.1,8,9.35a10.83,10.83,0,0,1-.11,1.73H284.27c.4,2.23,2,3,4.07,3a12.88,12.88,0,0,0,5.65-1.62l.58,4.25A14.29,14.29,0,0,1,287.47,446.13Zm-3.27-10.72h4.35c-.07-2.59-.9-3.89-2.19-3.89S284.24,432.82,284.2,435.41Z"/><path d="M303.42,436.13v9.64H297V428h5.72l.57,3.49c1-2.09,2.27-3.67,4.79-3.85l1,6.58A10.55,10.55,0,0,0,303.42,436.13Z"/><path d="M319.84,445.77l-.36-2.16a7.15,7.15,0,0,1-5.33,2.52c-2.7,0-4.71-1.62-4.71-4.93,0-4.07,3-6.12,9.75-6.69v-.15c0-1.29-.68-1.94-2.41-1.94a14.14,14.14,0,0,0-5.58,1.26l-.72-4.68a19.63,19.63,0,0,1,7.38-1.33c5.15,0,7.74,1.58,7.74,6.37v11.73Zm-.61-8.56c-2.6.57-3.49,1.58-3.49,3a1.32,1.32,0,0,0,1.36,1.51,3.49,3.49,0,0,0,2.13-.9Z"/><path d="M336.58,446a22.24,22.24,0,0,1-8-1.33V420.79l6.41-1v10a6.33,6.33,0,0,1,4.54-2.23c3.56,0,6.11,2.73,6.11,8.78C345.68,443.07,342.19,446,336.58,446Zm.68-12.71a3.27,3.27,0,0,0-2.23,1.23v6.19a3.79,3.79,0,0,0,1.37.25c1.58,0,2.91-1,2.91-4.1C339.31,434.22,338.49,433.28,337.26,433.28Z"/><path d="M348.28,445.77v-25l6.41-1v26Z"/><path d="M366.67,446.13c-5.65,0-9.54-2.88-9.54-9.14,0-5.87,3.64-9.39,8.61-9.39,5.61,0,8,4.1,8,9.35a11.05,11.05,0,0,1-.1,1.73H363.47c.4,2.23,2,3,4.07,3a12.92,12.92,0,0,0,5.65-1.62l.57,4.25A14.22,14.22,0,0,1,366.67,446.13Zm-3.27-10.72h4.35c-.07-2.59-.9-3.89-2.19-3.89S363.43,432.82,363.4,435.41Z"/><path d="M383.92,445.77V420.94h7.38v18.57h7l1,6.26Z"/><path d="M410.92,445.77l-.36-2.16a7.18,7.18,0,0,1-5.33,2.52c-2.7,0-4.72-1.62-4.72-4.93,0-4.07,3-6.12,9.76-6.69v-.15c0-1.29-.69-1.94-2.41-1.94a14.14,14.14,0,0,0-5.58,1.26l-.72-4.68a19.63,19.63,0,0,1,7.38-1.33c5.14,0,7.74,1.58,7.74,6.37v11.73Zm-.62-8.56c-2.59.57-3.49,1.58-3.49,3a1.33,1.33,0,0,0,1.37,1.51,3.45,3.45,0,0,0,2.12-.9Z"/><path d="M429.71,445.77V435c0-1-.43-1.8-1.48-1.8a3.14,3.14,0,0,0-2.12,1.08v11.48H419.7V428h5.76l.4,2.37c1.58-1.62,3.13-2.73,5.25-2.73,3.28,0,5,2,5,5.61v12.56Z"/><path d="M446.23,452.32c-5.18,0-8.71-1.54-8.71-4.1,0-1.44.83-2.52,2.56-3.53a2.84,2.84,0,0,1-.9-2c0-1.23,1-2.41,3-3.53a5.29,5.29,0,0,1-3.45-5.07c0-3.93,3.17-6.41,7.74-6.41a9.4,9.4,0,0,1,5.87,1.8l4.06-1.69.76,4.53h-3.06a5.62,5.62,0,0,1,.21,1.48c0,3.88-3.41,6.15-7.63,6.15a14.22,14.22,0,0,1-1.76-.07,1.13,1.13,0,0,0-.29.68c0,.47.36.62,2.49.76l4.1.25c3.46.22,5.54,1.3,5.54,4C456.74,449.52,452.39,452.32,446.23,452.32ZM443,446a2.44,2.44,0,0,0-.51,1.41c0,1.15,1.16,1.94,4.29,1.94,2.59,0,4.14-.83,4.14-1.87,0-.76-.62-.94-2.27-1l-2.88-.18C444.47,446.13,443.86,446.06,443,446Zm3.49-14.72c-1.37,0-2.09,1.15-2.09,2.66s.72,2.53,2.09,2.53,2.16-1.05,2.16-2.6S447.89,431.23,446.52,431.23Z"/><path d="M469.42,445.77l-.4-2.37c-1.58,1.62-3.13,2.73-5.26,2.73-3.27,0-5-2.05-5-5.61V428h6.41v10.76c0,1,.43,1.8,1.47,1.8a3.14,3.14,0,0,0,2.13-1.08V428h6.4v17.81Z"/><path d="M488,445.77l-.37-2.16a7.14,7.14,0,0,1-5.32,2.52c-2.7,0-4.72-1.62-4.72-4.93,0-4.07,3-6.12,9.76-6.69v-.15c0-1.29-.69-1.94-2.41-1.94a14.14,14.14,0,0,0-5.58,1.26L478.6,429a19.63,19.63,0,0,1,7.38-1.33c5.14,0,7.73,1.58,7.73,6.37v11.73Zm-.62-8.56c-2.59.57-3.49,1.58-3.49,3a1.33,1.33,0,0,0,1.37,1.51,3.47,3.47,0,0,0,2.12-.9Z"/><path d="M503.79,452.32c-5.18,0-8.71-1.54-8.71-4.1,0-1.44.83-2.52,2.56-3.53a2.84,2.84,0,0,1-.9-2c0-1.23,1-2.41,3-3.53a5.28,5.28,0,0,1-3.46-5.07c0-3.93,3.17-6.41,7.74-6.41a9.4,9.4,0,0,1,5.87,1.8l4.07-1.69.75,4.53h-3.06a5.26,5.26,0,0,1,.22,1.48c0,3.88-3.42,6.15-7.63,6.15a14.39,14.39,0,0,1-1.77-.07,1.2,1.2,0,0,0-.29.68c0,.47.37.62,2.49.76l4.1.25c3.46.22,5.55,1.3,5.55,4C514.31,449.52,510,452.32,503.79,452.32Zm-3.2-6.37a2.42,2.42,0,0,0-.5,1.41c0,1.15,1.15,1.94,4.28,1.94,2.59,0,4.14-.83,4.14-1.87,0-.76-.61-.94-2.27-1l-2.88-.18C502,446.13,501.42,446.06,500.59,446Zm3.49-14.72c-1.37,0-2.08,1.15-2.08,2.66s.71,2.53,2.08,2.53,2.16-1.05,2.16-2.6S505.45,431.23,504.08,431.23Z"/><path d="M524.64,446.13c-5.65,0-9.54-2.88-9.54-9.14,0-5.87,3.64-9.39,8.6-9.39,5.62,0,8,4.1,8,9.35a10.83,10.83,0,0,1-.11,1.73H521.43c.4,2.23,2,3,4.07,3a12.88,12.88,0,0,0,5.65-1.62l.58,4.25A14.25,14.25,0,0,1,524.64,446.13Zm-3.28-10.72h4.36c-.07-2.59-.9-3.89-2.2-3.89S521.4,432.82,521.36,435.41Z"/><path d="M10.1,488.06a22.84,22.84,0,0,1-9.43-2l1.08-6a20.38,20.38,0,0,0,8.46,2.38c1.44,0,2.37-.51,2.37-1.59s-.61-1.55-4-2.73c-5.08-1.8-7.38-3.46-7.38-7.81,0-5.12,4-7.67,8.89-7.67a17.49,17.49,0,0,1,8.24,1.76l-1.08,6a15.75,15.75,0,0,0-7-2.13c-1.47,0-2.19.51-2.19,1.37s.57,1.48,3.38,2.41c5.65,1.88,8,3.85,8,7.92C19.42,485.83,15.14,488.06,10.1,488.06Z"/><path d="M31,488.13c-5.22,0-9-4-9-9.79s3.78-9.82,9-9.82,9,4,9,9.79S36.3,488.13,31,488.13Zm0-14.75c-1.94,0-2.92,2.12-2.92,5s1,5,2.92,5,2.88-2.12,2.88-5S33,473.38,31.05,473.38Z"/><path d="M51.53,488.13c-5.18,0-8.13-2.59-8.13-7.81V468.88h6.05v11.59c0,1.62.43,2.66,2.12,2.66s2.16-1,2.16-2.66V468.88h6.08v11.44C59.81,485.54,56.72,488.13,51.53,488.13Z"/><path d="M75.54,487.77,69.42,478v9.75h-5.5V468.88h5.69l5.57,8.92v-8.92h5.51v18.89Z"/><path d="M92.32,487.77H84.91V468.88h7.23c6.55,0,9.83,3.63,9.83,9.43C102,483.92,98.37,487.77,92.32,487.77Zm-.4-14.18H91v9.47H92c2.27,0,3.67-1.48,3.67-4.72S94.37,473.59,91.92,473.59Z"/><path d="M126.77,469.06v18.71h-7.38V469.06h-6.66v-6.12h20l1,6.12Z"/><path d="M145.56,488.13l-3.09-5.54h-1.26v5.18h-6.05V468.88h8c5.43,0,7.95,2.59,7.95,6.44a6.12,6.12,0,0,1-3.06,5.36l3.89,6.41Zm-3.09-14.83h-1.33v4.83h1.22c1.87,0,2.81-.83,2.81-2.52S144.09,473.3,142.47,473.3Z"/><path d="M153.16,487.77l6.05-19h8L173,487l-6,1-1-3.57h-6.08l-.9,3.31ZM161,480h3.89l-2-6.94Z"/><path d="M187.29,487.77,181.17,478v9.75h-5.51V468.88h5.69l5.58,8.92v-8.92h5.5v18.89Z"/><path d="M203.42,488.06a22.94,22.94,0,0,1-7.6-1.37l.9-4.78a22.45,22.45,0,0,0,6.66,1.54c1.62,0,2.09-.39,2.09-1s-.43-1-2.05-1.44c-4.47-1.19-7-2.38-7-6.23s2.88-6.15,7.13-6.15a16.86,16.86,0,0,1,6.59,1.29l-.83,4.65a16.46,16.46,0,0,0-5.69-1.33c-1.19,0-1.69.46-1.69,1s.4,1,2.09,1.47c5,1.37,7,2.56,7,6.05C211.05,485.65,208.06,488.06,203.42,488.06Z"/><path d="M232.36,487.77l-.61-13.21-2.92,13.21h-6.05l-2.95-13.21-.58,13.21h-5.14l1.11-18.89h8.36L226.17,480l2.59-11.08h8.42l1.15,18.89Z"/><path d="M242.33,487.77V468.88h6.09v18.89Z"/><path d="M259.5,488.06a22.87,22.87,0,0,1-7.59-1.37l.9-4.78a22.31,22.31,0,0,0,6.66,1.54c1.62,0,2.08-.39,2.08-1s-.43-1-2.05-1.44c-4.46-1.19-7-2.38-7-6.23s2.88-6.15,7.13-6.15a16.76,16.76,0,0,1,6.58,1.29l-.82,4.65a16.51,16.51,0,0,0-5.69-1.33c-1.19,0-1.69.46-1.69,1s.39,1,2.08,1.47c5,1.37,7,2.56,7,6.05C267.13,485.65,264.15,488.06,259.5,488.06Z"/><path d="M277.29,488.06a22.94,22.94,0,0,1-7.6-1.37l.9-4.78a22.45,22.45,0,0,0,6.66,1.54c1.62,0,2.09-.39,2.09-1s-.43-1-2-1.44c-4.47-1.19-7-2.38-7-6.23s2.88-6.15,7.13-6.15a16.86,16.86,0,0,1,6.59,1.29l-.83,4.65a16.46,16.46,0,0,0-5.69-1.33c-1.18,0-1.69.46-1.69,1s.4,1,2.09,1.47c5,1.37,7,2.56,7,6.05C284.92,485.65,281.93,488.06,277.29,488.06Z"/><path d="M288.41,487.77V468.88h6.09v18.89Z"/><path d="M307,488.13c-5.22,0-9-4-9-9.79s3.78-9.82,9-9.82,9,4,9,9.79S312.31,488.13,307,488.13Zm0-14.75c-1.95,0-2.92,2.12-2.92,5s1,5,2.92,5,2.88-2.12,2.88-5S309,473.38,307.06,473.38Z"/><path d="M331.14,487.77,325,478v9.75h-5.51V468.88h5.69l5.58,8.92v-8.92h5.51v18.89Z"/><path d="M360.48,488.17c-7.74,0-12.31-5-12.31-12.78s4.93-12.85,12.06-12.85a15.46,15.46,0,0,1,6.77,1.4l-1,6.45a8.54,8.54,0,0,0-5.11-1.84c-3.17,0-5.37,2.45-5.37,6.81,0,4.53,2.63,6.8,5.87,6.8a11,11,0,0,0,5-1.41l.94,5.84A15.13,15.13,0,0,1,360.48,488.17Z"/><path d="M378.84,488.13c-5.22,0-9-4-9-9.79s3.78-9.82,9-9.82,9,4,9,9.79S384.13,488.13,378.84,488.13Zm0-14.75c-1.95,0-2.92,2.12-2.92,5s1,5,2.92,5,2.88-2.12,2.88-5S380.82,473.38,378.88,473.38Z"/><path d="M391.33,487.77V468.88h13.29v4.5h-7.28V476h5.33l.65,4.43h-6v2.8h7.49v4.5Z"/><path d="M414.48,473.48v3h5.15l.68,4.64h-5.83v6.62h-6V468.88h13.07v4.6Z"/><path d="M430.93,473.48v3h5.15l.68,4.64h-5.83v6.62h-6V468.88H438v4.6Z"/><path d="M441.48,487.77V468.88h6.08v18.89Z"/><path d="M460.67,488.1c-5.8,0-9.58-3.46-9.58-9.76s4.18-9.79,9.33-9.79a11,11,0,0,1,5.14,1.08l-.75,5.29a6.08,6.08,0,0,0-3.46-1.18c-2.12,0-3.92,1.29-3.92,4.6s1.91,4.61,4,4.61a7.79,7.79,0,0,0,3.71-1l.72,4.93A11.74,11.74,0,0,1,460.67,488.1Z"/><path d="M469.42,487.77V468.88h6.08v18.89Z"/><path d="M479.82,487.77V468.88H493.1v4.5h-7.27V476h5.33l.65,4.43h-6v2.8h7.49v4.5Z"/><path d="M508.58,487.77,502.46,478v9.75H497V468.88h5.68l5.58,8.92v-8.92h5.51v18.89Z"/><path d="M528.09,474.09v13.68h-6.4V474.09H517v-5.21h15.48l.76,5.21Z"/></svg>