<svg id="Layer_1" data-name="Layer 1" xmlns="http://www.w3.org/2000/svg" viewBox="0 0 700 700"><path d="M91.72,129.6a13.71,13.71,0,0,1-6.33-1.47l.25-1.77a12.08,12.08,0,0,0,6.19,1.69c3.17,0,5.69-1.94,5.69-5,0-2.59-1.44-4.06-5.22-5.68-4.83-2-6.52-3.71-6.52-7.09s3-6,6.77-6a10.72,10.72,0,0,1,5.36,1.22l-.25,1.73a10,10,0,0,0-5.18-1.4c-3,0-4.93,2-4.93,4.42s1.4,3.75,5.29,5.4c4.42,1.88,6.48,3.78,6.48,7.35C99.32,127.12,95.83,129.6,91.72,129.6Z"/><path d="M105.47,107.82a1.53,1.53,0,0,1-1.47-1.47,1.47,1.47,0,0,1,1.47-1.44,1.44,1.44,0,0,1,1.44,1.44A1.49,1.49,0,0,1,105.47,107.82Zm-.82,21.49V112.4h1.65v16.91Z"/><path d="M123.76,129.31V117.54c0-2.55-1.22-4-3.64-4-1.87,0-3.81,1.08-5.94,3.06v12.67h-1.69V112.4h1.23l.43,2.55c2-1.8,3.92-2.91,6.15-2.91,3.5,0,5.15,2,5.15,5.36v11.91Z"/><path d="M136.79,135.72c-4.32,0-7.56-1.55-7.56-4.39,0-1.69,1.41-3.35,4.11-4.61-1-.5-1.44-1.11-1.44-1.8,0-.9.57-1.51,1.65-2.19a5.42,5.42,0,0,1-3.09-5c0-3.52,2.91-5.68,6.08-5.68a6.45,6.45,0,0,1,4.21,1.44l4.18-1.37.32,1.87-3.63.4a5.3,5.3,0,0,1,1.15,3.34c0,3.53-2.88,5.69-6.16,5.69a6.1,6.1,0,0,1-1.62-.18c-1,.54-1.37.94-1.37,1.37,0,.75.76,1.08,4,1.69l1.3.25c3.89.76,5.79,1.84,5.79,4.21C144.67,133.81,141.15,135.72,136.79,135.72Zm-1.91-8.39c-2.66,1.12-3.92,2.42-3.92,3.93,0,2.05,2.66,3.09,6,3.09,3.56,0,6-1.47,6-3.38,0-1.55-1.29-2.27-4.78-2.95l-1.3-.25C136.07,127.62,135.46,127.48,134.88,127.33Zm1.66-14a4.14,4.14,0,0,0-4.36,4.35,4.45,4.45,0,0,0,8.9,0A4.33,4.33,0,0,0,136.54,113.37Z"/><path d="M149.5,129.31V103.94l1.66-.36v25.73Z"/><path d="M163.72,129.67c-4.46,0-7.45-3.31-7.45-8.82s3.09-8.81,7.2-8.81c4.32,0,6.48,3.78,6.48,8.46v.35H158c0,4.32,2,7.35,5.79,7.35a9.2,9.2,0,0,0,5.87-2.59l.25,1.58A9.45,9.45,0,0,1,163.72,129.67Zm-5.65-10.22h10.11c-.1-3.31-1.76-6-4.71-6C160.26,113.44,158.43,115.92,158.07,119.45Z"/><path d="M174.2,120.06v-1.8h8.64v1.8Z"/><path d="M188.81,129.31V104.48h12.57V106H190.54v9.51h8.71l.22,1.55h-8.93v10.69h11.19v1.54Z"/><path d="M206.63,129.31V103.94l1.66-.36v25.73Z"/><path d="M220.85,129.67c-4.46,0-7.45-3.31-7.45-8.82s3.1-8.81,7.2-8.81c4.32,0,6.48,3.78,6.48,8.46v.35h-12c0,4.32,2,7.35,5.79,7.35a9.2,9.2,0,0,0,5.87-2.59l.25,1.58A9.45,9.45,0,0,1,220.85,129.67Zm-5.65-10.22h10.11c-.1-3.31-1.76-6-4.71-6C217.4,113.44,215.56,115.92,215.2,119.45Z"/><path d="M238.27,129.67c-4.13,0-7.45-3.24-7.45-8.82s3.35-8.81,7.56-8.81a9,9,0,0,1,5.47,1.87l-.32,1.73a7.68,7.68,0,0,0-5.22-2.13c-3.6,0-5.72,3-5.72,7.34s2,7.35,5.87,7.35a7.89,7.89,0,0,0,5.29-2.16l.21,1.58A8.58,8.58,0,0,1,238.27,129.67Z"/><path d="M253.43,129.6c-2.41,0-4-1-4-3.85V113.84h-2.62V112.4h2.62v-6l1.7-.36v6.38h4.14l.21,1.44h-4.35v11.62c0,2,.79,2.67,2.66,2.67a7.41,7.41,0,0,0,1.69-.26l.25,1.37A6.92,6.92,0,0,1,253.43,129.6Z"/><path d="M262,118.19v11.12h-1.69V112.4h1.11l.54,3.52c1.3-1.9,3.28-3.85,6.09-3.88l.28,1.58A8.18,8.18,0,0,0,262,118.19Z"/><path d="M278,129.67c-4.22,0-7.46-3.24-7.46-8.82S273.84,112,278,112s7.48,3.2,7.48,8.81S282.08,129.67,278,129.67Zm0-16.16c-3.68,0-5.69,3-5.69,7.34s2.05,7.35,5.69,7.35,5.72-2.95,5.72-7.35C283.67,116.61,281.62,113.51,278,113.51Z"/><path d="M301.56,129.31V117.54c0-2.55-1.22-4-3.63-4-1.88,0-3.82,1.08-5.94,3.06v12.67h-1.7V112.4h1.23L292,115c2.05-1.8,3.92-2.91,6.16-2.91,3.49,0,5.14,2,5.14,5.36v11.91Z"/><path d="M325.43,106v23.29H323.7V106h-8.06v-1.54h17.74l.22,1.54Z"/><path d="M335.11,118.19v11.12h-1.69V112.4h1.12l.54,3.52c1.29-1.9,3.27-3.85,6.08-3.88l.29,1.58A8.22,8.22,0,0,0,335.11,118.19Z"/><path d="M355.09,129.31l-.39-2.26a9.44,9.44,0,0,1-6,2.62c-2.84,0-5.11-1.44-5.11-4.5,0-3.78,2.88-5.79,11-6.55v-1.47c0-2.38-1.4-3.53-3.74-3.53a12.65,12.65,0,0,0-5.79,1.51l-.22-1.58a14.34,14.34,0,0,1,6.08-1.48c3.46,0,5.33,1.77,5.33,5v12.23Zm-.47-9.28c-7,.75-9.28,2.23-9.28,5,0,2.16,1.55,3.17,3.45,3.17a9.65,9.65,0,0,0,5.83-2.7Z"/><path d="M373.31,129.31V117.54c0-2.55-1.23-4-3.64-4-1.87,0-3.81,1.08-5.94,3.06v12.67H362V112.4h1.22l.44,2.55c2.05-1.8,3.92-2.91,6.15-2.91,3.49,0,5.15,2,5.15,5.36v11.91Z"/><path d="M385.51,129.6a13.06,13.06,0,0,1-6-1.51l.33-1.66a12,12,0,0,0,5.86,1.66c2.52,0,4.18-1.12,4.18-3.1,0-1.76-1.05-2.66-4.68-3.67s-5.19-2.19-5.19-4.78,2.24-4.47,5.58-4.47a11.18,11.18,0,0,1,5,1.15l-.29,1.62a10.36,10.36,0,0,0-4.75-1.22c-2.66,0-3.85,1.26-3.85,2.81s1,2.37,4,3.2c3.85,1,5.83,2.38,5.83,5.22C391.52,127.91,389,129.6,385.51,129.6Z"/><path d="M401.78,105.09c-1.72,0-2.77.86-2.77,3v4.36h3.57l.25,1.44H399v15.47h-1.65V113.84h-2.63V112.4h2.63V108c0-2.92,1.54-4.43,4.35-4.43a8.66,8.66,0,0,1,1.12,0l.25,1.62A4.92,4.92,0,0,0,401.78,105.09Z"/><path d="M412.76,129.67c-4.46,0-7.45-3.31-7.45-8.82s3.1-8.81,7.2-8.81c4.32,0,6.48,3.78,6.48,8.46v.35H407c0,4.32,2,7.35,5.8,7.35a9.15,9.15,0,0,0,5.86-2.59l.26,1.58A9.45,9.45,0,0,1,412.76,129.67Zm-5.65-10.22h10.12c-.11-3.31-1.77-6-4.72-6C409.31,113.44,407.47,115.92,407.11,119.45Z"/><path d="M425.54,118.19v11.12h-1.69V112.4H425l.54,3.52c1.29-1.9,3.27-3.85,6.08-3.88l.29,1.58A8.22,8.22,0,0,0,425.54,118.19Z"/><path d="M469.17,129.31,467.48,107l-9.25,22.5h-1.44L447.54,107l-1.69,22.35h-1.66l2-24.83h2.12l9.22,22.71,9.25-22.71h2.08l2,24.83Z"/><path d="M483.29,129.67c-4.47,0-7.45-3.31-7.45-8.82S478.93,112,483,112c4.31,0,6.47,3.78,6.47,8.46v.35H477.56c0,4.32,2,7.35,5.8,7.35a9.2,9.2,0,0,0,5.87-2.59l.25,1.58A9.45,9.45,0,0,1,483.29,129.67Zm-5.65-10.22h10.11c-.11-3.31-1.76-6-4.71-6C479.83,113.44,478,115.92,477.64,119.45Z"/><path d="M500.71,129.67c-4.14,0-7.45-3.24-7.45-8.82s3.35-8.81,7.56-8.81a9,9,0,0,1,5.47,1.87l-.32,1.73a7.69,7.69,0,0,0-5.22-2.13c-3.6,0-5.73,3-5.73,7.34s2.06,7.35,5.87,7.35a7.86,7.86,0,0,0,5.29-2.16l.22,1.58A8.58,8.58,0,0,1,500.71,129.67Z"/><path d="M522.35,129.31V117.54c0-2.55-1.23-4-3.64-4-1.87,0-3.82,1.08-5.94,3.06v12.67h-1.69V103.94l1.69-.36v11.34c2.05-1.77,3.89-2.88,6.12-2.88,3.49,0,5.15,1.94,5.15,5.29v12Z"/><path d="M540.17,129.31l-.4-2.26a9.4,9.4,0,0,1-6,2.62c-2.84,0-5.11-1.44-5.11-4.5,0-3.78,2.88-5.79,11-6.55v-1.47c0-2.38-1.41-3.53-3.75-3.53a12.65,12.65,0,0,0-5.79,1.51l-.22-1.58a14.35,14.35,0,0,1,6.09-1.48c3.45,0,5.32,1.77,5.32,5v12.23ZM539.7,120c-7,.75-9.29,2.23-9.29,5,0,2.16,1.55,3.17,3.46,3.17a9.68,9.68,0,0,0,5.83-2.7Z"/><path d="M558.38,129.31V117.54c0-2.55-1.22-4-3.63-4-1.88,0-3.82,1.08-5.94,3.06v12.67h-1.7V112.4h1.23l.43,2.55c2.05-1.8,3.92-2.91,6.16-2.91,3.49,0,5.14,2,5.14,5.36v11.91Z"/><path d="M566.91,107.82a1.53,1.53,0,0,1-1.47-1.47,1.47,1.47,0,0,1,1.47-1.44,1.44,1.44,0,0,1,1.44,1.44A1.49,1.49,0,0,1,566.91,107.82Zm-.82,21.49V112.4h1.65v16.91Z"/><path d="M578.69,129.6a13.14,13.14,0,0,1-6-1.51l.33-1.66a12,12,0,0,0,5.87,1.66c2.51,0,4.17-1.12,4.17-3.1,0-1.76-1-2.66-4.68-3.67s-5.18-2.19-5.18-4.78,2.23-4.47,5.58-4.47a11.1,11.1,0,0,1,5,1.15l-.28,1.62a10.42,10.42,0,0,0-4.75-1.22c-2.67,0-3.86,1.26-3.86,2.81s1,2.37,4,3.2c3.85,1,5.83,2.38,5.83,5.22C584.7,127.91,582.21,129.6,578.69,129.6Z"/><path d="M611.69,129.31V117.54c0-2.55-1.11-4-3.56-4-1.8,0-3.71,1-5.83,3v12.74h-1.66V117.54c0-2.55-1.11-4-3.56-4-1.8,0-3.74,1-5.83,3v12.77h-1.69V112.4h1.22l.43,2.44c2-1.72,3.85-2.8,6-2.8,2.66,0,4.18,1.08,4.75,3.06,2.13-1.88,4-3.06,6.34-3.06,3.49,0,5,1.94,5,5.29v12Z"/><path d="M92.57,171.31H87V146.48h5.55c4.82,0,7.38,2.37,7.38,6a6,6,0,0,1-4,5.65c3.09.83,5.07,2.74,5.07,6.12C101.06,168.79,97.53,171.31,92.57,171.31ZM92.5,148H88.75v9.54h3.78c3.74,0,5.65-2.3,5.65-5S96.2,148,92.5,148Zm.07,11H88.75v10.73h4c4,0,6.59-2.06,6.59-5.33C99.3,160.66,96.56,159,92.57,159Z"/><path d="M105.06,171.31l7.31-18.39h1.76l7.31,18.21-1.69.36-2.38-6.15h-8.24l-2.34,6Zm4.64-7.45h7.09l-3.52-9.1Z"/><path d="M126.48,171.31V153.14h1.69V169.8h7.06l.21,1.51Z"/><path d="M138.5,171.31l7.31-18.39h1.76l7.31,18.21-1.69.36-2.38-6.15h-8.24l-2.34,6Zm4.65-7.45h7.09l-3.53-9.1Z"/><path d="M172.05,171.31l-10.54-15.65v15.65h-1.59V153.14h1.8L172,168.29V153.14h1.58v18.17Z"/><path d="M187.68,171.64c-4.83,0-8.14-3.85-8.14-9.4s3.39-9.43,8.25-9.43a8.43,8.43,0,0,1,5.18,1.55l-.25,1.73a7.73,7.73,0,0,0-5-1.77c-3.89,0-6.52,3.32-6.52,7.89s2.63,7.92,6.52,7.92a8.66,8.66,0,0,0,5.29-1.91l.22,1.62A9.47,9.47,0,0,1,187.68,171.64Z"/><path d="M198.62,171.31V153.14h10.51v1.51h-8.82v6.4h7.2l.33,1.52h-7.53v7.23h9.11v1.51Z"/><path d="M220.08,171.31h-4.79V153.14h4.82c6,0,9.47,3.63,9.47,9.07S225.87,171.31,220.08,171.31Zm.1-16.66H217V169.8h3.2c4.68,0,7.71-2.55,7.71-7.59S224.76,154.65,220.18,154.65Z"/><path d="M255.32,171.78c-6.88,0-11.34-5.29-11.34-12.85S248.62,146,255.14,146a12.11,12.11,0,0,1,7.2,2.16L262,150a10.64,10.64,0,0,0-6.91-2.48c-5.61,0-9.32,4.57-9.32,11.34s3.67,11.33,9.61,11.33a10.63,10.63,0,0,0,6.19-1.83v-8.14h-6.19l-.25-1.55h8.17v10.48A13.67,13.67,0,0,1,255.32,171.78Z"/><path d="M281.2,171.49l-5.76-7.88h-3.2v7.7h-1.69V153.14h4.79c4.28,0,6.58,2.05,6.58,5.11,0,2.7-1.76,4.57-4.57,5.18l5.69,7.7Zm-6-16.84h-2.95v7.48h3c3.46,0,4.94-1.69,4.94-3.81C280.2,156,278.65,154.65,275.19,154.65Z"/><path d="M295.39,171.64c-4.83,0-8.14-3.85-8.14-9.4s3.39-9.43,8.17-9.43,8.21,3.82,8.21,9.4S300.21,171.64,295.39,171.64Zm0-17.32c-3.92,0-6.48,3.21-6.48,7.89s2.6,7.92,6.48,7.92,6.52-3.14,6.52-7.92S299.38,154.32,295.42,154.32Z"/><path d="M316.09,171.6c-4.25,0-6.7-2.88-6.7-7V153.14H311v11.15c0,3.42,1.73,5.8,5.08,5.8s5.14-2.2,5.14-5.65v-11.3h1.7V164.4C322.93,168.79,320.33,171.6,316.09,171.6Z"/><path d="M342,171.31l-10.55-15.65v15.65h-1.58V153.14h1.8l10.22,15.15V153.14h1.59v18.17Z"/><path d="M355.4,171.31h-4.79V153.14h4.82c6.05,0,9.47,3.63,9.47,9.07S361.19,171.31,355.4,171.31Zm.11-16.66H352.3V169.8h3.21c4.68,0,7.7-2.55,7.7-7.59S360.08,154.65,355.51,154.65Z"/><path d="M388.12,171.42h-1.58l-5.26-15.58L376,171.42h-1.59L369,153.28l1.66-.36L375.34,169l5.26-15.91H382L387.26,169l4.6-15.83h1.7Z"/><path d="M396.51,171.31l7.31-18.39h1.76l7.31,18.21-1.69.36-2.38-6.15h-8.24l-2.34,6Zm4.64-7.45h7.1l-3.53-9.1Z"/><path d="M422.75,154.65v16.66h-1.69V154.65h-6.19v-1.51h14l.21,1.51Z"/><path d="M433.77,171.31V153.14h10.51v1.51h-8.82v6.4h7.2l.33,1.52h-7.53v7.23h9.11v1.51Z"/><path d="M461.09,171.49l-5.76-7.88h-3.2v7.7h-1.69V153.14h4.79c4.28,0,6.58,2.05,6.58,5.11,0,2.7-1.76,4.57-4.57,5.18l5.69,7.7Zm-6-16.84h-2.95v7.48h3c3.46,0,4.93-1.69,4.93-3.81C460.08,156,458.54,154.65,455.08,154.65Z"/><path d="M483.12,171.6a13.71,13.71,0,0,1-6.33-1.47l.25-1.77a12.14,12.14,0,0,0,6.19,1.69c3.17,0,5.69-1.94,5.69-5,0-2.59-1.44-4.06-5.22-5.68-4.82-2.05-6.51-3.71-6.51-7.09,0-3.53,3-6.05,6.76-6.05a10.76,10.76,0,0,1,5.37,1.22l-.26,1.73a10,10,0,0,0-5.18-1.4c-3,0-4.93,2-4.93,4.42s1.4,3.75,5.29,5.4c4.43,1.88,6.48,3.78,6.48,7.35C490.72,169.12,487.23,171.6,483.12,171.6Z"/><path d="M503.83,171.64c-4.83,0-8.14-3.85-8.14-9.4s3.38-9.43,8.24-9.43a8.46,8.46,0,0,1,5.19,1.55l-.26,1.73a7.7,7.7,0,0,0-5-1.77c-3.89,0-6.52,3.32-6.52,7.89s2.63,7.92,6.52,7.92a8.66,8.66,0,0,0,5.29-1.91l.21,1.62A9.42,9.42,0,0,1,503.83,171.64Z"/><path d="M514.77,171.31V153.14h10.51v1.51h-8.82v6.4h7.2l.32,1.52h-7.52v7.23h9.11v1.51Z"/><path d="M543.57,171.31,533,155.66v15.65h-1.58V153.14h1.8l10.22,15.15V153.14H545v18.17Z"/><path d="M550.05,171.31l7.31-18.39h1.76l7.31,18.21-1.69.36-2.38-6.15h-8.24l-2.34,6Zm4.64-7.45h7.09l-3.52-9.1Z"/><path d="M582.12,171.49l-5.76-7.88h-3.2v7.7h-1.69V153.14h4.79c4.28,0,6.58,2.05,6.58,5.11,0,2.7-1.76,4.57-4.57,5.18l5.69,7.7Zm-6-16.84h-3v7.48h3c3.46,0,4.94-1.69,4.94-3.81C581.12,156,579.57,154.65,576.11,154.65Z"/><path d="M589.5,171.31V153.14h1.7v18.17Z"/><path d="M605.49,171.64c-4.83,0-8.14-3.85-8.14-9.4s3.39-9.43,8.17-9.43,8.21,3.82,8.21,9.4S610.31,171.64,605.49,171.64Zm0-17.32c-3.92,0-6.48,3.21-6.48,7.89s2.59,7.92,6.48,7.92S612,167,612,162.21,609.48,154.32,605.52,154.32Z"/><path d="M86.27,213.31V188.48h2.48v24.83Z"/><path d="M106.17,213.31V201.58c0-2.2-1-3.53-3.16-3.53-1.8,0-3.64,1.12-5.51,2.95v12.31H95.12v-17H97l.39,2.52c1.88-1.66,3.82-2.88,6.12-2.88,3.39,0,5.08,1.94,5.08,5.22v12.16Z"/><path d="M119.21,213.6c-2.67,0-4.43-1-4.43-4.17V198.3h-2.63v-2h2.63v-5.91l2.34-.39v6.3H121l.33,2h-4.25V209c0,1.73.68,2.48,2.52,2.48a8.72,8.72,0,0,0,1.58-.18l.36,2A8.9,8.9,0,0,1,119.21,213.6Z"/><path d="M132.31,213.67c-4.46,0-7.67-3-7.67-8.89,0-5.47,3.17-8.85,7.35-8.85,4.64,0,6.87,3.81,6.87,8.53v.5H127c.07,4.21,2,6.66,5.43,6.66a9.2,9.2,0,0,0,6-2.52l.36,2.16A9.88,9.88,0,0,1,132.31,213.67Zm-5.18-10.58h9.28c-.21-3.06-1.69-5.25-4.42-5.25S127.56,199.82,127.13,203.09Z"/><path d="M149.19,219.79c-4.39,0-7.77-1.47-7.77-4.42,0-1.73,1.33-3.21,3.89-4.5a2.2,2.2,0,0,1-1.26-1.8c0-.87.57-1.59,1.69-2.27a5.53,5.53,0,0,1-3.13-5.08c0-3.6,3-5.79,6.3-5.79a6.67,6.67,0,0,1,4.31,1.44l4.25-1.37.4,2.34-3.42.36a5.38,5.38,0,0,1,.9,3c0,3.6-3,5.8-6.37,5.8a7,7,0,0,1-1.51-.15c-.72.4-1.08.83-1.08,1.23,0,.68.68.93,3.81,1.51l1.26.25c3.78.69,5.83,1.8,5.83,4.32C157.29,218,153.58,219.79,149.19,219.79Zm-2-8.17c-2.34,1.08-3.42,2.23-3.42,3.6,0,1.77,2.23,2.77,5.58,2.77s5.68-1.33,5.68-3c0-1.33-1.07-2.05-4.1-2.63l-1.65-.29C148.4,211.87,147.83,211.8,147.18,211.62Zm1.73-13.93a4,4,0,1,0,4.1,4A3.94,3.94,0,0,0,148.91,197.69Z"/><path d="M163.81,202.62v10.69h-2.38v-17h1.77l.54,3.49a7.63,7.63,0,0,1,6-3.85l.39,2.23A8.09,8.09,0,0,0,163.81,202.62Z"/><path d="M183.57,213.31l-.39-2.26a8.8,8.8,0,0,1-6,2.62c-3,0-5.08-1.62-5.08-4.64,0-4,3.24-5.87,10.94-6.62v-1.12c0-2.3-1.36-3.27-3.53-3.27a13.63,13.63,0,0,0-5.86,1.51l-.33-2.13a15.27,15.27,0,0,1,6.34-1.47c3.78,0,5.72,1.76,5.72,5.25v12.13Zm-.54-9c-6.69.68-8.56,2.3-8.56,4.61,0,1.83,1.26,2.77,3.06,2.77a8.53,8.53,0,0,0,5.5-2.56Z"/><path d="M196,213.6c-2.66,0-4.43-1-4.43-4.17V198.3H189v-2h2.63v-5.91l2.34-.39v6.3h3.93l.32,2h-4.25V209c0,1.73.68,2.48,2.52,2.48a8.72,8.72,0,0,0,1.58-.18l.37,2A9,9,0,0,1,196,213.6Z"/><path d="M204.09,192.22a1.73,1.73,0,1,1,1.7-1.73A1.72,1.72,0,0,1,204.09,192.22Zm-1.18,21.09v-17h2.34v17Z"/><path d="M217.63,213.67c-4.36,0-7.63-3.24-7.63-8.85s3.34-8.89,7.63-8.89,7.74,3.24,7.74,8.89S222,213.67,217.63,213.67Zm0-15.73c-3.39,0-5.22,2.85-5.22,6.88s1.87,6.84,5.22,6.84,5.29-2.81,5.29-6.84S221.05,197.94,217.63,197.94Z"/><path d="M240.92,213.31V201.58c0-2.2-1-3.53-3.17-3.53-1.8,0-3.63,1.12-5.5,2.95v12.31h-2.38v-17h1.84l.39,2.52c1.87-1.66,3.82-2.88,6.12-2.88,3.38,0,5.07,1.94,5.07,5.22v12.16Z"/><path d="M258.27,192.22a1.73,1.73,0,1,1,0-3.46,1.73,1.73,0,0,1,0,3.46Zm-1.19,21.09v-17h2.34v17Z"/><path d="M276.27,213.31V201.58c0-2.2-1-3.53-3.17-3.53-1.8,0-3.63,1.12-5.5,2.95v12.31h-2.38v-17h1.84l.39,2.52c1.87-1.66,3.82-2.88,6.12-2.88,3.39,0,5.08,1.94,5.08,5.22v12.16Z"/><path d="M298.2,213.6a14.24,14.24,0,0,1-6.59-1.55l.36-2.52a12,12,0,0,0,6.33,1.88c2.92,0,5.12-1.66,5.12-4.47,0-2.44-1.23-3.67-5-5.32-4.75-2.09-6.48-3.68-6.48-7.17,0-3.74,3-6.26,7.13-6.26a10.92,10.92,0,0,1,5.47,1.29l-.36,2.49a9.2,9.2,0,0,0-5.22-1.59c-2.91,0-4.53,1.77-4.53,3.93s1.18,3.31,5,5c4.61,2,6.48,3.82,6.48,7.45C305.9,211,302.55,213.6,298.2,213.6Z"/><path d="M317.42,213.53a11.59,11.59,0,0,1-4.43-.83v6.8l-2.37.4V196.29h1.83l.4,2.45a7.12,7.12,0,0,1,5.5-2.81c3.71,0,6.84,2.7,6.84,8.38C325.19,210.54,321.56,213.53,317.42,213.53Zm.68-15.48c-2,0-3.56,1.19-5.11,3.06v9.4a9.35,9.35,0,0,0,4.36,1c3.06,0,5.43-2.34,5.43-7.09C322.78,200.28,320.8,198.05,318.1,198.05Z"/><path d="M340.78,213.31V201.58c0-2.2-1-3.53-3.17-3.53-1.8,0-3.63,1.12-5.5,2.95v12.31h-2.38V187.9l2.38-.43V198.7c1.76-1.55,3.67-2.77,6-2.77,3.39,0,5.08,1.94,5.08,5.18v12.2Z"/><path d="M355.18,213.67c-4.46,0-7.66-3-7.66-8.89,0-5.47,3.16-8.85,7.34-8.85,4.64,0,6.87,3.81,6.87,8.53v.5H349.89c.07,4.21,2,6.66,5.44,6.66a9.24,9.24,0,0,0,6-2.52l.36,2.16A9.91,9.91,0,0,1,355.18,213.67ZM350,203.09h9.29c-.22-3.06-1.7-5.25-4.43-5.25S350.43,199.82,350,203.09Z"/><path d="M368.61,202.62v10.69h-2.37v-17H368l.54,3.49a7.63,7.63,0,0,1,6-3.85l.39,2.23A8.09,8.09,0,0,0,368.61,202.62Z"/><path d="M380.06,192.22a1.73,1.73,0,0,1,0-3.46,1.73,1.73,0,0,1,0,3.46Zm-1.19,21.09v-17h2.34v17Z"/><path d="M393.7,213.67c-4.32,0-7.67-3.24-7.67-8.85s3.46-8.89,7.78-8.89a9.3,9.3,0,0,1,5.54,1.73L399,200a7.79,7.79,0,0,0-5.22-2.05c-3.24,0-5.29,2.63-5.29,6.8s2.08,6.81,5.54,6.81a7.48,7.48,0,0,0,5.18-2l.33,2.16A9,9,0,0,1,393.7,213.67Z"/><path d="M414.26,213.31l-.4-2.26a8.77,8.77,0,0,1-6,2.62c-3,0-5.08-1.62-5.08-4.64,0-4,3.24-5.87,11-6.62v-1.12c0-2.3-1.37-3.27-3.53-3.27a13.64,13.64,0,0,0-5.87,1.51L404,197.4a15.22,15.22,0,0,1,6.33-1.47c3.78,0,5.73,1.76,5.73,5.25v12.13Zm-.54-9c-6.7.68-8.57,2.3-8.57,4.61,0,1.83,1.26,2.77,3.06,2.77a8.58,8.58,0,0,0,5.51-2.56Z"/><path d="M421.71,213.31V187.9l2.34-.43v25.84Z"/><path d="M448.71,213.78c-6.73,0-11.27-5.18-11.27-12.85S442.05,188,448.89,188a12,12,0,0,1,7,2.12l-.39,2.52a11.26,11.26,0,0,0-6.63-2.41c-5.47,0-8.85,4.32-8.85,10.62s3.42,10.65,8.82,10.65a11.65,11.65,0,0,0,7.09-2.59l.36,2.38A12.93,12.93,0,0,1,448.71,213.78Z"/><path d="M467.29,213.67c-4.36,0-7.64-3.24-7.64-8.85s3.35-8.89,7.64-8.89,7.73,3.24,7.73,8.89S471.64,213.67,467.29,213.67Zm0-15.73c-3.39,0-5.22,2.85-5.22,6.88s1.87,6.84,5.22,6.84,5.29-2.81,5.29-6.84S470.7,197.94,467.29,197.94Z"/><path d="M486.11,213.67c-4.35,0-7.63-3.24-7.63-8.85s3.35-8.89,7.63-8.89,7.74,3.24,7.74,8.89S490.47,213.67,486.11,213.67Zm0-15.73c-3.38,0-5.22,2.85-5.22,6.88s1.87,6.84,5.22,6.84,5.29-2.81,5.29-6.84S489.53,197.94,486.11,197.94Z"/><path d="M500.73,202.62v10.69h-2.38v-17h1.77l.54,3.49a7.63,7.63,0,0,1,6-3.85l.4,2.23A8.09,8.09,0,0,0,500.73,202.62Z"/><path d="M521.86,213.31l-.43-2.48a7,7,0,0,1-5.47,2.84c-3.75,0-6.88-2.66-6.88-8.38,0-6.23,3.64-9.25,7.78-9.25a10.74,10.74,0,0,1,4.42.86v-9l2.38-.43v25.84Zm-.58-14.21a8.77,8.77,0,0,0-4.35-1c-3.06,0-5.44,2.3-5.44,7.09,0,4.14,2,6.37,4.68,6.37,2,0,3.6-1.22,5.11-3.06Z"/><path d="M530.64,192.22a1.73,1.73,0,1,1,1.7-1.73A1.72,1.72,0,0,1,530.64,192.22Zm-1.18,21.09v-17h2.34v17Z"/><path d="M548.64,213.31V201.58c0-2.2-1-3.53-3.16-3.53-1.8,0-3.64,1.12-5.51,2.95v12.31h-2.38v-17h1.84l.39,2.52c1.88-1.66,3.82-2.88,6.12-2.88,3.39,0,5.08,1.94,5.08,5.22v12.16Z"/><path d="M566.82,213.31l-.39-2.26a8.8,8.8,0,0,1-6,2.62c-3,0-5.08-1.62-5.08-4.64,0-4,3.24-5.87,10.94-6.62v-1.12c0-2.3-1.36-3.27-3.52-3.27a13.64,13.64,0,0,0-5.87,1.51l-.33-2.13a15.27,15.27,0,0,1,6.34-1.47c3.78,0,5.72,1.76,5.72,5.25v12.13Zm-.54-9c-6.69.68-8.56,2.3-8.56,4.61,0,1.83,1.26,2.77,3.06,2.77a8.53,8.53,0,0,0,5.5-2.56Z"/><path d="M579.28,213.6c-2.66,0-4.43-1-4.43-4.17V198.3h-2.63v-2h2.63v-5.91l2.34-.39v6.3h3.93l.32,2h-4.25V209c0,1.73.69,2.48,2.52,2.48a9,9,0,0,0,1.59-.18l.36,2A9,9,0,0,1,579.28,213.6Z"/><path d="M592.38,213.67c-4.46,0-7.66-3-7.66-8.89,0-5.47,3.16-8.85,7.34-8.85,4.64,0,6.87,3.81,6.87,8.53v.5H587.09c.07,4.21,2,6.66,5.44,6.66a9.24,9.24,0,0,0,6-2.52l.36,2.16A9.91,9.91,0,0,1,592.38,213.67Zm-5.18-10.58h9.29c-.22-3.06-1.7-5.25-4.43-5.25S587.63,199.82,587.2,203.09Z"/><path d="M608.4,213.64a13.47,13.47,0,0,1-6.12-1.55l.4-2.3a11.31,11.31,0,0,0,5.94,1.83c2.38,0,3.85-1,3.85-2.73s-1-2.45-4.39-3.35c-3.78-1-5.4-2.2-5.4-5s2.27-4.61,5.8-4.61a12.83,12.83,0,0,1,5.29,1.15l-.4,2.27a10.68,10.68,0,0,0-5-1.33c-2.34,0-3.45,1-3.45,2.41s.93,2.12,3.81,2.88c4,1.08,6,2.37,6,5.4S612.33,213.64,608.4,213.64Z"/><path d="M85.12,255.31V230.48H98.07v2.23H87.6v8.49h8.28l.36,2.24H87.6v9.64H98.43v2.23Z"/><path d="M103.73,255.31V237.1h2.41v16.09h7l.33,2.12Z"/><path d="M118.45,255.31V237.1h10.91v2.12h-8.5v5.55h6.88l.36,2.12h-7.24v6.3h8.75v2.12Z"/><path d="M142.25,255.64c-5.08,0-8.43-3.82-8.43-9.4s3.46-9.46,8.5-9.46a8.72,8.72,0,0,1,5.22,1.47l-.36,2.31a7.63,7.63,0,0,0-4.83-1.73c-3.74,0-6.08,3-6.08,7.38s2.38,7.41,6.08,7.41a8.6,8.6,0,0,0,5.15-1.83l.33,2.16A10,10,0,0,1,142.25,255.64Z"/><path d="M159.09,239.22v16.09h-2.37V239.22h-6.05V237.1H165l.33,2.12Z"/><path d="M180.26,255.49l-5.47-7.59h-2.63v7.41h-2.41V237.1h5.18c4.25,0,6.73,2.05,6.73,5.33a5.14,5.14,0,0,1-4.24,5.18l5.43,7.38Zm-5.43-16.3h-2.67V246h2.7c3,0,4.39-1.41,4.39-3.46S177.81,239.19,174.83,239.19Z"/><path d="M195,255.64c-4.79,0-8.43-3.71-8.43-9.4s3.71-9.46,8.46-9.46,8.42,3.67,8.42,9.43S199.74,255.64,195,255.64Zm0-16.81c-3.71,0-6.05,3.06-6.05,7.38s2.38,7.38,6.05,7.38,6-3.06,6-7.38S198.69,238.83,195,238.83Z"/><path d="M227.24,255.31,226.09,240l-5.94,15.4h-2.27L211.94,240l-1.15,15.29h-2.23L210,237.1h3.27l5.87,15.37L225,237.1h3.2l1.44,18.21Z"/><path d="M233.83,255.31l7.27-18.43h2.59L250.93,255l-2.38.54L246.39,250h-8.1l-2,5.32Zm5.29-7.45h6.48l-3.24-8.56Z"/><path d="M263,255.64c-5.5,0-8.74-3.82-8.74-9.4s3.45-9.46,8.71-9.46a9.79,9.79,0,0,1,5.43,1.47l-.36,2.31a8.36,8.36,0,0,0-5.14-1.77c-3.78,0-6.2,3-6.2,7.42s2.27,7.41,6.41,7.41a7,7,0,0,0,3.82-1v-5h-4.18l-.39-2.09h6.87v8.21A11.4,11.4,0,0,1,263,255.64Z"/><path d="M287.29,255.31l-9.94-14.68v14.68h-2.19V237.1h2.44l9.58,14.15V237.1h2.2v18.21Z"/><path d="M296,255.31V237.1h10.9v2.12h-8.49v5.55h6.87l.36,2.12h-7.23v6.3h8.75v2.12Z"/><path d="M319,239.22v16.09h-2.38V239.22h-6V237.1H325l.32,2.12Z"/><path d="M329.84,255.31V237.1h2.41v18.21Z"/><path d="M346.4,255.64c-5.08,0-8.42-3.82-8.42-9.4s3.45-9.46,8.49-9.46a8.72,8.72,0,0,1,5.22,1.47l-.36,2.31a7.62,7.62,0,0,0-4.82-1.73c-3.75,0-6.09,3-6.09,7.38s2.38,7.41,6.09,7.41a8.59,8.59,0,0,0,5.14-1.83L352,254A10,10,0,0,1,346.4,255.64Z"/><path d="M376.75,255.78c-6.74,0-11.27-5.18-11.27-12.85S370.09,230,376.93,230a12,12,0,0,1,7,2.12l-.4,2.52a11.21,11.21,0,0,0-6.62-2.41c-5.47,0-8.85,4.32-8.85,10.62s3.41,10.65,8.81,10.65a11.65,11.65,0,0,0,7.1-2.59l.35,2.38A12.9,12.9,0,0,1,376.75,255.78Z"/><path d="M397.23,255.64c-4.79,0-8.42-3.71-8.42-9.4s3.7-9.46,8.46-9.46,8.42,3.67,8.42,9.43S402,255.64,397.23,255.64Zm0-16.81c-3.71,0-6,3.06-6,7.38s2.37,7.38,6,7.38,6-3.06,6-7.38S400.94,238.83,397.27,238.83Z"/><path d="M429.48,255.31,428.33,240l-5.94,15.4h-2.27L414.19,240,413,255.31H410.8l1.44-18.21h3.28l5.86,15.37,5.87-15.37h3.21l1.44,18.21Z"/><path d="M456.3,255.31,455.15,240l-5.94,15.4h-2.27L441,240l-1.16,15.29h-2.23l1.44-18.21h3.28l5.86,15.37,5.87-15.37h3.21l1.43,18.21Z"/><path d="M471.75,255.64c-4.39,0-7-2.81-7-7.24V237.1h2.34v11.09c0,3.2,1.58,5.36,4.68,5.36s4.75-2,4.75-5.26V237.1h2.41v11.16C478.91,252.9,476.18,255.64,471.75,255.64Z"/><path d="M497.52,255.31l-9.93-14.68v14.68h-2.2V237.1h2.45l9.58,14.15V237.1h2.19v18.21Z"/><path d="M506.42,255.31V237.1h2.41v18.21Z"/><path d="M523,255.64c-5.08,0-8.43-3.82-8.43-9.4s3.46-9.46,8.5-9.46a8.72,8.72,0,0,1,5.22,1.47l-.36,2.31a7.63,7.63,0,0,0-4.83-1.73c-3.74,0-6.08,3-6.08,7.38s2.38,7.41,6.08,7.41a8.6,8.6,0,0,0,5.15-1.83l.32,2.16A9.94,9.94,0,0,1,523,255.64Z"/><path d="M531.69,255.31,539,236.88h2.59L548.79,255l-2.38.54L544.25,250h-8.1l-2,5.32Zm5.29-7.45h6.48l-3.24-8.56Z"/><path d="M558.83,239.22v16.09h-2.37V239.22h-6.05V237.1h14.36l.32,2.12Z"/><path d="M569.63,255.31V237.1H572v18.21Z"/><path d="M586.19,255.64c-4.79,0-8.42-3.71-8.42-9.4s3.7-9.46,8.46-9.46,8.42,3.67,8.42,9.43S590.94,255.64,586.19,255.64Zm0-16.81c-3.71,0-6.05,3.06-6.05,7.38s2.37,7.38,6.05,7.38,6-3.06,6-7.38S589.9,238.83,586.23,238.83Z"/><path d="M612.36,255.31l-9.93-14.68v14.68h-2.2V237.1h2.45l9.57,14.15V237.1h2.2v18.21Z"/><path d="M85,297.31V272.48h3.39v24.83Z"/><path d="M104.88,297.31V285.62c0-1.77-.76-3-2.63-3-1.69,0-3.42,1.12-5,2.78v11.87h-3.2V280.14h2.56l.39,2.49a9.22,9.22,0,0,1,6.09-2.85c3.23,0,5,2,5,5v12.49Z"/><path d="M118.88,297.6c-3,0-5-1.08-5-4.53V282.84h-2.59v-2.7h2.59v-5.72L117,274v6.19h3.71l.43,2.7H117v9.65c0,1.4.58,2.27,2.38,2.27a8.65,8.65,0,0,0,1.47-.11l.43,2.74A12.63,12.63,0,0,1,118.88,297.6Z"/><path d="M132,297.67c-4.46,0-8-2.7-8-9,0-5.5,3.24-8.89,7.56-8.89,5,0,7.3,3.86,7.3,8.61v.68H127.27c.11,4,2,5.87,5,5.87a9.43,9.43,0,0,0,6.16-2.45l.47,2.88A10.69,10.69,0,0,1,132,297.67Zm-4.6-11h8.27c-.39-2.77-1.62-4.36-4.1-4.36C129.61,282.3,127.92,283.74,127.42,286.66Z"/><path d="M146.21,287.16v10.15H143V280.14h2.56l.54,3.5a7.6,7.6,0,0,1,6-3.86l.5,3.06A7.88,7.88,0,0,0,146.21,287.16Z"/><path d="M166.69,297.31V285.62c0-1.77-.76-3-2.63-3-1.69,0-3.42,1.12-5,2.78v11.87h-3.2V280.14h2.56l.39,2.49a9.22,9.22,0,0,1,6.09-2.85c3.24,0,5,2,5,5v12.49Z"/><path d="M185.27,297.31l-.36-2.3a8.12,8.12,0,0,1-6,2.66c-3.1,0-5-1.87-5-4.78,0-4.29,3.67-6,10.83-6.73v-.72c0-2.16-1.29-2.92-3.27-2.92a14.71,14.71,0,0,0-5.94,1.48l-.43-2.78a16.73,16.73,0,0,1,6.66-1.44c4.17,0,6.19,1.7,6.19,5.51v12Zm-.62-8.71c-6.33.61-7.66,2.34-7.66,4.11a2.24,2.24,0,0,0,2.55,2.3,7.31,7.31,0,0,0,5.11-2.41Z"/><path d="M198.66,297.6c-3,0-5-1.08-5-4.53V282.84h-2.59v-2.7h2.59v-5.72l3.14-.47v6.19h3.7l.43,2.7h-4.13v9.65c0,1.4.57,2.27,2.37,2.27a8.78,8.78,0,0,0,1.48-.11l.43,2.74A12.72,12.72,0,0,1,198.66,297.6Z"/><path d="M206.83,276.69a2,2,0,0,1-2.05-2,2.07,2.07,0,0,1,2.05-2.05,2,2,0,0,1,2,2.05A2,2,0,0,1,206.83,276.69Zm-1.62,20.62V280.14h3.2v17.17Z"/><path d="M220.62,297.67c-4.57,0-7.89-3.27-7.89-8.92s3.32-9,7.89-9,8,3.32,8,9S225.22,297.67,220.62,297.67Zm0-15.19c-3.1,0-4.65,2.67-4.65,6.27s1.62,6.26,4.65,6.26,4.75-2.66,4.75-6.26S223.71,282.48,220.62,282.48Z"/><path d="M243.48,297.31V285.62c0-1.77-.76-3-2.63-3-1.69,0-3.42,1.12-5,2.78v11.87h-3.2V280.14h2.55l.4,2.49a9.2,9.2,0,0,1,6.08-2.85c3.24,0,5,2,5,5v12.49Z"/><path d="M262.05,297.31l-.36-2.3a8.12,8.12,0,0,1-6.05,2.66c-3.09,0-5-1.87-5-4.78,0-4.29,3.67-6,10.83-6.73v-.72c0-2.16-1.3-2.92-3.28-2.92a14.7,14.7,0,0,0-5.93,1.48l-.44-2.78a16.77,16.77,0,0,1,6.66-1.44c4.18,0,6.19,1.7,6.19,5.51v12Zm-.61-8.71c-6.34.61-7.67,2.34-7.67,4.11a2.25,2.25,0,0,0,2.56,2.3,7.31,7.31,0,0,0,5.11-2.41Z"/><path d="M269.87,297.31V271.83l3.2-.5v26Z"/><path d="M286.75,297.31V272.48h13.39v3.09h-10v7.2h7.78l.5,3.1h-8.28v8.35H300.5v3.09Z"/><path d="M314.75,297.31l-.35-2.3a8.12,8.12,0,0,1-6,2.66c-3.1,0-5-1.87-5-4.78,0-4.29,3.67-6,10.83-6.73v-.72c0-2.16-1.29-2.92-3.27-2.92a14.71,14.71,0,0,0-5.94,1.48l-.43-2.78a16.73,16.73,0,0,1,6.66-1.44c4.17,0,6.19,1.7,6.19,5.51v12Zm-.61-8.71c-6.33.61-7.66,2.34-7.66,4.11A2.24,2.24,0,0,0,309,295a7.31,7.31,0,0,0,5.11-2.41Z"/><path d="M325.52,287.16v10.15h-3.2V280.14h2.55l.54,3.5a7.63,7.63,0,0,1,6-3.86l.51,3.06A7.88,7.88,0,0,0,325.52,287.16Z"/><path d="M341.36,297.6c-3,0-5-1.08-5-4.53V282.84h-2.6v-2.7h2.6v-5.72l3.13-.47v6.19h3.7l.44,2.7h-4.14v9.65c0,1.4.57,2.27,2.37,2.27a8.78,8.78,0,0,0,1.48-.11l.43,2.74A12.72,12.72,0,0,1,341.36,297.6Z"/><path d="M358.46,297.31V285.62c0-1.77-.76-3-2.63-3-1.69,0-3.42,1.12-5,2.78v11.87h-3.2V271.83l3.2-.5v11.08a9,9,0,0,1,5.83-2.63c3.24,0,5,2,5,5v12.49Z"/><path d="M388.55,297.57,381,286.84H378.4v10.47H375V272.48h6.77c5.07,0,8.24,2.52,8.24,7,0,3.78-2.2,6-5.44,6.88l7.38,10.4Zm-6.91-22.11H378.4V284h2.88c3.28,0,5.36-1.48,5.36-4.29S385,275.46,381.64,275.46Z"/><path d="M401.33,297.67c-4.57,0-7.88-3.27-7.88-8.92s3.31-9,7.88-9,8,3.32,8,9S405.94,297.67,401.33,297.67Zm0-15.19c-3.09,0-4.64,2.67-4.64,6.27s1.62,6.26,4.64,6.26c3.17,0,4.75-2.66,4.75-6.26S404.43,282.48,401.33,282.48Z"/><path d="M419.23,297.6c-3,0-5-1.08-5-4.53V282.84h-2.59v-2.7h2.59v-5.72l3.13-.47v6.19h3.71l.43,2.7h-4.14v9.65c0,1.4.58,2.27,2.38,2.27a8.86,8.86,0,0,0,1.48-.11l.43,2.74A12.72,12.72,0,0,1,419.23,297.6Z"/><path d="M435.93,297.31l-.36-2.3a8.12,8.12,0,0,1-6.05,2.66c-3.1,0-5-1.87-5-4.78,0-4.29,3.67-6,10.84-6.73v-.72c0-2.16-1.3-2.92-3.28-2.92A14.71,14.71,0,0,0,426.1,284l-.43-2.78a16.77,16.77,0,0,1,6.66-1.44c4.17,0,6.19,1.7,6.19,5.51v12Zm-.61-8.71c-6.34.61-7.67,2.34-7.67,4.11a2.25,2.25,0,0,0,2.56,2.3,7.31,7.31,0,0,0,5.11-2.41Z"/><path d="M449.32,297.6c-3,0-5-1.08-5-4.53V282.84h-2.59v-2.7h2.59v-5.72l3.13-.47v6.19h3.71l.43,2.7h-4.14v9.65c0,1.4.57,2.27,2.37,2.27a8.78,8.78,0,0,0,1.48-.11l.43,2.74A12.63,12.63,0,0,1,449.32,297.6Z"/><path d="M457.49,276.69a2,2,0,0,1-2.05-2,2.08,2.08,0,0,1,2.05-2.05,2,2,0,0,1,2,2.05A2,2,0,0,1,457.49,276.69Zm-1.62,20.62V280.14h3.21v17.17Z"/><path d="M471.28,297.67c-4.57,0-7.88-3.27-7.88-8.92s3.31-9,7.88-9,8,3.32,8,9S475.89,297.67,471.28,297.67Zm0-15.19c-3.1,0-4.64,2.67-4.64,6.27s1.62,6.26,4.64,6.26c3.17,0,4.75-2.66,4.75-6.26S474.38,282.48,471.28,282.48Z"/><path d="M494.14,297.31V285.62c0-1.77-.76-3-2.63-3-1.69,0-3.42,1.12-5,2.78v11.87h-3.2V280.14h2.56l.39,2.49a9.22,9.22,0,0,1,6.09-2.85c3.24,0,5,2,5,5v12.49Z"/><path d="M516.57,297.6a15,15,0,0,1-7-1.62l.5-3.45a12.3,12.3,0,0,0,6.52,2.12c2.59,0,4.43-1.37,4.43-3.78s-1-3.2-4.75-4.89c-4.68-2.13-6.45-3.68-6.45-7.24,0-4,3.06-6.55,7.56-6.55a11,11,0,0,1,5.65,1.4l-.54,3.39a8.77,8.77,0,0,0-5.22-1.84c-2.84,0-4.1,1.51-4.1,3.35s.94,2.81,4.71,4.53c4.83,2.2,6.48,3.86,6.48,7.6C524.41,294.9,521.21,297.6,516.57,297.6Z"/><path d="M535.65,297.67c-4.47,0-8-2.7-8-9,0-5.5,3.24-8.89,7.56-8.89,5,0,7.31,3.86,7.31,8.61v.68H530.9c.1,4,2,5.87,5,5.87a9.43,9.43,0,0,0,6.15-2.45l.47,2.88A10.67,10.67,0,0,1,535.65,297.67Zm-4.61-11h8.28c-.4-2.77-1.62-4.36-4.11-4.36C533.24,282.3,531.54,283.74,531,286.66Z"/><path d="M549.83,287.16v10.15h-3.2V280.14h2.55l.54,3.5a7.63,7.63,0,0,1,6-3.86l.51,3.06A7.88,7.88,0,0,0,549.83,287.16Z"/><path d="M567,297.39H564l-6.09-17,3.21-.51,4.46,13.57,4.32-13.32h3.28Z"/><path d="M578.34,276.69a2,2,0,0,1-2.05-2,2.08,2.08,0,0,1,2.05-2.05,2,2,0,0,1,2,2.05A2,2,0,0,1,578.34,276.69Zm-1.62,20.62V280.14h3.21v17.17Z"/><path d="M592.38,297.67c-4.61,0-8-3.2-8-8.92s3.6-9,8.06-9a9.31,9.31,0,0,1,5.62,1.59l-.47,3.13a7.74,7.74,0,0,0-5.18-1.91c-2.81,0-4.79,2.12-4.79,6.12,0,4.18,2.12,6.16,5.15,6.16a7.06,7.06,0,0,0,5-1.91l.47,2.88A9.09,9.09,0,0,1,592.38,297.67Z"/><path d="M608.91,297.67c-4.47,0-8-2.7-8-9,0-5.5,3.24-8.89,7.56-8.89,5,0,7.31,3.86,7.31,8.61v.68H604.15c.11,4,2,5.87,5,5.87a9.43,9.43,0,0,0,6.15-2.45l.47,2.88A10.67,10.67,0,0,1,608.91,297.67Zm-4.61-11h8.28c-.4-2.77-1.62-4.36-4.11-4.36C606.49,282.3,604.8,283.74,604.3,286.66Z"/><path d="M92.64,339.31H86.7V314.48h6c5.47,0,8,2.62,8,6.44a5.29,5.29,0,0,1-3.57,5.15c2.78.83,4.65,2.7,4.65,6C101.82,337,98.36,339.31,92.64,339.31Zm0-21.95H90v7.56h2.38c3.27,0,5-1.44,5-3.89C97.43,318.76,96,317.36,92.64,317.36Zm.14,10.33H90v8.74h2.88c3.56,0,5.61-1.44,5.61-4.32S96.49,327.69,92.78,327.69Z"/><path d="M117.15,339.49,112,332.26h-2v7.05h-3.24V321.06h5.65c4.18,0,6.88,2,6.88,5.62a5.14,5.14,0,0,1-3.82,5.18l5.15,6.91Zm-4.71-15.62h-2.38v5.87h2.38c2.34,0,3.67-1.08,3.67-3S114.81,323.87,112.44,323.87Z"/><path d="M123.06,339.31l7.2-18.46h3.6L141,338.92l-3.2.72-1.83-4.9H128l-1.7,4.57Zm6-7.41h5.83l-2.91-8Z"/><path d="M157.33,339.31l-9.14-13.46v13.46h-3V321.06h3.24L157.22,334V321.06h2.95v18.25Z"/><path d="M171.77,339.31h-5.51V321.06h5.51c6.55,0,10,3.86,10,9.11S178.24,339.31,171.77,339.31Zm.21-15.37H169.5v12.49h2.41c4.1,0,6.59-2.26,6.59-6.22S175.9,323.94,172,323.94Z"/><path d="M186.89,339.31V321.06h11.33v2.88h-8.1v4.47h6.48l.47,2.84h-6.95v5.18h8.36v2.88Z"/><path d="M215.68,339.31l-9.14-13.46v13.46h-2.95V321.06h3.24L215.58,334V321.06h2.95v18.25Z"/><path d="M230.55,339.31h-5.94V321.06h5.91c4.1,0,6.08,1.91,6.08,4.65a4,4,0,0,1-2.63,4c2.05.61,3.46,1.9,3.46,4.28C237.43,337.62,234.69,339.31,230.55,339.31Zm-.18-15.55h-2.66v4.72h2.55c2.2,0,3.32-.86,3.32-2.48C233.58,324.56,232.6,323.76,230.37,323.76Zm.25,7.31h-2.91v5.58h2.88c2.34,0,3.78-.76,3.78-2.7S233.11,331.07,230.62,331.07Z"/><path d="M249.88,339.67c-4.57,0-7.41-2.7-7.41-7.45V321.06h3.24v11c0,2.95,1.37,4.82,4.21,4.82s4.25-1.69,4.25-4.75V321.06h3.27v11C257.44,337,254.53,339.67,249.88,339.67Z"/><path d="M273.75,339.49l-5.15-7.23h-1.94v7.05h-3.24V321.06h5.65c4.18,0,6.88,2,6.88,5.62a5.14,5.14,0,0,1-3.82,5.18l5.15,6.91ZM269,323.87h-2.38v5.87H269c2.34,0,3.67-1.08,3.67-3S271.41,323.87,269,323.87Z"/><path d="M289.45,339.67c-5.87,0-9.11-3.81-9.11-9.43s3.42-9.54,9-9.54a10.09,10.09,0,0,1,5.68,1.52l-.47,3a8.41,8.41,0,0,0-5.18-1.8c-3.78,0-5.72,2.74-5.72,6.81s2,6.8,5.9,6.8a6.64,6.64,0,0,0,3.35-.79V332h-4l-.47-2.81H296v8.64A12.45,12.45,0,0,1,289.45,339.67Z"/><path d="M301.26,339.31V321.06h11.33v2.88H304.5v4.47H311l.47,2.84H304.5v5.18h8.35v2.88Z"/><path d="M328.29,339.49l-5.15-7.23H321.2v7.05H318V321.06h5.65c4.18,0,6.88,2,6.88,5.62a5.15,5.15,0,0,1-3.82,5.18l5.15,6.91Zm-4.71-15.62H321.2v5.87h2.38c2.34,0,3.67-1.08,3.67-3S326,323.87,323.58,323.87Z"/><path d="M351.19,339.31h-5.94V314.48h6c5.47,0,8,2.62,8,6.44a5.3,5.3,0,0,1-3.57,5.15c2.77.83,4.65,2.7,4.65,6C360.37,337,356.91,339.31,351.19,339.31Zm0-21.95h-2.63v7.56h2.37c3.28,0,5-1.44,5-3.89C356,318.76,354.57,317.36,351.19,317.36Zm.14,10.33h-2.77v8.74h2.88c3.56,0,5.61-1.44,5.61-4.32S355,327.69,351.33,327.69Z"/><path d="M365.51,339.31V321.06h3.24v18.25Z"/><path d="M382.76,339.67c-4.72,0-8.79-3.56-8.79-9.46s4.11-9.51,8.79-9.51,8.74,3.53,8.74,9.47S387.44,339.67,382.76,339.67Zm0-16.19c-3.46,0-5.47,2.88-5.47,6.69s2.12,6.77,5.47,6.77,5.43-2.95,5.43-6.73S386.07,323.48,382.76,323.48Z"/><path d="M401.55,339.57a16.57,16.57,0,0,1-6.26-1.37l.46-2.92a14.13,14.13,0,0,0,5.94,1.62c2.09,0,3.57-.93,3.57-2.48s-1-2.09-3.6-3c-3.82-1.33-5.76-2.52-5.76-5.36,0-3.13,2.59-5.26,6.12-5.26a13.16,13.16,0,0,1,5.29,1.08l-.47,3a10.64,10.64,0,0,0-4.93-1.37c-1.8,0-3,1-3,2.16,0,1.41,1,1.91,3.85,2.88,3.81,1.33,5.51,2.63,5.51,5.47C408.25,337.41,405.55,339.57,401.55,339.57Z"/><path d="M418.72,332.33h-2.3v7h-3.24V321.06h5.94c4,0,6.51,2.06,6.51,5.58C425.63,330.42,422.9,332.33,418.72,332.33Zm.07-8.53h-2.37v5.83h2.3c2.34,0,3.74-.86,3.74-2.92C422.46,324.81,421.13,323.8,418.79,323.8Z"/><path d="M441.69,339.31v-8h-8.42v8H430V321.06h3.24v7.27h8.42v-7.27h3.24v18.25Z"/><path d="M451,339.31V321.06h11.34v2.88h-8.1v4.47h6.48l.47,2.84h-6.95v5.18h8.35v2.88Z"/><path d="M478.05,339.49l-5.15-7.23H471v7.05h-3.24V321.06h5.65c4.17,0,6.87,2,6.87,5.62a5.14,5.14,0,0,1-3.81,5.18l5.15,6.91Zm-4.72-15.62H471v5.87h2.37c2.34,0,3.67-1.08,3.67-3S475.71,323.87,473.33,323.87Z"/><path d="M485.79,339.31V321.06h11.34v2.88H489v4.47h6.48l.47,2.84h-7v5.18h8.35v2.88Z"/><path d="M535.54,339.31,534,319.55l-7.85,19.87h-2.55l-7.85-19.87-1.51,19.76h-3.17l2-24.83h4.18L525,334.85l7.73-20.37h4.14l1.95,24.83Z"/><path d="M552.39,339.67c-4.72,0-8.79-3.56-8.79-9.46s4.11-9.51,8.79-9.51,8.74,3.53,8.74,9.47S557.07,339.67,552.39,339.67Zm0-16.19c-3.46,0-5.47,2.88-5.47,6.69s2.12,6.77,5.47,6.77,5.43-2.95,5.43-6.73S555.7,323.48,552.39,323.48Z"/><path d="M571.72,339.31h-5.51V321.06h5.51c6.55,0,10,3.86,10,9.11S578.2,339.31,571.72,339.31Zm.22-15.37h-2.49v12.49h2.41c4.11,0,6.59-2.26,6.59-6.22S575.86,323.94,571.94,323.94Z"/><path d="M586.84,339.31V321.06h11.34v2.88h-8.1v4.47h6.48l.47,2.84h-6.95v5.18h8.35v2.88Z"/><path d="M603.54,339.31V321.06h3.24v15.37h6.91l.47,2.88Z"/><path d="M101.53,380.16l6.44,2.2-.9,4.1-13.68-5c-5.58-2-8.46-6.09-8.46-12.53,0-7.7,4.61-12.92,11.7-12.92s11.63,5,11.63,12.67C108.26,374.44,105.6,378.43,101.53,380.16ZM96.6,360c-4.29,0-6.81,3.56-6.81,9S92.35,378,96.6,378s6.84-3.71,6.84-9.07S100.84,360,96.6,360Z"/><path d="M123.2,381.31l-.4-2.44c-1.62,1.54-3.49,2.8-5.79,2.8-3.28,0-5-2-5-5.25V363.93h4.32V375.3c0,1.51.65,2.52,2.2,2.52a5.94,5.94,0,0,0,4-2.16V363.93h4.32v17.38Z"/><path d="M141.38,381.31l-.36-2.26a7.68,7.68,0,0,1-5.79,2.62c-3,0-4.94-1.8-4.94-4.82,0-4.21,3.46-6.05,10.48-6.73v-.5c0-1.88-1.08-2.6-3-2.6a14.26,14.26,0,0,0-5.79,1.41l-.54-3.46a18,18,0,0,1,6.91-1.4c4.5,0,6.73,1.65,6.73,5.83v11.91Zm-.61-8.67c-5,.61-6.19,2.09-6.19,3.74a1.9,1.9,0,0,0,2.12,2,5.82,5.82,0,0,0,4.07-1.87Z"/><path d="M159.88,381.31V369.94c0-1.51-.64-2.56-2.23-2.56a5.83,5.83,0,0,0-4,2.2v11.73h-4.32V363.93H153l.4,2.45c1.62-1.55,3.46-2.81,5.8-2.81,3.24,0,5,2,5,5.22v12.52Z"/><path d="M175.15,381.6c-3.42,0-5.72-1.26-5.72-5.22v-8.92H167v-3.53h2.45v-5.51l4.24-.65v6.16h3.57l.54,3.53h-4.11v8.2c0,1.41.65,2.16,2.31,2.16a5.17,5.17,0,0,0,1.36-.14l.54,3.63A11.7,11.7,0,0,1,175.15,381.6Z"/><path d="M183.5,361a2.46,2.46,0,0,1-2.59-2.45,2.58,2.58,0,0,1,5.15,0A2.46,2.46,0,0,1,183.5,361Zm-2.2,20.3V363.93h4.32v17.38Z"/><path d="M196.82,381.6c-3.42,0-5.72-1.26-5.72-5.22v-8.92h-2.45v-3.53h2.45v-5.51l4.24-.65v6.16h3.57l.54,3.53h-4.11v8.2c0,1.41.65,2.16,2.31,2.16a5.3,5.3,0,0,0,1.37-.14l.54,3.63A11.87,11.87,0,0,1,196.82,381.6Z"/><path d="M212.91,381.31l-.36-2.26a7.68,7.68,0,0,1-5.79,2.62c-3,0-4.94-1.8-4.94-4.82,0-4.21,3.46-6.05,10.48-6.73v-.5c0-1.88-1.08-2.6-3-2.6a14.26,14.26,0,0,0-5.79,1.41L203,365a18,18,0,0,1,6.91-1.4c4.5,0,6.73,1.65,6.73,5.83v11.91Zm-.61-8.67c-5,.61-6.19,2.09-6.19,3.74a1.9,1.9,0,0,0,2.12,2,5.82,5.82,0,0,0,4.07-1.87Z"/><path d="M227.53,381.6c-3.42,0-5.73-1.26-5.73-5.22v-8.92h-2.44v-3.53h2.44v-5.51l4.25-.65v6.16h3.57l.54,3.53h-4.11v8.2c0,1.41.65,2.16,2.31,2.16a5.17,5.17,0,0,0,1.36-.14l.54,3.63A11.7,11.7,0,0,1,227.53,381.6Z"/><path d="M235.88,361a2.46,2.46,0,0,1-2.59-2.45,2.58,2.58,0,0,1,5.15,0A2.46,2.46,0,0,1,235.88,361Zm-2.2,20.3V363.93H238v17.38Z"/><path d="M251.29,381.39h-4.21L241,364.25l4.54-.57L249.42,376l3.74-12.09h4.28Z"/><path d="M267.16,381.67c-4.86,0-8.49-2.77-8.49-9,0-5.65,3.38-9.07,7.92-9.07,5.22,0,7.56,3.92,7.56,8.85,0,.36,0,.79,0,1.05H262.92c.21,3.42,2.05,4.86,4.71,4.86a10.16,10.16,0,0,0,6-2.16l.5,3.38A11.85,11.85,0,0,1,267.16,381.67ZM263,370.77h6.94c-.28-2.7-1.36-4.21-3.45-4.21C264.75,366.56,263.31,368,263,370.77Z"/><path d="M292.65,372.17h-2.12v9.14h-4.75V356.48h7.27c5.68,0,9.1,2.62,9.1,7.63C302.15,369.47,298.34,372.17,292.65,372.17Zm.14-11.88h-2.26v8h2.08c3.06,0,4.86-1.26,4.86-4.1C297.47,361.62,295.85,360.29,292.79,360.29Z"/><path d="M309.32,371.34v10H305V363.93h3.67l.54,3.49a6.76,6.76,0,0,1,5.58-3.85l.68,4.28A8,8,0,0,0,309.32,371.34Z"/><path d="M325.34,381.67c-4.86,0-8.5-2.77-8.5-9,0-5.65,3.39-9.07,7.92-9.07,5.22,0,7.56,3.92,7.56,8.85,0,.36,0,.79,0,1.05h-11.2c.22,3.42,2.05,4.86,4.72,4.86a10.13,10.13,0,0,0,6-2.16l.51,3.38A11.87,11.87,0,0,1,325.34,381.67Zm-4.18-10.9h6.95c-.29-2.7-1.37-4.21-3.45-4.21C322.93,366.56,321.49,368,321.16,370.77Z"/><path d="M343.27,381.64c-4.86,0-8.28-3.24-8.28-8.93,0-6,3.78-9.14,8.42-9.14a10,10,0,0,1,5.44,1.47l-.62,3.89a7.23,7.23,0,0,0-4.6-1.62c-2.49,0-4.29,1.84-4.29,5.29s2,5.33,4.58,5.33a7,7,0,0,0,4.53-1.66L349,380A9.42,9.42,0,0,1,343.27,381.64Z"/><path d="M354.86,361a2.46,2.46,0,0,1-2.59-2.45,2.58,2.58,0,0,1,5.15,0A2.46,2.46,0,0,1,354.86,361Zm-2.2,20.3V363.93H357v17.38Z"/><path d="M369.91,381.49a11.17,11.17,0,0,1-4-.68v6.55l-4.32.65V363.93h3.67l.39,2.37a7,7,0,0,1,5.33-2.73c3.64,0,6.55,2.73,6.55,8.56C377.5,378.61,373.9,381.49,369.91,381.49Zm-.11-14.11c-1.55,0-2.77,1-3.92,2.45v7.45a6.68,6.68,0,0,0,3.34.76c2.24,0,3.93-1.84,3.93-5.65C373.15,369,371.74,367.38,369.8,367.38Z"/><path d="M383.41,361a2.46,2.46,0,0,1-2.59-2.45,2.57,2.57,0,0,1,5.14,0A2.45,2.45,0,0,1,383.41,361Zm-2.2,20.3V363.93h4.32v17.38Z"/><path d="M396.73,381.6c-3.42,0-5.73-1.26-5.73-5.22v-8.92h-2.44v-3.53H391v-5.51l4.25-.65v6.16h3.56l.54,3.53h-4.1v8.2c0,1.41.65,2.16,2.3,2.16a5.2,5.2,0,0,0,1.37-.14l.54,3.63A11.7,11.7,0,0,1,396.73,381.6Z"/><path d="M412.82,381.31l-.36-2.26a7.72,7.72,0,0,1-5.8,2.62c-3,0-4.93-1.8-4.93-4.82,0-4.21,3.46-6.05,10.48-6.73v-.5c0-1.88-1.08-2.6-3-2.6a14.26,14.26,0,0,0-5.8,1.41l-.54-3.46a18.05,18.05,0,0,1,6.91-1.4c4.5,0,6.74,1.65,6.74,5.83v11.91Zm-.61-8.67c-5,.61-6.2,2.09-6.2,3.74a1.91,1.91,0,0,0,2.13,2,5.84,5.84,0,0,0,4.07-1.87Z"/><path d="M427.43,381.6c-3.42,0-5.72-1.26-5.72-5.22v-8.92h-2.45v-3.53h2.45v-5.51l4.25-.65v6.16h3.56l.54,3.53H426v8.2c0,1.41.65,2.16,2.3,2.16a5.25,5.25,0,0,0,1.37-.14l.54,3.63A11.8,11.8,0,0,1,427.43,381.6Z"/><path d="M435.79,361a2.47,2.47,0,0,1-2.6-2.45,2.58,2.58,0,0,1,5.15,0A2.45,2.45,0,0,1,435.79,361Zm-2.2,20.3V363.93h4.32v17.38Z"/><path d="M449.72,381.67c-4.72,0-8.14-3.38-8.14-9s3.46-9.07,8.17-9.07S458,367,458,372.64,454.47,381.67,449.72,381.67Zm0-14.54c-2.56,0-3.93,2.27-3.93,5.51s1.41,5.51,3.93,5.51,4-2.27,4-5.51S452.31,367.13,449.72,367.13Z"/><path d="M472,381.31V369.94c0-1.51-.64-2.56-2.23-2.56a5.83,5.83,0,0,0-4,2.2v11.73h-4.32V363.93h3.67l.4,2.45c1.62-1.55,3.46-2.81,5.8-2.81,3.24,0,5,2,5,5.22v12.52Z"/><path d="M493.49,360.62V367h7l.68,4.1h-7.67v10.26h-4.75V356.48h13.9v4.14Z"/><path d="M511.89,381.67c-4.72,0-8.14-3.38-8.14-9s3.46-9.07,8.17-9.07,8.21,3.42,8.21,9.07S516.64,381.67,511.89,381.67Zm0-14.54c-2.56,0-3.92,2.27-3.92,5.51s1.4,5.51,3.92,5.51,4-2.27,4-5.51S514.48,367.13,511.89,367.13Z"/><path d="M528,371.34v10h-4.32V363.93h3.67l.54,3.49a6.76,6.76,0,0,1,5.58-3.85l.68,4.28A8,8,0,0,0,528,371.34Z"/><path d="M544,381.67c-4.85,0-8.49-2.77-8.49-9,0-5.65,3.38-9.07,7.92-9.07,5.22,0,7.56,3.92,7.56,8.85,0,.36,0,.79,0,1.05H539.72c.21,3.42,2,4.86,4.71,4.86a10.16,10.16,0,0,0,6-2.16l.5,3.38A11.85,11.85,0,0,1,544,381.67Zm-4.17-10.9h7c-.29-2.7-1.37-4.21-3.46-4.21C541.55,366.56,540.11,368,539.79,370.77Z"/><path d="M561.89,381.64c-4.86,0-8.28-3.24-8.28-8.93,0-6,3.78-9.14,8.43-9.14a10,10,0,0,1,5.43,1.47l-.61,3.89a7.25,7.25,0,0,0-4.61-1.62c-2.48,0-4.28,1.84-4.28,5.29s1.94,5.33,4.57,5.33a7,7,0,0,0,4.54-1.66l.54,3.68A9.45,9.45,0,0,1,561.89,381.64Z"/><path d="M581.22,381.31l-.36-2.26a7.68,7.68,0,0,1-5.79,2.62c-3,0-4.93-1.8-4.93-4.82,0-4.21,3.45-6.05,10.47-6.73v-.5c0-1.88-1.08-2.6-3-2.6a14.26,14.26,0,0,0-5.79,1.41l-.54-3.46a18.05,18.05,0,0,1,6.91-1.4c4.5,0,6.73,1.65,6.73,5.83v11.91Zm-.61-8.67c-5,.61-6.19,2.09-6.19,3.74a1.9,1.9,0,0,0,2.12,2,5.82,5.82,0,0,0,4.07-1.87Z"/><path d="M595.08,381.64a15.07,15.07,0,0,1-6.76-1.69l.57-3.6a12.07,12.07,0,0,0,6.34,2c1.87,0,2.88-.69,2.88-1.8s-.76-1.73-3.53-2.41c-4.21-1.08-6-2.31-6-5.48,0-3,2.37-5.11,6.4-5.11a14.74,14.74,0,0,1,6.09,1.23l-.58,3.6a11.92,11.92,0,0,0-5.51-1.59c-1.62,0-2.41.62-2.41,1.59s.65,1.44,3.24,2.12c4.5,1.15,6.26,2.38,6.26,5.65C602.1,379.62,599.66,381.64,595.08,381.64Z"/><path d="M612.08,381.6c-3.42,0-5.73-1.26-5.73-5.22v-8.92h-2.44v-3.53h2.44v-5.51l4.25-.65v6.16h3.56l.54,3.53h-4.1v8.2c0,1.41.65,2.16,2.3,2.16a5.2,5.2,0,0,0,1.37-.14l.54,3.63A11.7,11.7,0,0,1,612.08,381.6Z"/><path d="M92.15,423.6a17.91,17.91,0,0,1-7.81-1.73l.72-4.35a14.83,14.83,0,0,0,7.16,2.19c2.2,0,3.71-1,3.71-3s-.86-2.59-4.46-4.14c-4.82-2-6.77-3.56-6.77-7.41,0-4.4,3.38-6.95,8-6.95a13.3,13.3,0,0,1,6.55,1.51L98.56,404a11,11,0,0,0-5.87-1.94c-2.37,0-3.42,1.15-3.42,2.66s.79,2.34,4.25,3.78c5.11,2.09,7,3.85,7,7.7C100.5,421.08,96.94,423.6,92.15,423.6Z"/><path d="M113.46,408.52v14.79h-4.35V408.52h-5.47v-3.67h15.08l.54,3.67Z"/><path d="M120.05,423.31l6.81-18.64H132l6.63,18.1-4.18.83-1.51-4.43h-7.31l-1.4,4.14Zm6.66-7.52h5.11l-2.55-7.59Z"/><path d="M154.25,423.31l-8.06-12.16v12.16h-3.85V404.85h4.1l7.63,11.52V404.85h3.85v18.46Z"/><path d="M169.51,423.31h-6.15V404.85h6.12c6.55,0,10,3.78,10,9.21S175.85,423.31,169.51,423.31Zm0-14.93h-1.9v11.41h1.9c3.46,0,5.55-2,5.55-5.69S172.93,408.38,169.51,408.38Z"/><path d="M181.54,423.31l6.8-18.64h5.15l6.62,18.1-4.17.83-1.51-4.43h-7.31l-1.4,4.14Zm6.66-7.52h5.11l-2.56-7.59Z"/><path d="M214.19,423.57l-4.43-6.66H208v6.4h-4.22V404.85h6.45c4.64,0,7.27,2.19,7.27,5.9A5.38,5.38,0,0,1,214,416l4.72,6.77ZM210,408.2h-2v5.5h2c2.19,0,3.38-1,3.38-2.84S212.14,408.2,210,408.2Z"/><path d="M228.55,423.31H222.4V404.85h6.12c6.55,0,10,3.78,10,9.21S234.89,423.31,228.55,423.31Zm0-14.93h-1.9v11.41h1.9c3.46,0,5.55-2,5.55-5.69S232,408.38,228.55,408.38Z"/><path d="M252,423.31V398.48h14.44v4h-9.72v5.9h7.49l.64,4h-8.13v6.87h10.08v4Z"/><path d="M283.06,423.31,275,411.15v12.16h-3.85V404.85h4.11l7.63,11.52V404.85h3.85v18.46Z"/><path d="M300.52,408.52v14.79h-4.36V408.52h-5.47v-3.67h15.08l.54,3.67Z"/><path d="M320.35,423.57l-4.43-6.66H314.2v6.4H310V404.85h6.44c4.64,0,7.27,2.19,7.27,5.9a5.39,5.39,0,0,1-3.56,5.22l4.71,6.77Zm-4.17-15.37h-2v5.5h2c2.2,0,3.38-1,3.38-2.84S318.3,408.2,316.18,408.2Z"/><path d="M336.34,423.67c-4.9,0-8.86-3.7-8.86-9.57s4-9.61,8.86-9.61,8.85,3.67,8.85,9.57S341.23,423.67,336.34,423.67Zm0-15.69c-2.92,0-4.58,2.63-4.58,6.08s1.73,6.16,4.58,6.16,4.57-2.67,4.57-6.12S339.18,408,336.34,408Z"/><path d="M355.7,417h-1.76v6.3h-4.25V404.85H356c4.39,0,7.16,2.12,7.16,6C363.19,414.82,360.35,417,355.7,417Zm0-8.89H353.9v5.62h1.84c2.23,0,3.42-.94,3.42-2.81S358,408.12,355.74,408.12Z"/><path d="M375.9,416.33v7h-4.36v-6.84l-6.47-11.19,4.42-.72,4.36,8,4.14-7.7h4.61Z"/><path d="M402.58,423.67c-4.9,0-8.86-3.7-8.86-9.57s4-9.61,8.86-9.61,8.85,3.67,8.85,9.57S407.47,423.67,402.58,423.67Zm0-15.69c-2.92,0-4.58,2.63-4.58,6.08s1.73,6.16,4.58,6.16,4.57-2.67,4.57-6.12S405.42,408,402.58,408Z"/><path d="M420.14,408.3v4.18h5.8l.54,3.45h-6.34v7.38h-4.21V404.85h11.74v3.45Z"/><path d="M448.37,398.37h5.07l9.11,24.33-4.75.87L455.42,417H446l-2.23,6.3H439Zm-1.08,14.76h6.8l-3.38-9.61Z"/><path d="M474.11,423.67c-5.51,0-9.07-3.7-9.07-9.54s3.74-9.64,9-9.64a9.73,9.73,0,0,1,5.22,1.29l-.58,3.78a7.06,7.06,0,0,0-4.25-1.47c-3,0-5,2.16-5,6s2.05,6,5,6a8.4,8.4,0,0,0,4.5-1.44l.54,3.53A10.54,10.54,0,0,1,474.11,423.67Z"/><path d="M491.93,408.52v14.79h-4.36V408.52H482.1v-3.67h15.08l.54,3.67Z"/><path d="M501.54,423.31V404.85h4.21v18.46Z"/><path d="M520.87,423.53h-4.64l-6.63-18.18,4.43-.83,4.68,14.19,4.54-13.86h4.39Z"/><path d="M528.36,423.31l6.8-18.64h5.15l6.62,18.1-4.17.83-1.51-4.43h-7.31l-1.4,4.14Zm6.66-7.52h5.11l-2.56-7.59Z"/><path d="M557.84,408.52v14.79h-4.35V408.52H548v-3.67H563.1l.54,3.67Z"/><path d="M567.45,423.31V404.85h4.22v18.46Z"/><path d="M585.17,423.67c-4.9,0-8.86-3.7-8.86-9.57s4-9.61,8.86-9.61,8.85,3.67,8.85,9.57S590.06,423.67,585.17,423.67Zm0-15.69c-2.92,0-4.58,2.63-4.58,6.08s1.73,6.16,4.58,6.16,4.57-2.67,4.57-6.12S588,408,585.17,408Z"/><path d="M610.44,423.31l-8.07-12.16v12.16h-3.85V404.85h4.11l7.63,11.52V404.85h3.85v18.46Z"/><path d="M87.35,465.31V440.48h15.47v5H93.39V450h7.2l.79,4.93h-8v5.36h9.76v5Z"/><path d="M116,465.31l-.36-2.19a7.32,7.32,0,0,1-5.55,2.55c-2.8,0-4.78-1.69-4.78-4.89,0-4.14,3.16-6.08,10.07-6.7v-.32c0-1.55-.86-2.23-2.66-2.23a13.85,13.85,0,0,0-5.69,1.33l-.64-4.1a18.19,18.19,0,0,1,7.16-1.37c4.86,0,7.27,1.62,7.27,6.12v11.8Zm-.62-8.6c-3.7.58-4.71,1.8-4.71,3.35a1.59,1.59,0,0,0,1.73,1.73,4.56,4.56,0,0,0,3-1.33Z"/><path d="M131,465.6a16.1,16.1,0,0,1-7.27-1.76l.65-4.14a13.52,13.52,0,0,0,6.66,2.09c1.51,0,2.23-.51,2.23-1.33s-.5-1.3-3-1.91c-4.42-1.15-6.3-2.34-6.3-5.65s2.45-5.51,6.81-5.51a16,16,0,0,1,6.48,1.33l-.69,4.14a12.9,12.9,0,0,0-5.79-1.66c-1.26,0-1.88.47-1.88,1.16s.51,1.11,3,1.8c4.68,1.22,6.34,2.44,6.34,5.72C138.25,463.59,135.69,465.6,131,465.6Z"/><path d="M148.36,465.57c-3.78,0-6.4-1.37-6.4-5.87v-7.6h-2.34v-4.42H142v-5.26l5.4-.86v6.12h3.34l.69,4.42h-4v6.73c0,1.41.72,2.09,2.16,2.09a5.15,5.15,0,0,0,1.33-.18l.65,4.47A10.52,10.52,0,0,1,148.36,465.57Z"/><path d="M173.13,465.75c-7.52,0-12.06-5-12.06-12.82S165.9,440,173,440a13.85,13.85,0,0,1,6.88,1.63l-.87,5.54a9.13,9.13,0,0,0-5.54-2c-3.74,0-6.19,2.85-6.19,7.71s2.77,7.7,6.51,7.7a11.3,11.3,0,0,0,5.65-1.73l.8,5A14.23,14.23,0,0,1,173.13,465.75Z"/><path d="M190.27,465.67c-4.86,0-8.42-3.49-8.42-9.14s3.6-9.21,8.45-9.21,8.5,3.52,8.5,9.18S195.16,465.67,190.27,465.67Zm0-13.89c-2.08,0-3.2,1.84-3.2,4.72s1.15,4.78,3.2,4.78,3.24-1.9,3.24-4.75S192.39,451.78,190.3,451.78Z"/><path d="M211.51,465.31l-.36-2.19a7.31,7.31,0,0,1-5.55,2.55c-2.8,0-4.78-1.69-4.78-4.89,0-4.14,3.16-6.08,10.08-6.7v-.32c0-1.55-.87-2.23-2.67-2.23a13.85,13.85,0,0,0-5.69,1.33l-.64-4.1a18.19,18.19,0,0,1,7.16-1.37c4.86,0,7.27,1.62,7.27,6.12v11.8Zm-.61-8.6c-3.71.58-4.72,1.8-4.72,3.35a1.59,1.59,0,0,0,1.73,1.73,4.6,4.6,0,0,0,3-1.33Z"/><path d="M226.48,465.6a16.1,16.1,0,0,1-7.27-1.76l.65-4.14a13.52,13.52,0,0,0,6.66,2.09c1.51,0,2.23-.51,2.23-1.33s-.5-1.3-3-1.91c-4.42-1.15-6.3-2.34-6.3-5.65s2.45-5.51,6.81-5.51a16,16,0,0,1,6.48,1.33l-.69,4.14a12.83,12.83,0,0,0-5.79-1.66c-1.26,0-1.87.47-1.87,1.16s.5,1.11,3,1.8c4.68,1.22,6.34,2.44,6.34,5.72C233.72,463.59,231.16,465.6,226.48,465.6Z"/><path d="M243.84,465.57c-3.78,0-6.41-1.37-6.41-5.87v-7.6h-2.34v-4.42h2.34v-5.26l5.4-.86v6.12h3.34l.69,4.42h-4v6.73c0,1.41.72,2.09,2.16,2.09a5.09,5.09,0,0,0,1.33-.18l.65,4.47A10.44,10.44,0,0,1,243.84,465.57Z"/><path d="M268.35,465.78c-7.13,0-11.81-5.18-11.81-12.85S261.22,440,268.42,440s11.85,5.18,11.85,12.85S275.59,465.78,268.35,465.78Zm0-20.95c-3.57,0-5.69,3.13-5.69,8.07s2.12,8.06,5.69,8.06,5.68-3.13,5.68-8.06S272,444.83,268.39,444.83Z"/><path d="M291.21,465.64c-5,0-8.49-3.31-8.49-9,0-6.23,3.92-9.25,8.71-9.25a10.47,10.47,0,0,1,5.29,1.33l-.76,4.64a6.83,6.83,0,0,0-4-1.29c-2.2,0-3.78,1.47-3.78,4.43s1.76,4.46,4,4.46a7,7,0,0,0,4-1.33l.65,4.42A10.24,10.24,0,0,1,291.21,465.64Z"/><path d="M307.66,465.67c-5.29,0-9.07-2.84-9.07-9.1,0-5.76,3.53-9.25,8.32-9.25,5.43,0,7.81,4,7.81,9.14,0,.54,0,1.12-.07,1.4H304c.29,2.81,1.95,3.85,4.36,3.85a11.37,11.37,0,0,0,5.79-1.87l.54,3.85A12.75,12.75,0,0,1,307.66,465.67ZM304,454.88h5.58c-.19-2.67-1.12-4-2.78-4S304.14,452.18,304,454.88Z"/><path d="M327.46,465.31l-.36-2.19a7.3,7.3,0,0,1-5.54,2.55c-2.81,0-4.79-1.69-4.79-4.89,0-4.14,3.17-6.08,10.08-6.7v-.32c0-1.55-.86-2.23-2.66-2.23a13.81,13.81,0,0,0-5.69,1.33l-.65-4.1a18.23,18.23,0,0,1,7.16-1.37c4.86,0,7.28,1.62,7.28,6.12v11.8Zm-.61-8.6c-3.71.58-4.72,1.8-4.72,3.35a1.6,1.6,0,0,0,1.73,1.73,4.58,4.58,0,0,0,3-1.33Z"/><path d="M346.11,465.31V454.26c0-1.26-.5-2.12-1.8-2.12a4.42,4.42,0,0,0-3,1.58v11.59h-5.43V447.68h4.78l.4,2.41c1.58-1.59,3.28-2.77,5.51-2.77,3.27,0,5,2,5,5.47v12.52Z"/><path d="M369.26,445.62v5.08h6.48l.86,5.15h-7.34v9.46h-6.12V440.48H378v5.14Z"/><path d="M387.19,465.67c-4.86,0-8.43-3.49-8.43-9.14s3.6-9.21,8.46-9.21,8.5,3.52,8.5,9.18S392.08,465.67,387.19,465.67Zm0-13.89c-2.09,0-3.2,1.84-3.2,4.72s1.15,4.78,3.2,4.78,3.24-1.9,3.24-4.75S389.31,451.78,387.22,451.78Z"/><path d="M404,455.52v9.79H398.6V447.68h4.75l.58,3.49c1.07-2,2.55-3.67,5.14-3.85l.9,5.54A8.69,8.69,0,0,0,404,455.52Z"/><path d="M420.05,465.67c-5.29,0-9.07-2.84-9.07-9.1,0-5.76,3.53-9.25,8.32-9.25,5.43,0,7.81,4,7.81,9.14,0,.54,0,1.12-.07,1.4H416.38c.29,2.81,1.95,3.85,4.36,3.85a11.37,11.37,0,0,0,5.79-1.87l.54,3.85A12.7,12.7,0,0,1,420.05,465.67Zm-3.7-10.79h5.58c-.18-2.67-1.12-4-2.78-4S416.53,452.18,416.35,454.88Z"/><path d="M437.73,465.64c-5,0-8.5-3.31-8.5-9,0-6.23,3.93-9.25,8.72-9.25a10.47,10.47,0,0,1,5.29,1.33l-.76,4.64a6.85,6.85,0,0,0-4-1.29c-2.2,0-3.78,1.47-3.78,4.43s1.76,4.46,4,4.46a7.06,7.06,0,0,0,4-1.33l.64,4.42A10.18,10.18,0,0,1,437.73,465.64Z"/><path d="M456.12,465.31l-.36-2.19a7.29,7.29,0,0,1-5.54,2.55c-2.81,0-4.79-1.69-4.79-4.89,0-4.14,3.17-6.08,10.08-6.7v-.32c0-1.55-.86-2.23-2.66-2.23a13.81,13.81,0,0,0-5.69,1.33l-.65-4.1a18.28,18.28,0,0,1,7.17-1.37c4.86,0,7.27,1.62,7.27,6.12v11.8Zm-.61-8.6c-3.7.58-4.71,1.8-4.71,3.35a1.59,1.59,0,0,0,1.73,1.73,4.58,4.58,0,0,0,3-1.33Z"/><path d="M471.1,465.6a16.07,16.07,0,0,1-7.27-1.76l.65-4.14a13.52,13.52,0,0,0,6.66,2.09c1.51,0,2.23-.51,2.23-1.33s-.51-1.3-3-1.91c-4.43-1.15-6.3-2.34-6.3-5.65s2.45-5.51,6.8-5.51a15.94,15.94,0,0,1,6.48,1.33l-.68,4.14a12.9,12.9,0,0,0-5.8-1.66c-1.26,0-1.87.47-1.87,1.16s.51,1.11,3,1.8c4.68,1.22,6.34,2.44,6.34,5.72C478.34,463.59,475.78,465.6,471.1,465.6Z"/><path d="M488.45,465.57c-3.78,0-6.4-1.37-6.4-5.87v-7.6h-2.34v-4.42h2.34v-5.26l5.4-.86v6.12h3.34l.69,4.42h-4v6.73a1.87,1.87,0,0,0,2.15,2.09,5.17,5.17,0,0,0,1.34-.18l.64,4.47A10.4,10.4,0,0,1,488.45,465.57Z"/><path d="M509.73,465.6a20.43,20.43,0,0,1-8.68-1.87l.9-5.25a17.72,17.72,0,0,0,7.89,2.3c1.76,0,3-.76,3-2.23s-.72-2.05-4.21-3.39c-5-1.9-7.12-3.52-7.12-7.63,0-4.78,3.74-7.34,8.49-7.34a15.84,15.84,0,0,1,7.49,1.65l-.94,5.19a13.54,13.54,0,0,0-6.48-2c-1.87,0-2.77.79-2.77,1.95s.68,1.87,3.78,3.06c5.44,2,7.56,3.85,7.56,7.81C518.62,463.23,514.66,465.6,509.73,465.6Z"/><path d="M531.18,465.67c-1.58,4.61-3.74,6.2-7.59,6.2a8,8,0,0,1-2.05-.22l-.69-4.36a6.51,6.51,0,0,0,2.16.29,2.94,2.94,0,0,0,2.88-1.69l.22-.54-6.41-17.24,5.87-.69L529,458.55l3.2-10.87h5.26Z"/><path d="M545.66,465.6a16,16,0,0,1-7.27-1.76l.64-4.14a13.55,13.55,0,0,0,6.66,2.09c1.52,0,2.23-.51,2.23-1.33s-.5-1.3-3-1.91c-4.43-1.15-6.3-2.34-6.3-5.65s2.45-5.51,6.8-5.51a16,16,0,0,1,6.48,1.33l-.68,4.14a12.9,12.9,0,0,0-5.8-1.66c-1.26,0-1.87.47-1.87,1.16s.5,1.11,3,1.8c4.68,1.22,6.33,2.44,6.33,5.72C552.89,463.59,550.34,465.6,545.66,465.6Z"/><path d="M563,465.57c-3.78,0-6.41-1.37-6.41-5.87v-7.6h-2.34v-4.42h2.34v-5.26l5.4-.86v6.12h3.35l.68,4.42h-4v6.73c0,1.41.72,2.09,2.16,2.09a5,5,0,0,0,1.33-.18l.65,4.47A10.4,10.4,0,0,1,563,465.57Z"/><path d="M576.76,465.67c-5.29,0-9.07-2.84-9.07-9.1,0-5.76,3.53-9.25,8.31-9.25,5.44,0,7.82,4,7.82,9.14a11.75,11.75,0,0,1-.08,1.4H573.09c.29,2.81,1.94,3.85,4.35,3.85a11.37,11.37,0,0,0,5.8-1.87l.54,3.85A12.75,12.75,0,0,1,576.76,465.67Zm-3.71-10.79h5.58c-.18-2.67-1.11-4-2.77-4S573.23,452.18,573.05,454.88Z"/><path d="M606.82,465.31V454.26c0-1.26-.47-2.12-1.73-2.12a4.42,4.42,0,0,0-2.88,1.55v11.62h-5.43V454.26c0-1.26-.47-2.12-1.73-2.12a4.34,4.34,0,0,0-2.88,1.55v11.62h-5.44V447.68h4.79l.4,2.41c1.58-1.62,3.2-2.77,5.47-2.77a4.33,4.33,0,0,1,4.39,2.77c1.58-1.59,3.31-2.77,5.51-2.77,3.27,0,5,2,5,5.47v12.52Z"/><path d="M91.88,482.37h6.77l8.64,24.19-6.19,1-1.84-5.4H90.62L89,507.31H83Zm.22,15h5.61l-2.77-8.63Z"/><path d="M110.6,507.31V488.6H116v14.18h6l.65,4.53Z"/><path d="M133.14,493.13v14.18h-5.47V493.13h-5V488.6h15.26l.68,4.53Z"/><path d="M141.81,507.31V488.6h12.71v4H147v3.2h5.65l.61,4H147v3.49h7.74v4Z"/><path d="M169.17,507.64l-3.71-6.09H164v5.76h-5.18V488.6h7.27c5,0,7.63,2.44,7.63,6.19a5.72,5.72,0,0,1-3.31,5.33l4.28,6.55Zm-3.56-15.08H164v5.14h1.59c2,0,3.06-.93,3.06-2.7S167.44,492.56,165.61,492.56Z"/><path d="M189.69,507.31l-7-10.87v10.87h-4.75V488.6h4.93l6.55,10.15V488.6h4.76v18.71Z"/><path d="M197.25,507.31l6.41-18.82h6.7l6.19,18.14-5.19,1-1.22-4h-6.66l-1.11,3.7Zm7.35-7.63H209l-2.23-7.27Z"/><path d="M228,493.13v14.18h-5.48V493.13h-5V488.6h15.26l.68,4.53Z"/><path d="M236.67,507.31V488.6h12.71v4h-7.52v3.2h5.65l.61,4h-6.26v3.49h7.73v4Z"/><path d="M273.57,507.75c-7.52,0-12.06-5-12.06-12.82s4.83-12.88,11.88-12.88a13.85,13.85,0,0,1,6.88,1.62l-.87,5.54a9.13,9.13,0,0,0-5.54-2c-3.74,0-6.19,2.85-6.19,7.71s2.77,7.7,6.51,7.7a11.3,11.3,0,0,0,5.65-1.73l.8,5A14.23,14.23,0,0,1,273.57,507.75Z"/><path d="M292.54,507.67c-5.07,0-8.92-3.85-8.92-9.68s3.88-9.75,9-9.75,9,3.85,9,9.72S297.65,507.67,292.54,507.67Zm0-15.19c-2.41,0-3.67,2.34-3.67,5.48s1.29,5.5,3.67,5.5,3.63-2.37,3.63-5.47S294.92,492.48,292.58,492.48Z"/><path d="M317.24,507.31l-7-10.87v10.87h-4.75V488.6h4.93L317,498.75V488.6h4.75v18.71Z"/><path d="M334.92,507.64c-5.66,0-9.33-3.56-9.33-9.65s4-9.72,9.18-9.72a10.13,10.13,0,0,1,5.15,1.19l-.65,4.61a6.44,6.44,0,0,0-3.81-1.33c-2.56,0-4.43,1.69-4.43,5.25s2,5.26,4.5,5.26a8,8,0,0,0,4.06-1.19l.62,4.28A11.43,11.43,0,0,1,334.92,507.64Z"/><path d="M344.13,507.31V488.6h12.71v4h-7.53v3.2H355l.61,4h-6.27v3.49h7.74v4Z"/><path d="M372.89,507.31l-7-10.87v10.87h-4.76V488.6h4.93l6.56,10.15V488.6h4.75v18.71Z"/><path d="M391.43,493.13v14.18H386V493.13h-5V488.6h15.27l.68,4.53Z"/><path d="M410.48,507.64l-3.71-6.09h-1.48v5.76h-5.18V488.6h7.27c5,0,7.63,2.44,7.63,6.19a5.72,5.72,0,0,1-3.31,5.33l4.29,6.55Zm-3.57-15.08h-1.65v5.14h1.58c2,0,3.06-.93,3.06-2.7S408.75,492.56,406.91,492.56Z"/><path d="M417.57,507.31,424,488.49h6.69l6.19,18.14-5.18,1-1.22-4H423.8l-1.12,3.7Zm7.34-7.63h4.43l-2.23-7.27Z"/><path d="M448.31,493.13v14.18h-5.47V493.13h-5V488.6h15.26l.69,4.53Z"/><path d="M457.1,507.31V488.6h5.22v18.71Z"/><path d="M475.31,507.67c-5.07,0-8.92-3.85-8.92-9.68s3.88-9.75,9-9.75,9,3.85,9,9.72S480.42,507.67,475.31,507.67Zm0-15.19c-2.41,0-3.67,2.34-3.67,5.48s1.29,5.5,3.67,5.5S479,501.09,479,498,477.69,492.48,475.35,492.48Z"/><path d="M500,507.31l-7-10.87v10.87h-4.75V488.6h4.93l6.55,10.15V488.6h4.75v18.71Z"/><path d="M518,507.31V482.48h6.16V502h7.63l.83,5.32Z"/><path d="M536.15,507.31V488.6h5.22v18.71Z"/><path d="M564.41,507.31l-.75-13.67-3.6,13.71h-5.22l-3.64-13.71-.72,13.67H546l1.23-18.71h7.23l3.31,12.16,3.35-12.16h7.23l1.23,18.71Z"/><path d="M574.17,507.31V488.6h5.22v18.71Z"/><path d="M593.64,493.13v14.18h-5.47V493.13h-5V488.6h15.26l.69,4.53Z"/><path d="M608.3,507.6a21.31,21.31,0,0,1-7.2-1.37l.75-4.24a19.71,19.71,0,0,0,6.45,1.58c1.76,0,2.55-.57,2.55-1.48s-.61-1.33-2.52-1.9c-4.28-1.23-6.62-2.41-6.62-6s2.81-5.87,6.84-5.87a15.78,15.78,0,0,1,6.19,1.23l-.72,4.14a14.88,14.88,0,0,0-5.47-1.33c-1.37,0-2.09.61-2.09,1.36s.58,1.3,2.63,1.91c4.64,1.33,6.55,2.56,6.55,5.87C615.64,505.26,612.72,507.6,608.3,507.6Z"/><path d="M98.52,549.57l-4.57-8H92.84v7.7H85.53V524.48H95c6.41,0,10.08,2.84,10.08,8.17a7.51,7.51,0,0,1-4.32,7.16l5.4,8.57Zm-4.28-19.73H92.76v6.66h1.52c2.37,0,3.67-1.22,3.67-3.42S96.62,529.84,94.24,529.84Z"/><path d="M116.13,549.67c-5.65,0-9.54-2.88-9.54-9.14,0-5.87,3.63-9.39,8.6-9.39,5.62,0,8,4.1,8,9.36a10.78,10.78,0,0,1-.11,1.72H112.92c.4,2.24,2,3,4.07,3a12.88,12.88,0,0,0,5.65-1.62l.58,4.25A14.25,14.25,0,0,1,116.13,549.67ZM112.85,539h4.36c-.07-2.59-.9-3.89-2.2-3.89S112.89,536.36,112.85,539Z"/><path d="M133.62,549.6c-5.25,0-8.74-3.35-8.74-9,0-6.37,4.1-9.39,9-9.39a11.2,11.2,0,0,1,5.11,1.22l-.86,5.33a6.44,6.44,0,0,0-3.49-1.08c-1.91,0-3.35,1.22-3.35,3.71s1.62,3.78,3.49,3.78a7.43,7.43,0,0,0,3.6-1.12l.72,5.11A11,11,0,0,1,133.62,549.6Z"/><path d="M152.16,549.31l-.39-2.37c-1.59,1.62-3.13,2.73-5.26,2.73-3.27,0-5-2-5-5.61V531.5h6.41v10.76c0,1,.43,1.8,1.47,1.8a3.14,3.14,0,0,0,2.13-1.08V531.5h6.4v17.81Z"/><path d="M167.5,539.67v9.64h-6.41V531.5h5.73l.57,3.49c1-2.09,2.27-3.67,4.79-3.85l1,6.58A10.48,10.48,0,0,0,167.5,539.67Z"/><path d="M181.94,549.57a17.36,17.36,0,0,1-7.71-1.8l.72-4.65a15,15,0,0,0,6.91,2.13c1.26,0,1.73-.36,1.73-.94s-.32-.9-2.55-1.48c-4.58-1.18-6.56-2.37-6.56-5.79s2.52-5.79,7.1-5.79a17.13,17.13,0,0,1,6.84,1.36l-.72,4.65a13.88,13.88,0,0,0-6-1.73c-1,0-1.41.32-1.41.79s.33.83,2.7,1.48c4.9,1.33,6.45,2.52,6.45,5.79C189.39,547.55,186.72,549.57,181.94,549.57Z"/><path d="M195.15,529.66a3.34,3.34,0,1,1,3.56-3.31A3.31,3.31,0,0,1,195.15,529.66Zm-3.21,19.65V531.5h6.41v17.81Z"/><path d="M212.57,549.39h-6.44l-6-17.39,7-.75,2.77,10.07,2.74-9.82h6.12Z"/><path d="M228.48,549.67c-5.65,0-9.54-2.88-9.54-9.14,0-5.87,3.64-9.39,8.61-9.39,5.61,0,8,4.1,8,9.36a11,11,0,0,1-.1,1.72H225.28c.39,2.24,2,3,4.07,3a12.92,12.92,0,0,0,5.65-1.62l.57,4.25A14.22,14.22,0,0,1,228.48,549.67ZM225.21,539h4.35c-.07-2.59-.9-3.89-2.19-3.89S225.24,536.36,225.21,539Z"/><path d="M238.1,549.31v-25l6.4-1v26Z"/><path d="M258.9,549.17c-1.65,4.86-3.92,6.7-8.2,6.7a8.6,8.6,0,0,1-2.49-.26l-.79-5a7.11,7.11,0,0,0,2.34.29,3.12,3.12,0,0,0,3-1.55L246.27,532l7-.75,2.88,10,2.63-9.75h6.12Z"/><path d="M274.2,549.31V524.48h16.38v5.79H281.4v3.42h7l.9,5.73H281.4v4.1h9.51v5.79Z"/><path d="M303.61,549.31V538.55c0-1-.43-1.8-1.47-1.8a3.14,3.14,0,0,0-2.13,1.08v11.48h-6.4V531.5h5.76l.39,2.37c1.59-1.62,3.13-2.73,5.26-2.73,3.27,0,5,2.05,5,5.61v12.56Z"/><path d="M323.63,549.31l-.4-2.37c-1.58,1.62-3.13,2.73-5.25,2.73-3.28,0-5-2-5-5.61V531.5h6.41v10.76c0,1,.43,1.8,1.48,1.8A3.14,3.14,0,0,0,323,543V531.5h6.41v17.81Z"/><path d="M352.21,549.31V538.55c0-1-.39-1.8-1.4-1.8a3.14,3.14,0,0,0-2,1v11.51h-6.41V538.55c0-1-.39-1.8-1.4-1.8a3.14,3.14,0,0,0-2,1v11.51h-6.41V531.5h5.76l.39,2.37c1.59-1.69,3.06-2.73,5.26-2.73a4.35,4.35,0,0,1,4.32,2.73c1.58-1.65,3.17-2.73,5.29-2.73,3.28,0,5,2.05,5,5.61v12.56Z"/><path d="M370.43,549.67c-5.65,0-9.54-2.88-9.54-9.14,0-5.87,3.64-9.39,8.6-9.39,5.62,0,8,4.1,8,9.36a10.78,10.78,0,0,1-.11,1.72H367.22c.4,2.24,2,3,4.07,3a12.88,12.88,0,0,0,5.65-1.62l.58,4.25A14.25,14.25,0,0,1,370.43,549.67ZM367.15,539h4.36c-.07-2.59-.9-3.89-2.2-3.89S367.19,536.36,367.15,539Z"/><path d="M386.38,539.67v9.64H380V531.5h5.72l.58,3.49c1-2.09,2.27-3.67,4.79-3.85l1,6.58A10.48,10.48,0,0,0,386.38,539.67Z"/><path d="M402.79,549.31l-.36-2.16a7.14,7.14,0,0,1-5.32,2.52c-2.7,0-4.72-1.62-4.72-4.93,0-4.06,3-6.12,9.75-6.69v-.15c0-1.29-.68-1.94-2.41-1.94a14.21,14.21,0,0,0-5.58,1.26l-.72-4.68a19.67,19.67,0,0,1,7.38-1.33c5.15,0,7.74,1.58,7.74,6.37v11.73Zm-.61-8.56c-2.59.57-3.49,1.58-3.49,3a1.32,1.32,0,0,0,1.37,1.51,3.41,3.41,0,0,0,2.12-.9Z"/><path d="M419.53,549.53a22.19,22.19,0,0,1-7.95-1.33V524.33l6.4-1v10a6.33,6.33,0,0,1,4.54-2.23c3.56,0,6.12,2.73,6.12,8.78C428.64,546.62,425.15,549.53,419.53,549.53Zm.69-12.71a3.29,3.29,0,0,0-2.24,1.23v6.19a3.83,3.83,0,0,0,1.37.25c1.59,0,2.92-1,2.92-4.1C422.27,537.76,421.44,536.82,420.22,536.82Z"/><path d="M431.23,549.31v-25l6.41-1v26Z"/><path d="M449.63,549.67c-5.65,0-9.54-2.88-9.54-9.14,0-5.87,3.63-9.39,8.6-9.39,5.62,0,8,4.1,8,9.36a10.78,10.78,0,0,1-.11,1.72H446.42c.4,2.24,2,3,4.07,3a12.88,12.88,0,0,0,5.65-1.62l.58,4.25A14.28,14.28,0,0,1,449.63,549.67ZM446.35,539h4.36c-.08-2.59-.9-3.89-2.2-3.89S446.39,536.36,446.35,539Z"/><path d="M466.87,549.31V524.48h7.38v18.57h7l1,6.26Z"/><path d="M493.87,549.31l-.36-2.16a7.15,7.15,0,0,1-5.33,2.52c-2.7,0-4.71-1.62-4.71-4.93,0-4.06,3-6.12,9.75-6.69v-.15c0-1.29-.68-1.94-2.41-1.94a14.14,14.14,0,0,0-5.58,1.26l-.72-4.68a19.63,19.63,0,0,1,7.38-1.33c5.15,0,7.74,1.58,7.74,6.37v11.73Zm-.61-8.56c-2.59.57-3.49,1.58-3.49,3a1.32,1.32,0,0,0,1.36,1.51,3.41,3.41,0,0,0,2.13-.9Z"/><path d="M512.66,549.31V538.55c0-1-.43-1.8-1.47-1.8a3.14,3.14,0,0,0-2.13,1.08v11.48h-6.4V531.5h5.76l.39,2.37c1.58-1.62,3.13-2.73,5.26-2.73,3.27,0,5,2.05,5,5.61v12.56Z"/><path d="M529.19,555.87c-5.19,0-8.71-1.55-8.71-4.11,0-1.44.82-2.52,2.55-3.53a2.89,2.89,0,0,1-.9-2c0-1.22,1-2.41,3-3.53a5.28,5.28,0,0,1-3.46-5.07c0-3.93,3.17-6.41,7.74-6.41a9.4,9.4,0,0,1,5.87,1.8l4.07-1.69.75,4.53H537a5.26,5.26,0,0,1,.22,1.48c0,3.89-3.42,6.15-7.63,6.15a14.39,14.39,0,0,1-1.77-.07,1.2,1.2,0,0,0-.28.68c0,.47.36.62,2.48.76l4.1.25c3.46.22,5.55,1.3,5.55,4C539.7,553.06,535.34,555.87,529.19,555.87ZM526,549.49a2.42,2.42,0,0,0-.5,1.41c0,1.15,1.15,1.94,4.28,1.94,2.59,0,4.14-.83,4.14-1.87,0-.76-.61-.94-2.27-1l-2.88-.18C527.42,549.67,526.81,549.6,526,549.49Zm3.49-14.72c-1.36,0-2.08,1.15-2.08,2.67s.72,2.52,2.08,2.52,2.16-1.05,2.16-2.6S530.84,534.77,529.47,534.77Z"/><path d="M552.37,549.31l-.4-2.37c-1.58,1.62-3.13,2.73-5.25,2.73-3.28,0-5-2-5-5.61V531.5h6.41v10.76c0,1,.43,1.8,1.48,1.8a3.14,3.14,0,0,0,2.12-1.08V531.5h6.41v17.81Z"/><path d="M570.91,549.31l-.36-2.16a7.15,7.15,0,0,1-5.33,2.52c-2.7,0-4.71-1.62-4.71-4.93,0-4.06,3-6.12,9.75-6.69v-.15c0-1.29-.68-1.94-2.41-1.94a14.14,14.14,0,0,0-5.58,1.26l-.72-4.68a19.63,19.63,0,0,1,7.38-1.33c5.15,0,7.74,1.58,7.74,6.37v11.73Zm-.61-8.56c-2.59.57-3.49,1.58-3.49,3a1.32,1.32,0,0,0,1.36,1.51,3.41,3.41,0,0,0,2.13-.9Z"/><path d="M586.75,555.87c-5.18,0-8.71-1.55-8.71-4.11,0-1.44.83-2.52,2.55-3.53a2.89,2.89,0,0,1-.9-2c0-1.22,1-2.41,3-3.53a5.29,5.29,0,0,1-3.45-5.07c0-3.93,3.16-6.41,7.73-6.41a9.4,9.4,0,0,1,5.87,1.8l4.07-1.69.76,4.53H594.6a5.62,5.62,0,0,1,.21,1.48c0,3.89-3.42,6.15-7.63,6.15a14.22,14.22,0,0,1-1.76-.07,1.16,1.16,0,0,0-.29.68c0,.47.36.62,2.48.76l4.11.25c3.45.22,5.54,1.3,5.54,4C597.26,553.06,592.9,555.87,586.75,555.87Zm-3.2-6.38a2.44,2.44,0,0,0-.51,1.41c0,1.15,1.15,1.94,4.29,1.94,2.59,0,4.13-.83,4.13-1.87,0-.76-.61-.94-2.26-1l-2.88-.18C585,549.67,584.37,549.6,583.55,549.49ZM587,534.77c-1.37,0-2.09,1.15-2.09,2.67S585.67,540,587,540s2.16-1.05,2.16-2.6S588.41,534.77,587,534.77Z"/><path d="M607.59,549.67c-5.65,0-9.54-2.88-9.54-9.14,0-5.87,3.64-9.39,8.61-9.39,5.61,0,8,4.1,8,9.36a11,11,0,0,1-.1,1.72H604.39c.4,2.24,2,3,4.07,3a12.92,12.92,0,0,0,5.65-1.62l.57,4.25A14.22,14.22,0,0,1,607.59,549.67ZM604.32,539h4.35c-.07-2.59-.9-3.89-2.19-3.89S604.35,536.36,604.32,539Z"/><path d="M93.05,591.6a22.87,22.87,0,0,1-9.43-2l1.08-6A20.46,20.46,0,0,0,93.16,586c1.44,0,2.38-.51,2.38-1.59s-.62-1.54-4-2.73c-5.08-1.8-7.38-3.46-7.38-7.81,0-5.11,4-7.67,8.89-7.67a17.46,17.46,0,0,1,8.24,1.76l-1.08,6a15.72,15.72,0,0,0-7-2.13c-1.48,0-2.2.51-2.2,1.37s.58,1.48,3.38,2.41c5.65,1.88,8,3.86,8,7.92C102.37,589.37,98.09,591.6,93.05,591.6Z"/><path d="M114,591.67c-5.22,0-9-4-9-9.79s3.78-9.82,9-9.82,9,4,9,9.79S119.26,591.67,114,591.67Zm0-14.75c-1.94,0-2.91,2.12-2.91,5s1,5,2.91,5,2.88-2.12,2.88-5S116,576.92,114,576.92Z"/><path d="M134.49,591.67c-5.19,0-8.14-2.59-8.14-7.81V572.42h6.05V584c0,1.62.43,2.66,2.12,2.66s2.16-1,2.16-2.66V572.42h6.09v11.44C142.77,589.08,139.67,591.67,134.49,591.67Z"/><path d="M158.5,591.31l-6.12-9.75v9.75h-5.51V572.42h5.69l5.58,8.92v-8.92h5.51v18.89Z"/><path d="M175.27,591.31h-7.41V572.42h7.23c6.56,0,9.83,3.63,9.83,9.43C184.92,587.46,181.32,591.31,175.27,591.31Zm-.39-14.18H174v9.47h.94c2.26,0,3.67-1.48,3.67-4.72S177.33,577.13,174.88,577.13Z"/><path d="M209.73,572.6v18.71h-7.38V572.6h-6.66v-6.12h20l1,6.12Z"/><path d="M228.52,591.67l-3.1-5.54h-1.26v5.18h-6V572.42h7.95c5.43,0,8,2.59,8,6.44a6.12,6.12,0,0,1-3.06,5.36l3.88,6.41Zm-3.1-14.83h-1.33v4.83h1.22c1.88,0,2.81-.83,2.81-2.52S227,576.84,225.42,576.84Z"/><path d="M236.12,591.31l6-19h8L256,590.52l-6,1.05L249,588h-6.09l-.9,3.31Zm7.84-7.73h3.89l-1.94-7Z"/><path d="M270.24,591.31l-6.12-9.75v9.75h-5.51V572.42h5.69l5.58,8.92v-8.92h5.51v18.89Z"/><path d="M286.37,591.6a22.94,22.94,0,0,1-7.6-1.37l.9-4.78a22.48,22.48,0,0,0,6.66,1.55c1.62,0,2.09-.4,2.09-1s-.43-1-2.05-1.44c-4.46-1.19-7-2.37-7-6.23s2.88-6.15,7.12-6.15a16.82,16.82,0,0,1,6.59,1.29l-.83,4.65a16.41,16.41,0,0,0-5.68-1.33c-1.19,0-1.7.46-1.7,1s.4,1,2.09,1.48c5,1.36,7,2.55,7,6C294,589.19,291,591.6,286.37,591.6Z"/><path d="M315.31,591.31l-.61-13.21-2.92,13.21h-6l-2.95-13.21-.58,13.21h-5.15l1.12-18.89h8.35l2.59,11.08,2.59-11.08h8.42l1.16,18.89Z"/><path d="M325.29,591.31V572.42h6.08v18.89Z"/><path d="M342.46,591.6a22.94,22.94,0,0,1-7.6-1.37l.9-4.78a22.48,22.48,0,0,0,6.66,1.55c1.62,0,2.09-.4,2.09-1s-.43-1-2.05-1.44c-4.47-1.19-7-2.37-7-6.23s2.88-6.15,7.13-6.15a16.86,16.86,0,0,1,6.59,1.29l-.83,4.65a16.46,16.46,0,0,0-5.69-1.33c-1.18,0-1.69.46-1.69,1s.4,1,2.09,1.48c5,1.36,7,2.55,7,6C350.09,589.19,347.1,591.6,342.46,591.6Z"/><path d="M360.24,591.6a22.87,22.87,0,0,1-7.59-1.37l.9-4.78a22.34,22.34,0,0,0,6.66,1.55c1.62,0,2.08-.4,2.08-1s-.43-1-2.05-1.44c-4.46-1.19-7-2.37-7-6.23s2.88-6.15,7.12-6.15a16.82,16.82,0,0,1,6.59,1.29l-.83,4.65a16.41,16.41,0,0,0-5.68-1.33c-1.19,0-1.69.46-1.69,1s.39,1,2.08,1.48c5,1.36,7,2.55,7,6C367.87,589.19,364.88,591.6,360.24,591.6Z"/><path d="M371.37,591.31V572.42h6.08v18.89Z"/><path d="M390,591.67c-5.22,0-9-4-9-9.79s3.78-9.82,9-9.82,9,4,9,9.79S395.27,591.67,390,591.67Zm0-14.75c-1.94,0-2.91,2.12-2.91,5s1,5,2.91,5,2.88-2.12,2.88-5S392,576.92,390,576.92Z"/><path d="M414.1,591.31,408,581.56v9.75h-5.51V572.42h5.69l5.58,8.92v-8.92h5.5v18.89Z"/><path d="M443.44,591.71c-7.74,0-12.32-5-12.32-12.78s4.94-12.85,12.06-12.85a15.25,15.25,0,0,1,6.77,1.41l-1,6.44a8.49,8.49,0,0,0-5.11-1.84c-3.17,0-5.36,2.45-5.36,6.81,0,4.53,2.63,6.8,5.86,6.8a10.92,10.92,0,0,0,5.05-1.41l.93,5.84A15.12,15.12,0,0,1,443.44,591.71Z"/><path d="M461.8,591.67c-5.22,0-9-4-9-9.79s3.78-9.82,9-9.82,9,4,9,9.79S467.09,591.67,461.8,591.67Zm0-14.75c-1.94,0-2.91,2.12-2.91,5s1,5,2.91,5,2.88-2.12,2.88-5S463.78,576.92,461.83,576.92Z"/><path d="M474.29,591.31V572.42h13.28v4.5H480.3v2.66h5.33l.64,4.43h-6v2.81h7.49v4.49Z"/><path d="M497.43,577v3h5.15l.69,4.64h-5.84v6.62h-6V572.42h13.07V577Z"/><path d="M513.89,577v3H519l.69,4.64h-5.83v6.62h-6V572.42h13.06V577Z"/><path d="M524.43,591.31V572.42h6.09v18.89Z"/><path d="M543.62,591.64c-5.79,0-9.57-3.46-9.57-9.76s4.17-9.79,9.32-9.79a11,11,0,0,1,5.15,1.08l-.76,5.29a6.07,6.07,0,0,0-3.45-1.18c-2.13,0-3.93,1.29-3.93,4.6s1.91,4.61,4,4.61a7.82,7.82,0,0,0,3.71-1l.72,4.93A11.78,11.78,0,0,1,543.62,591.64Z"/><path d="M552.37,591.31V572.42h6.08v18.89Z"/><path d="M562.77,591.31V572.42h13.29v4.5h-7.27v2.66h5.32l.65,4.43h-6v2.81h7.48v4.49Z"/><path d="M591.54,591.31l-6.12-9.75v9.75h-5.51V572.42h5.69l5.58,8.92v-8.92h5.5v18.89Z"/><path d="M611.05,577.64v13.67h-6.41V577.64h-4.71v-5.22H615.4l.76,5.22Z"/></svg>